<mxfile host="app.diagrams.net" agent="Mozilla/5.0 (Windows NT 10.0; Win64; x64; rv:138.0) Gecko/20100101 Firefox/138.0" version="26.2.14">
  <diagram name="Page-1" id="cEFgbjeEuSNL9GOUmt78">
    <mxGraphModel dx="3412" dy="1222" grid="1" gridSize="10" guides="1" tooltips="1" connect="1" arrows="1" fold="1" page="1" pageScale="1" pageWidth="850" pageHeight="1100" math="0" shadow="0">
      <root>
        <mxCell id="0" />
        <mxCell id="1" parent="0" />
        <UserObject label="" plantUmlData="{&#xa;  &quot;data&quot;: &quot;@startuml\nclass User {\n  -userId: String\n  -userType: Enum&lt;Chef, HomeCook, Nutritionist&gt;\n  +createRecipe()\n  +shareRecipe()\n}\n\nclass Recipe {\n  -recipeId: String\n  -servingSize: int\n  +scaleServings()\n  +calculateNutrition()\n}\n\nclass Ingredient {\n  -ingredientId: String\n  -costPerUnit: double\n  -inventoryLevel: int\n}\n\nclass NutritionalInfo {\n  -calories: double\n  -protein: double\n  -carbs: double\n}\n\nUser \&quot;1\&quot; -- \&quot;*\&quot; Recipe : creates\nRecipe \&quot;1\&quot; -- \&quot;*\&quot; Ingredient : contains\nRecipe \&quot;1\&quot; -- \&quot;1\&quot; NutritionalInfo : generates\nIngredient \&quot;1\&quot; -- \&quot;*\&quot; Inventory : tracks\n@enduml\n&quot;,&#xa;  &quot;format&quot;: &quot;svg&quot;&#xa;}" id="UhCZ1_yWcIaTT6cPaHG9-1">
          <mxCell style="shape=image;noLabel=1;verticalAlign=top;aspect=fixed;imageAspect=0;image=data:image/svg+xml,PHN2ZyB4bWxucz0iaHR0cDovL3d3dy53My5vcmcvMjAwMC9zdmciIHhtbG5zOnhsaW5rPSJodHRwOi8vd3d3LnczLm9yZy8xOTk5L3hsaW5rIiBjb250ZW50U3R5bGVUeXBlPSJ0ZXh0L2NzcyIgZGF0YS1kaWFncmFtLXR5cGU9IkNMQVNTIiBoZWlnaHQ9IjU5NnB4IiBwcmVzZXJ2ZUFzcGVjdFJhdGlvPSJub25lIiBzdHlsZT0id2lkdGg6NDAzcHg7aGVpZ2h0OjU5NnB4O2JhY2tncm91bmQ6I0ZGRkZGRjsiIHZlcnNpb249IjEuMSIgdmlld0JveD0iMCAwIDQwMyA1OTYiIHdpZHRoPSI0MDNweCIgem9vbUFuZFBhbj0ibWFnbmlmeSI+PGRlZnMvPjxnPjwhLS1jbGFzcyBVc2VyLS0+PGcgY2xhc3M9ImVudGl0eSIgZGF0YS1lbnRpdHk9IlVzZXIiIGRhdGEtc291cmNlLWxpbmU9IjEiIGRhdGEtdWlkPSJlbnQwMDAyIiBpZD0iZW50aXR5X1VzZXIiPjxyZWN0IGZpbGw9IiNGMUYxRjEiIGhlaWdodD0iMTA3LjkzNzUiIHJ4PSIyLjUiIHJ5PSIyLjUiIHN0eWxlPSJzdHJva2U6IzE4MTgxODtzdHJva2Utd2lkdGg6MC41OyIgd2lkdGg9IjMzNCIgeD0iNjIiIHk9IjciLz48ZWxsaXBzZSBjeD0iMjEwLjc1IiBjeT0iMjMiIGZpbGw9IiNBREQxQjIiIHJ4PSIxMSIgcnk9IjExIiBzdHlsZT0ic3Ryb2tlOiMxODE4MTg7c3Ryb2tlLXdpZHRoOjE7Ii8+PHBhdGggZD0iTTIwOC4zNzUsMjcuMjUgTDIwOC4zNzUsMjkgTDIxMy4zMTI1LDI5IEwyMTMuMzEyNSwyNy4yNSBMMjA4LjM3NSwyNy4yNSBaIE0yMDkuMDYyNSwyNy45Mzc1IFEyMDkuMDYyNSwyNy45Mzc1IDIwOS4wNjI1LDE4Ljc1IEwyMDcuMzEyNSwxOC43NSBRMjA3LjMxMjUsMTguNzUgMjA3LjMxMjUsMjcuOTM3NSBMMjA5LjA2MjUsMjcuOTM3NSBaIE0yMTIuNjI1LDI3LjkzNzUgTDIxNC4zNzUsMjcuOTM3NSBRMjE0LjM3NSwyNy45Mzc1IDIxNC4zNzUsMjUuMTI1IEwyMTIuNjI1LDI1LjEyNSBRMjEyLjYyNSwyNS4xMjUgMjEyLjYyNSwyNy45Mzc1IFogTTIxMi42MjUsMTguNzUgUTIxMi42MjUsMTguNzUgMjEyLjYyNSwyMS41NjI1IEwyMTQuMzc1LDIxLjU2MjUgUTIxNC4zNzUsMjEuNTYyNSAyMTQuMzc1LDE4Ljc1IEwyMTIuNjI1LDE4Ljc1IFogTTIwOC4zNzUsMTkuNDM3NSBMMjEzLjMxMjUsMTkuNDM3NSBMMjEzLjMxMjUsMTcuNjg3NSBMMjA4LjM3NSwxNy42ODc1IEwyMDguMzc1LDE5LjQzNzUgWiAiIGZpbGw9IiMwMDAwMDAiLz48dGV4dCBmaWxsPSIjMDAwMDAwIiBmb250LWZhbWlseT0ic2Fucy1zZXJpZiIgZm9udC1zaXplPSIxNCIgbGVuZ3RoQWRqdXN0PSJzcGFjaW5nIiB0ZXh0TGVuZ3RoPSIyOCIgeD0iMjMxLjI1IiB5PSIyOC43NDIyIj5Vc2VyPC90ZXh0PjxsaW5lIHN0eWxlPSJzdHJva2U6IzE4MTgxODtzdHJva2Utd2lkdGg6MC41OyIgeDE9IjYzIiB4Mj0iMzk1IiB5MT0iMzkiIHkyPSIzOSIvPjxyZWN0IGZpbGw9Im5vbmUiIGhlaWdodD0iNiIgc3R5bGU9InN0cm9rZTojQzgyOTMwO3N0cm9rZS13aWR0aDoxOyIgd2lkdGg9IjYiIHg9IjcwIiB5PSI0OC45OTIyIi8+PHRleHQgZmlsbD0iIzAwMDAwMCIgZm9udC1mYW1pbHk9InNhbnMtc2VyaWYiIGZvbnQtc2l6ZT0iMTQiIGxlbmd0aEFkanVzdD0ic3BhY2luZyIgdGV4dExlbmd0aD0iOTgiIHg9IjgyIiB5PSI1Ni4yMzQ0Ij51c2VySWQ6IFN0cmluZzwvdGV4dD48cmVjdCBmaWxsPSJub25lIiBoZWlnaHQ9IjYiIHN0eWxlPSJzdHJva2U6I0M4MjkzMDtzdHJva2Utd2lkdGg6MTsiIHdpZHRoPSI2IiB4PSI3MCIgeT0iNjMuOTc2NiIvPjx0ZXh0IGZpbGw9IiMwMDAwMDAiIGZvbnQtZmFtaWx5PSJzYW5zLXNlcmlmIiBmb250LXNpemU9IjE0IiBsZW5ndGhBZGp1c3Q9InNwYWNpbmciIHRleHRMZW5ndGg9IjMwOCIgeD0iODIiIHk9IjcxLjIxODgiPnVzZXJUeXBlOiBFbnVtJmx0O0NoZWYsIEhvbWVDb29rLCBOdXRyaXRpb25pc3QmZ3Q7PC90ZXh0PjxsaW5lIHN0eWxlPSJzdHJva2U6IzE4MTgxODtzdHJva2Utd2lkdGg6MC41OyIgeDE9IjYzIiB4Mj0iMzk1IiB5MT0iNzYuOTY4OCIgeTI9Ijc2Ljk2ODgiLz48ZWxsaXBzZSBjeD0iNzMiIGN5PSI4OS45NjA5IiBmaWxsPSIjODRCRTg0IiByeD0iMyIgcnk9IjMiIHN0eWxlPSJzdHJva2U6IzAzODA0ODtzdHJva2Utd2lkdGg6MTsiLz48dGV4dCBmaWxsPSIjMDAwMDAwIiBmb250LWZhbWlseT0ic2Fucy1zZXJpZiIgZm9udC1zaXplPSIxNCIgbGVuZ3RoQWRqdXN0PSJzcGFjaW5nIiB0ZXh0TGVuZ3RoPSI5OCIgeD0iODIiIHk9Ijk0LjIwMzEiPmNyZWF0ZVJlY2lwZSgpPC90ZXh0PjxlbGxpcHNlIGN4PSI3MyIgY3k9IjEwNC45NDUzIiBmaWxsPSIjODRCRTg0IiByeD0iMyIgcnk9IjMiIHN0eWxlPSJzdHJva2U6IzAzODA0ODtzdHJva2Utd2lkdGg6MTsiLz48dGV4dCBmaWxsPSIjMDAwMDAwIiBmb250LWZhbWlseT0ic2Fucy1zZXJpZiIgZm9udC1zaXplPSIxNCIgbGVuZ3RoQWRqdXN0PSJzcGFjaW5nIiB0ZXh0TGVuZ3RoPSI5MSIgeD0iODIiIHk9IjEwOS4xODc1Ij5zaGFyZVJlY2lwZSgpPC90ZXh0PjwvZz48IS0tY2xhc3MgUmVjaXBlLS0+PGcgY2xhc3M9ImVudGl0eSIgZGF0YS1lbnRpdHk9IlJlY2lwZSIgZGF0YS1zb3VyY2UtbGluZT0iOCIgZGF0YS11aWQ9ImVudDAwMDMiIGlkPSJlbnRpdHlfUmVjaXBlIj48cmVjdCBmaWxsPSIjRjFGMUYxIiBoZWlnaHQ9IjEwNy45Mzc1IiByeD0iMi41IiByeT0iMi41IiBzdHlsZT0ic3Ryb2tlOiMxODE4MTg7c3Ryb2tlLXdpZHRoOjAuNTsiIHdpZHRoPSIxNjYiIHg9IjE0NiIgeT0iMTkwIi8+PGVsbGlwc2UgY3g9IjIwMy43NSIgY3k9IjIwNiIgZmlsbD0iI0FERDFCMiIgcng9IjExIiByeT0iMTEiIHN0eWxlPSJzdHJva2U6IzE4MTgxODtzdHJva2Utd2lkdGg6MTsiLz48cGF0aCBkPSJNMjAxLjM3NSwyMTAuMjUgTDIwMS4zNzUsMjEyIEwyMDYuMzEyNSwyMTIgTDIwNi4zMTI1LDIxMC4yNSBMMjAxLjM3NSwyMTAuMjUgWiBNMjAyLjA2MjUsMjEwLjkzNzUgUTIwMi4wNjI1LDIxMC45Mzc1IDIwMi4wNjI1LDIwMS43NSBMMjAwLjMxMjUsMjAxLjc1IFEyMDAuMzEyNSwyMDEuNzUgMjAwLjMxMjUsMjEwLjkzNzUgTDIwMi4wNjI1LDIxMC45Mzc1IFogTTIwNS42MjUsMjEwLjkzNzUgTDIwNy4zNzUsMjEwLjkzNzUgUTIwNy4zNzUsMjEwLjkzNzUgMjA3LjM3NSwyMDguMTI1IEwyMDUuNjI1LDIwOC4xMjUgUTIwNS42MjUsMjA4LjEyNSAyMDUuNjI1LDIxMC45Mzc1IFogTTIwNS42MjUsMjAxLjc1IFEyMDUuNjI1LDIwMS43NSAyMDUuNjI1LDIwNC41NjI1IEwyMDcuMzc1LDIwNC41NjI1IFEyMDcuMzc1LDIwNC41NjI1IDIwNy4zNzUsMjAxLjc1IEwyMDUuNjI1LDIwMS43NSBaIE0yMDEuMzc1LDIwMi40Mzc1IEwyMDYuMzEyNSwyMDIuNDM3NSBMMjA2LjMxMjUsMjAwLjY4NzUgTDIwMS4zNzUsMjAwLjY4NzUgTDIwMS4zNzUsMjAyLjQzNzUgWiAiIGZpbGw9IiMwMDAwMDAiLz48dGV4dCBmaWxsPSIjMDAwMDAwIiBmb250LWZhbWlseT0ic2Fucy1zZXJpZiIgZm9udC1zaXplPSIxNCIgbGVuZ3RoQWRqdXN0PSJzcGFjaW5nIiB0ZXh0TGVuZ3RoPSI0MiIgeD0iMjI0LjI1IiB5PSIyMTEuNzQyMiI+UmVjaXBlPC90ZXh0PjxsaW5lIHN0eWxlPSJzdHJva2U6IzE4MTgxODtzdHJva2Utd2lkdGg6MC41OyIgeDE9IjE0NyIgeDI9IjMxMSIgeTE9IjIyMiIgeTI9IjIyMiIvPjxyZWN0IGZpbGw9Im5vbmUiIGhlaWdodD0iNiIgc3R5bGU9InN0cm9rZTojQzgyOTMwO3N0cm9rZS13aWR0aDoxOyIgd2lkdGg9IjYiIHg9IjE1NCIgeT0iMjMxLjk5MjIiLz48dGV4dCBmaWxsPSIjMDAwMDAwIiBmb250LWZhbWlseT0ic2Fucy1zZXJpZiIgZm9udC1zaXplPSIxNCIgbGVuZ3RoQWRqdXN0PSJzcGFjaW5nIiB0ZXh0TGVuZ3RoPSIxMTIiIHg9IjE2NiIgeT0iMjM5LjIzNDQiPnJlY2lwZUlkOiBTdHJpbmc8L3RleHQ+PHJlY3QgZmlsbD0ibm9uZSIgaGVpZ2h0PSI2IiBzdHlsZT0ic3Ryb2tlOiNDODI5MzA7c3Ryb2tlLXdpZHRoOjE7IiB3aWR0aD0iNiIgeD0iMTU0IiB5PSIyNDYuOTc2NiIvPjx0ZXh0IGZpbGw9IiMwMDAwMDAiIGZvbnQtZmFtaWx5PSJzYW5zLXNlcmlmIiBmb250LXNpemU9IjE0IiBsZW5ndGhBZGp1c3Q9InNwYWNpbmciIHRleHRMZW5ndGg9IjExMiIgeD0iMTY2IiB5PSIyNTQuMjE4OCI+c2VydmluZ1NpemU6IGludDwvdGV4dD48bGluZSBzdHlsZT0ic3Ryb2tlOiMxODE4MTg7c3Ryb2tlLXdpZHRoOjAuNTsiIHgxPSIxNDciIHgyPSIzMTEiIHkxPSIyNTkuOTY4OCIgeTI9IjI1OS45Njg4Ii8+PGVsbGlwc2UgY3g9IjE1NyIgY3k9IjI3Mi45NjA5IiBmaWxsPSIjODRCRTg0IiByeD0iMyIgcnk9IjMiIHN0eWxlPSJzdHJva2U6IzAzODA0ODtzdHJva2Utd2lkdGg6MTsiLz48dGV4dCBmaWxsPSIjMDAwMDAwIiBmb250LWZhbWlseT0ic2Fucy1zZXJpZiIgZm9udC1zaXplPSIxNCIgbGVuZ3RoQWRqdXN0PSJzcGFjaW5nIiB0ZXh0TGVuZ3RoPSIxMDUiIHg9IjE2NiIgeT0iMjc3LjIwMzEiPnNjYWxlU2VydmluZ3MoKTwvdGV4dD48ZWxsaXBzZSBjeD0iMTU3IiBjeT0iMjg3Ljk0NTMiIGZpbGw9IiM4NEJFODQiIHJ4PSIzIiByeT0iMyIgc3R5bGU9InN0cm9rZTojMDM4MDQ4O3N0cm9rZS13aWR0aDoxOyIvPjx0ZXh0IGZpbGw9IiMwMDAwMDAiIGZvbnQtZmFtaWx5PSJzYW5zLXNlcmlmIiBmb250LXNpemU9IjE0IiBsZW5ndGhBZGp1c3Q9InNwYWNpbmciIHRleHRMZW5ndGg9IjE0MCIgeD0iMTY2IiB5PSIyOTIuMTg3NSI+Y2FsY3VsYXRlTnV0cml0aW9uKCk8L3RleHQ+PC9nPjwhLS1jbGFzcyBJbmdyZWRpZW50LS0+PGcgY2xhc3M9ImVudGl0eSIgZGF0YS1lbnRpdHk9IkluZ3JlZGllbnQiIGRhdGEtc291cmNlLWxpbmU9IjE1IiBkYXRhLXVpZD0iZW50MDAwNCIgaWQ9ImVudGl0eV9JbmdyZWRpZW50Ij48cmVjdCBmaWxsPSIjRjFGMUYxIiBoZWlnaHQ9IjkyLjk1MzEiIHJ4PSIyLjUiIHJ5PSIyLjUiIHN0eWxlPSJzdHJva2U6IzE4MTgxODtzdHJva2Utd2lkdGg6MC41OyIgd2lkdGg9IjE2NiIgeD0iNyIgeT0iMzczIi8+PGVsbGlwc2UgY3g9IjUwLjgiIGN5PSIzODkiIGZpbGw9IiNBREQxQjIiIHJ4PSIxMSIgcnk9IjExIiBzdHlsZT0ic3Ryb2tlOiMxODE4MTg7c3Ryb2tlLXdpZHRoOjE7Ii8+PHBhdGggZD0iTTQ4LjQyNSwzOTMuMjUgTDQ4LjQyNSwzOTUgTDUzLjM2MjUsMzk1IEw1My4zNjI1LDM5My4yNSBMNDguNDI1LDM5My4yNSBaIE00OS4xMTI1LDM5My45Mzc1IFE0OS4xMTI1LDM5My45Mzc1IDQ5LjExMjUsMzg0Ljc1IEw0Ny4zNjI1LDM4NC43NSBRNDcuMzYyNSwzODQuNzUgNDcuMzYyNSwzOTMuOTM3NSBMNDkuMTEyNSwzOTMuOTM3NSBaIE01Mi42NzUsMzkzLjkzNzUgTDU0LjQyNSwzOTMuOTM3NSBRNTQuNDI1LDM5My45Mzc1IDU0LjQyNSwzOTEuMTI1IEw1Mi42NzUsMzkxLjEyNSBRNTIuNjc1LDM5MS4xMjUgNTIuNjc1LDM5My45Mzc1IFogTTUyLjY3NSwzODQuNzUgUTUyLjY3NSwzODQuNzUgNTIuNjc1LDM4Ny41NjI1IEw1NC40MjUsMzg3LjU2MjUgUTU0LjQyNSwzODcuNTYyNSA1NC40MjUsMzg0Ljc1IEw1Mi42NzUsMzg0Ljc1IFogTTQ4LjQyNSwzODUuNDM3NSBMNTMuMzYyNSwzODUuNDM3NSBMNTMuMzYyNSwzODMuNjg3NSBMNDguNDI1LDM4My42ODc1IEw0OC40MjUsMzg1LjQzNzUgWiAiIGZpbGw9IiMwMDAwMDAiLz48dGV4dCBmaWxsPSIjMDAwMDAwIiBmb250LWZhbWlseT0ic2Fucy1zZXJpZiIgZm9udC1zaXplPSIxNCIgbGVuZ3RoQWRqdXN0PSJzcGFjaW5nIiB0ZXh0TGVuZ3RoPSI3MCIgeD0iNzEuMiIgeT0iMzk0Ljc0MjIiPkluZ3JlZGllbnQ8L3RleHQ+PGxpbmUgc3R5bGU9InN0cm9rZTojMTgxODE4O3N0cm9rZS13aWR0aDowLjU7IiB4MT0iOCIgeDI9IjE3MiIgeTE9IjQwNSIgeTI9IjQwNSIvPjxyZWN0IGZpbGw9Im5vbmUiIGhlaWdodD0iNiIgc3R5bGU9InN0cm9rZTojQzgyOTMwO3N0cm9rZS13aWR0aDoxOyIgd2lkdGg9IjYiIHg9IjE1IiB5PSI0MTQuOTkyMiIvPjx0ZXh0IGZpbGw9IiMwMDAwMDAiIGZvbnQtZmFtaWx5PSJzYW5zLXNlcmlmIiBmb250LXNpemU9IjE0IiBsZW5ndGhBZGp1c3Q9InNwYWNpbmciIHRleHRMZW5ndGg9IjE0MCIgeD0iMjciIHk9IjQyMi4yMzQ0Ij5pbmdyZWRpZW50SWQ6IFN0cmluZzwvdGV4dD48cmVjdCBmaWxsPSJub25lIiBoZWlnaHQ9IjYiIHN0eWxlPSJzdHJva2U6I0M4MjkzMDtzdHJva2Utd2lkdGg6MTsiIHdpZHRoPSI2IiB4PSIxNSIgeT0iNDI5Ljk3NjYiLz48dGV4dCBmaWxsPSIjMDAwMDAwIiBmb250LWZhbWlseT0ic2Fucy1zZXJpZiIgZm9udC1zaXplPSIxNCIgbGVuZ3RoQWRqdXN0PSJzcGFjaW5nIiB0ZXh0TGVuZ3RoPSIxMzMiIHg9IjI3IiB5PSI0MzcuMjE4OCI+Y29zdFBlclVuaXQ6IGRvdWJsZTwvdGV4dD48cmVjdCBmaWxsPSJub25lIiBoZWlnaHQ9IjYiIHN0eWxlPSJzdHJva2U6I0M4MjkzMDtzdHJva2Utd2lkdGg6MTsiIHdpZHRoPSI2IiB4PSIxNSIgeT0iNDQ0Ljk2MDkiLz48dGV4dCBmaWxsPSIjMDAwMDAwIiBmb250LWZhbWlseT0ic2Fucy1zZXJpZiIgZm9udC1zaXplPSIxNCIgbGVuZ3RoQWRqdXN0PSJzcGFjaW5nIiB0ZXh0TGVuZ3RoPSIxMzMiIHg9IjI3IiB5PSI0NTIuMjAzMSI+aW52ZW50b3J5TGV2ZWw6IGludDwvdGV4dD48bGluZSBzdHlsZT0ic3Ryb2tlOiMxODE4MTg7c3Ryb2tlLXdpZHRoOjAuNTsiIHgxPSI4IiB4Mj0iMTcyIiB5MT0iNDU3Ljk1MzEiIHkyPSI0NTcuOTUzMSIvPjwvZz48IS0tY2xhc3MgTnV0cml0aW9uYWxJbmZvLS0+PGcgY2xhc3M9ImVudGl0eSIgZGF0YS1lbnRpdHk9Ik51dHJpdGlvbmFsSW5mbyIgZGF0YS1zb3VyY2UtbGluZT0iMjEiIGRhdGEtdWlkPSJlbnQwMDA1IiBpZD0iZW50aXR5X051dHJpdGlvbmFsSW5mbyI+PHJlY3QgZmlsbD0iI0YxRjFGMSIgaGVpZ2h0PSI5Mi45NTMxIiByeD0iMi41IiByeT0iMi41IiBzdHlsZT0ic3Ryb2tlOiMxODE4MTg7c3Ryb2tlLXdpZHRoOjAuNTsiIHdpZHRoPSIxMzgiIHg9IjIwOCIgeT0iMzczIi8+PGVsbGlwc2UgY3g9IjIyMy40NSIgY3k9IjM4OSIgZmlsbD0iI0FERDFCMiIgcng9IjExIiByeT0iMTEiIHN0eWxlPSJzdHJva2U6IzE4MTgxODtzdHJva2Utd2lkdGg6MTsiLz48cGF0aCBkPSJNMjIxLjA3NSwzOTMuMjUgTDIyMS4wNzUsMzk1IEwyMjYuMDEyNSwzOTUgTDIyNi4wMTI1LDM5My4yNSBMMjIxLjA3NSwzOTMuMjUgWiBNMjIxLjc2MjUsMzkzLjkzNzUgUTIyMS43NjI1LDM5My45Mzc1IDIyMS43NjI1LDM4NC43NSBMMjIwLjAxMjUsMzg0Ljc1IFEyMjAuMDEyNSwzODQuNzUgMjIwLjAxMjUsMzkzLjkzNzUgTDIyMS43NjI1LDM5My45Mzc1IFogTTIyNS4zMjUsMzkzLjkzNzUgTDIyNy4wNzUsMzkzLjkzNzUgUTIyNy4wNzUsMzkzLjkzNzUgMjI3LjA3NSwzOTEuMTI1IEwyMjUuMzI1LDM5MS4xMjUgUTIyNS4zMjUsMzkxLjEyNSAyMjUuMzI1LDM5My45Mzc1IFogTTIyNS4zMjUsMzg0Ljc1IFEyMjUuMzI1LDM4NC43NSAyMjUuMzI1LDM4Ny41NjI1IEwyMjcuMDc1LDM4Ny41NjI1IFEyMjcuMDc1LDM4Ny41NjI1IDIyNy4wNzUsMzg0Ljc1IEwyMjUuMzI1LDM4NC43NSBaIE0yMjEuMDc1LDM4NS40Mzc1IEwyMjYuMDEyNSwzODUuNDM3NSBMMjI2LjAxMjUsMzgzLjY4NzUgTDIyMS4wNzUsMzgzLjY4NzUgTDIyMS4wNzUsMzg1LjQzNzUgWiAiIGZpbGw9IiMwMDAwMDAiLz48dGV4dCBmaWxsPSIjMDAwMDAwIiBmb250LWZhbWlseT0ic2Fucy1zZXJpZiIgZm9udC1zaXplPSIxNCIgbGVuZ3RoQWRqdXN0PSJzcGFjaW5nIiB0ZXh0TGVuZ3RoPSIxMDUiIHg9IjIzNy41NSIgeT0iMzk0Ljc0MjIiPk51dHJpdGlvbmFsSW5mbzwvdGV4dD48bGluZSBzdHlsZT0ic3Ryb2tlOiMxODE4MTg7c3Ryb2tlLXdpZHRoOjAuNTsiIHgxPSIyMDkiIHgyPSIzNDUiIHkxPSI0MDUiIHkyPSI0MDUiLz48cmVjdCBmaWxsPSJub25lIiBoZWlnaHQ9IjYiIHN0eWxlPSJzdHJva2U6I0M4MjkzMDtzdHJva2Utd2lkdGg6MTsiIHdpZHRoPSI2IiB4PSIyMTYiIHk9IjQxNC45OTIyIi8+PHRleHQgZmlsbD0iIzAwMDAwMCIgZm9udC1mYW1pbHk9InNhbnMtc2VyaWYiIGZvbnQtc2l6ZT0iMTQiIGxlbmd0aEFkanVzdD0ic3BhY2luZyIgdGV4dExlbmd0aD0iMTEyIiB4PSIyMjgiIHk9IjQyMi4yMzQ0Ij5jYWxvcmllczogZG91YmxlPC90ZXh0PjxyZWN0IGZpbGw9Im5vbmUiIGhlaWdodD0iNiIgc3R5bGU9InN0cm9rZTojQzgyOTMwO3N0cm9rZS13aWR0aDoxOyIgd2lkdGg9IjYiIHg9IjIxNiIgeT0iNDI5Ljk3NjYiLz48dGV4dCBmaWxsPSIjMDAwMDAwIiBmb250LWZhbWlseT0ic2Fucy1zZXJpZiIgZm9udC1zaXplPSIxNCIgbGVuZ3RoQWRqdXN0PSJzcGFjaW5nIiB0ZXh0TGVuZ3RoPSIxMDUiIHg9IjIyOCIgeT0iNDM3LjIxODgiPnByb3RlaW46IGRvdWJsZTwvdGV4dD48cmVjdCBmaWxsPSJub25lIiBoZWlnaHQ9IjYiIHN0eWxlPSJzdHJva2U6I0M4MjkzMDtzdHJva2Utd2lkdGg6MTsiIHdpZHRoPSI2IiB4PSIyMTYiIHk9IjQ0NC45NjA5Ii8+PHRleHQgZmlsbD0iIzAwMDAwMCIgZm9udC1mYW1pbHk9InNhbnMtc2VyaWYiIGZvbnQtc2l6ZT0iMTQiIGxlbmd0aEFkanVzdD0ic3BhY2luZyIgdGV4dExlbmd0aD0iOTEiIHg9IjIyOCIgeT0iNDUyLjIwMzEiPmNhcmJzOiBkb3VibGU8L3RleHQ+PGxpbmUgc3R5bGU9InN0cm9rZTojMTgxODE4O3N0cm9rZS13aWR0aDowLjU7IiB4MT0iMjA5IiB4Mj0iMzQ1IiB5MT0iNDU3Ljk1MzEiIHkyPSI0NTcuOTUzMSIvPjwvZz48IS0tY2xhc3MgSW52ZW50b3J5LS0+PGcgY2xhc3M9ImVudGl0eSIgZGF0YS1lbnRpdHk9IkludmVudG9yeSIgZGF0YS1zb3VyY2UtbGluZT0iMzAiIGRhdGEtdWlkPSJlbnQwMDA5IiBpZD0iZW50aXR5X0ludmVudG9yeSI+PHJlY3QgZmlsbD0iI0YxRjFGMSIgaGVpZ2h0PSI0OCIgcng9IjIuNSIgcnk9IjIuNSIgc3R5bGU9InN0cm9rZTojMTgxODE4O3N0cm9rZS13aWR0aDowLjU7IiB3aWR0aD0iOTUiIHg9IjQyLjUiIHk9IjU0MSIvPjxlbGxpcHNlIGN4PSI1Ny41IiBjeT0iNTU3IiBmaWxsPSIjQUREMUIyIiByeD0iMTEiIHJ5PSIxMSIgc3R5bGU9InN0cm9rZTojMTgxODE4O3N0cm9rZS13aWR0aDoxOyIvPjxwYXRoIGQ9Ik01NS4xMjUsNTYxLjI1IEw1NS4xMjUsNTYzIEw2MC4wNjI1LDU2MyBMNjAuMDYyNSw1NjEuMjUgTDU1LjEyNSw1NjEuMjUgWiBNNTUuODEyNSw1NjEuOTM3NSBRNTUuODEyNSw1NjEuOTM3NSA1NS44MTI1LDU1Mi43NSBMNTQuMDYyNSw1NTIuNzUgUTU0LjA2MjUsNTUyLjc1IDU0LjA2MjUsNTYxLjkzNzUgTDU1LjgxMjUsNTYxLjkzNzUgWiBNNTkuMzc1LDU2MS45Mzc1IEw2MS4xMjUsNTYxLjkzNzUgUTYxLjEyNSw1NjEuOTM3NSA2MS4xMjUsNTU5LjEyNSBMNTkuMzc1LDU1OS4xMjUgUTU5LjM3NSw1NTkuMTI1IDU5LjM3NSw1NjEuOTM3NSBaIE01OS4zNzUsNTUyLjc1IFE1OS4zNzUsNTUyLjc1IDU5LjM3NSw1NTUuNTYyNSBMNjEuMTI1LDU1NS41NjI1IFE2MS4xMjUsNTU1LjU2MjUgNjEuMTI1LDU1Mi43NSBMNTkuMzc1LDU1Mi43NSBaIE01NS4xMjUsNTUzLjQzNzUgTDYwLjA2MjUsNTUzLjQzNzUgTDYwLjA2MjUsNTUxLjY4NzUgTDU1LjEyNSw1NTEuNjg3NSBMNTUuMTI1LDU1My40Mzc1IFogIiBmaWxsPSIjMDAwMDAwIi8+PHRleHQgZmlsbD0iIzAwMDAwMCIgZm9udC1mYW1pbHk9InNhbnMtc2VyaWYiIGZvbnQtc2l6ZT0iMTQiIGxlbmd0aEFkanVzdD0ic3BhY2luZyIgdGV4dExlbmd0aD0iNjMiIHg9IjcxLjUiIHk9IjU2Mi43NDIyIj5JbnZlbnRvcnk8L3RleHQ+PGxpbmUgc3R5bGU9InN0cm9rZTojMTgxODE4O3N0cm9rZS13aWR0aDowLjU7IiB4MT0iNDMuNSIgeDI9IjEzNi41IiB5MT0iNTczIiB5Mj0iNTczIi8+PGxpbmUgc3R5bGU9InN0cm9rZTojMTgxODE4O3N0cm9rZS13aWR0aDowLjU7IiB4MT0iNDMuNSIgeDI9IjEzNi41IiB5MT0iNTgxIiB5Mj0iNTgxIi8+PC9nPjwhLS1saW5rIFVzZXIgdG8gUmVjaXBlLS0+PGcgY2xhc3M9ImxpbmsiIGRhdGEtZW50aXR5LTE9IlVzZXIiIGRhdGEtZW50aXR5LTI9IlJlY2lwZSIgZGF0YS1zb3VyY2UtbGluZT0iMjciIGRhdGEtdWlkPSJsbms2IiBpZD0ibGlua19Vc2VyX1JlY2lwZSI+PHBhdGggY29kZUxpbmU9IjI3IiBkPSJNMjI5LDExNS4zMyBDMjI5LDEzOC43OSAyMjksMTY2LjI5IDIyOSwxODkuNzQiIGZpbGw9Im5vbmUiIGlkPSJVc2VyLVJlY2lwZSIgc3R5bGU9InN0cm9rZTojMTgxODE4O3N0cm9rZS13aWR0aDoxOyIvPjx0ZXh0IGZpbGw9IiMwMDAwMDAiIGZvbnQtZmFtaWx5PSJzYW5zLXNlcmlmIiBmb250LXNpemU9IjEzIiBsZW5ndGhBZGp1c3Q9InNwYWNpbmciIHRleHRMZW5ndGg9IjQ1LjUiIHg9IjIzMCIgeT0iMTU4LjI4OTEiPmNyZWF0ZXM8L3RleHQ+PHRleHQgZmlsbD0iIzAwMDAwMCIgZm9udC1mYW1pbHk9InNhbnMtc2VyaWYiIGZvbnQtc2l6ZT0iMTMiIGxlbmd0aEFkanVzdD0ic3BhY2luZyIgdGV4dExlbmd0aD0iNi41IiB4PSIyMjIuNjY0OCIgeT0iMTM1LjA5MjIiPjE8L3RleHQ+PHRleHQgZmlsbD0iIzAwMDAwMCIgZm9udC1mYW1pbHk9InNhbnMtc2VyaWYiIGZvbnQtc2l6ZT0iMTMiIGxlbmd0aEFkanVzdD0ic3BhY2luZyIgdGV4dExlbmd0aD0iNi41IiB4PSIyMjIuNjEzMyIgeT0iMTgwLjU1MzQiPio8L3RleHQ+PC9nPjwhLS1saW5rIFJlY2lwZSB0byBJbmdyZWRpZW50LS0+PGcgY2xhc3M9ImxpbmsiIGRhdGEtZW50aXR5LTE9IlJlY2lwZSIgZGF0YS1lbnRpdHktMj0iSW5ncmVkaWVudCIgZGF0YS1zb3VyY2UtbGluZT0iMjgiIGRhdGEtdWlkPSJsbms3IiBpZD0ibGlua19SZWNpcGVfSW5ncmVkaWVudCI+PHBhdGggY29kZUxpbmU9IjI4IiBkPSJNMTg2LjE2LDI5OC40NyBDMTY3LjEsMzIyLjI3IDE0NC44OCwzNTAgMTI2LjYsMzcyLjgxIiBmaWxsPSJub25lIiBpZD0iUmVjaXBlLUluZ3JlZGllbnQiIHN0eWxlPSJzdHJva2U6IzE4MTgxODtzdHJva2Utd2lkdGg6MTsiLz48dGV4dCBmaWxsPSIjMDAwMDAwIiBmb250LWZhbWlseT0ic2Fucy1zZXJpZiIgZm9udC1zaXplPSIxMyIgbGVuZ3RoQWRqdXN0PSJzcGFjaW5nIiB0ZXh0TGVuZ3RoPSI1MiIgeD0iMTYxIiB5PSIzNDEuMjg5MSI+Y29udGFpbnM8L3RleHQ+PHRleHQgZmlsbD0iIzAwMDAwMCIgZm9udC1mYW1pbHk9InNhbnMtc2VyaWYiIGZvbnQtc2l6ZT0iMTMiIGxlbmd0aEFkanVzdD0ic3BhY2luZyIgdGV4dExlbmd0aD0iNi41IiB4PSIxNzQuNjAzNyIgeT0iMzE4LjI0OTMiPjE8L3RleHQ+PHRleHQgZmlsbD0iIzAwMDAwMCIgZm9udC1mYW1pbHk9InNhbnMtc2VyaWYiIGZvbnQtc2l6ZT0iMTMiIGxlbmd0aEFkanVzdD0ic3BhY2luZyIgdGV4dExlbmd0aD0iNi41IiB4PSIxMjYuMjA2NCIgeT0iMzYzLjM2OSI+KjwvdGV4dD48L2c+PCEtLWxpbmsgUmVjaXBlIHRvIE51dHJpdGlvbmFsSW5mby0tPjxnIGNsYXNzPSJsaW5rIiBkYXRhLWVudGl0eS0xPSJSZWNpcGUiIGRhdGEtZW50aXR5LTI9Ik51dHJpdGlvbmFsSW5mbyIgZGF0YS1zb3VyY2UtbGluZT0iMjkiIGRhdGEtdWlkPSJsbms4IiBpZD0ibGlua19SZWNpcGVfTnV0cml0aW9uYWxJbmZvIj48cGF0aCBjb2RlTGluZT0iMjkiIGQ9Ik0yNDMuNzksMjk4LjQ3IEMyNTAuMzgsMzIyLjI3IDI1OC4wNSwzNTAgMjY0LjM2LDM3Mi44MSIgZmlsbD0ibm9uZSIgaWQ9IlJlY2lwZS1OdXRyaXRpb25hbEluZm8iIHN0eWxlPSJzdHJva2U6IzE4MTgxODtzdHJva2Utd2lkdGg6MTsiLz48dGV4dCBmaWxsPSIjMDAwMDAwIiBmb250LWZhbWlseT0ic2Fucy1zZXJpZiIgZm9udC1zaXplPSIxMyIgbGVuZ3RoQWRqdXN0PSJzcGFjaW5nIiB0ZXh0TGVuZ3RoPSI1OC41IiB4PSIyNTYiIHk9IjM0MS4yODkxIj5nZW5lcmF0ZXM8L3RleHQ+PHRleHQgZmlsbD0iIzAwMDAwMCIgZm9udC1mYW1pbHk9InNhbnMtc2VyaWYiIGZvbnQtc2l6ZT0iMTMiIGxlbmd0aEFkanVzdD0ic3BhY2luZyIgdGV4dExlbmd0aD0iNi41IiB4PSIyMzkuMjU3NCIgeT0iMzE4LjI0OTMiPjE8L3RleHQ+PHRleHQgZmlsbD0iIzAwMDAwMCIgZm9udC1mYW1pbHk9InNhbnMtc2VyaWYiIGZvbnQtc2l6ZT0iMTMiIGxlbmd0aEFkanVzdD0ic3BhY2luZyIgdGV4dExlbmd0aD0iNi41IiB4PSIyNTUuODExIiB5PSIzNjMuMzY5Ij4xPC90ZXh0PjwvZz48IS0tbGluayBJbmdyZWRpZW50IHRvIEludmVudG9yeS0tPjxnIGNsYXNzPSJsaW5rIiBkYXRhLWVudGl0eS0xPSJJbmdyZWRpZW50IiBkYXRhLWVudGl0eS0yPSJJbnZlbnRvcnkiIGRhdGEtc291cmNlLWxpbmU9IjMwIiBkYXRhLXVpZD0ibG5rMTAiIGlkPSJsaW5rX0luZ3JlZGllbnRfSW52ZW50b3J5Ij48cGF0aCBjb2RlTGluZT0iMzAiIGQ9Ik05MCw0NjYuMyBDOTAsNDkxLjA3IDkwLDUyMC42MSA5MCw1NDAuNjgiIGZpbGw9Im5vbmUiIGlkPSJJbmdyZWRpZW50LUludmVudG9yeSIgc3R5bGU9InN0cm9rZTojMTgxODE4O3N0cm9rZS13aWR0aDoxOyIvPjx0ZXh0IGZpbGw9IiMwMDAwMDAiIGZvbnQtZmFtaWx5PSJzYW5zLXNlcmlmIiBmb250LXNpemU9IjEzIiBsZW5ndGhBZGp1c3Q9InNwYWNpbmciIHRleHRMZW5ndGg9IjM5IiB4PSI5MSIgeT0iNTA5LjI4OTEiPnRyYWNrczwvdGV4dD48dGV4dCBmaWxsPSIjMDAwMDAwIiBmb250LWZhbWlseT0ic2Fucy1zZXJpZiIgZm9udC1zaXplPSIxMyIgbGVuZ3RoQWRqdXN0PSJzcGFjaW5nIiB0ZXh0TGVuZ3RoPSI2LjUiIHg9IjgzLjYxMzMiIHk9IjQ4Ni4xNTE5Ij4xPC90ZXh0Pjx0ZXh0IGZpbGw9IiMwMDAwMDAiIGZvbnQtZmFtaWx5PSJzYW5zLXNlcmlmIiBmb250LXNpemU9IjEzIiBsZW5ndGhBZGp1c3Q9InNwYWNpbmciIHRleHRMZW5ndGg9IjYuNSIgeD0iODMuMjI2NiIgeT0iNTMxLjQyOTUiPio8L3RleHQ+PC9nPjwhLS1TUkM9W1BQN0JSZUNtNDROdFZDTThMSHpYcUlzZ2tlYWcxUWNnZ2o5eVc2Q2NvSVhhWkNPNkFRdHd4dnRZWDlYc25OMHZrY1RpUjZreVh4TDdXUXlDZUVYcmdmZUl3WTM0a3Fsb1NVZ21YNlZrWnVfQkZNdU5pNzk3TjNmdE1DMWhoc0dXbi1KM2FfQnRMajA0VjRUQjdUeFNfWVAtUi1HUVY2VVA3UUtuWUxlUHZ4Yk9sT0VFRE5zZ2NwWUNMVFFxTUNTRkZoUGhPbGpNYlRDY2dRSllkTTEzbzI2QVE3Z1Zvd3BwdUdyYnBISEFRNW9fUUo3WVd3OUVKWXl1TzFsTmNCZWRlTWFodGhlZXE3TVM0RmdxZkhDTmEzWURoOTdEYlQ3QXlIVmEzcGFLMVVIdC1VTHNJZVp0d1JEcGEyMzlzSEhwNzBwbkZxdVZWX1NpT09VQ0NoT2M3UkZjeXg2TDNNQmltVnkwXS0tPjwvZz48L3N2Zz4=;" vertex="1" parent="1">
            <mxGeometry x="-490" y="77" width="403" height="596" as="geometry" />
          </mxCell>
        </UserObject>
        <UserObject label="" plantUmlData="{&#xa;  &quot;data&quot;: &quot;@startuml\nclass YumAISystem {\n  -recipeDB: Database\n  +generateRecipeAI()\n  +trackCosts()\n  +analyzeNutrition()\n}\n\nclass Recipe {\n  -title: String\n  -instructions: String[]\n  -ingredients: List&lt;Ingredient&gt;\n  +scaleServings(multiplier: double)\n  +exportPDF()\n}\n\nclass Ingredient {\n  -name: String\n  -quantity: double\n  -unit: String\n  +updateCost(newCost: double)\n}\n\nclass Inventory {\n  -stockLevel: int\n  -threshold: int\n  +alertLowStock()\n}\n\nYumAISystem \&quot;1\&quot; -- \&quot;*\&quot; Recipe : manages\nRecipe \&quot;1\&quot; -- \&quot;*\&quot; Ingredient : uses\nIngredient \&quot;1\&quot; -- \&quot;1\&quot; Inventory : monitors\n@enduml\n&quot;,&#xa;  &quot;format&quot;: &quot;svg&quot;&#xa;}" id="UhCZ1_yWcIaTT6cPaHG9-2">
          <mxCell style="shape=image;noLabel=1;verticalAlign=top;aspect=fixed;imageAspect=0;image=data:image/svg+xml,PHN2ZyB4bWxucz0iaHR0cDovL3d3dy53My5vcmcvMjAwMC9zdmciIHhtbG5zOnhsaW5rPSJodHRwOi8vd3d3LnczLm9yZy8xOTk5L3hsaW5rIiBjb250ZW50U3R5bGVUeXBlPSJ0ZXh0L2NzcyIgZGF0YS1kaWFncmFtLXR5cGU9IkNMQVNTIiBoZWlnaHQ9IjY3MHB4IiBwcmVzZXJ2ZUFzcGVjdFJhdGlvPSJub25lIiBzdHlsZT0id2lkdGg6MjcxcHg7aGVpZ2h0OjY3MHB4O2JhY2tncm91bmQ6I0ZGRkZGRjsiIHZlcnNpb249IjEuMSIgdmlld0JveD0iMCAwIDI3MSA2NzAiIHdpZHRoPSIyNzFweCIgem9vbUFuZFBhbj0ibWFnbmlmeSI+PGRlZnMvPjxnPjwhLS1jbGFzcyBZdW1BSVN5c3RlbS0tPjxnIGNsYXNzPSJlbnRpdHkiIGRhdGEtZW50aXR5PSJZdW1BSVN5c3RlbSIgZGF0YS1zb3VyY2UtbGluZT0iMSIgZGF0YS11aWQ9ImVudDAwMDIiIGlkPSJlbnRpdHlfWXVtQUlTeXN0ZW0iPjxyZWN0IGZpbGw9IiNGMUYxRjEiIGhlaWdodD0iMTA3LjkzNzUiIHJ4PSIyLjUiIHJ5PSIyLjUiIHN0eWxlPSJzdHJva2U6IzE4MTgxODtzdHJva2Utd2lkdGg6MC41OyIgd2lkdGg9IjE1MiIgeD0iNTkuNSIgeT0iNyIvPjxlbGxpcHNlIGN4PSI5My44NSIgY3k9IjIzIiBmaWxsPSIjQUREMUIyIiByeD0iMTEiIHJ5PSIxMSIgc3R5bGU9InN0cm9rZTojMTgxODE4O3N0cm9rZS13aWR0aDoxOyIvPjxwYXRoIGQ9Ik05MS40NzUsMjcuMjUgTDkxLjQ3NSwyOSBMOTYuNDEyNSwyOSBMOTYuNDEyNSwyNy4yNSBMOTEuNDc1LDI3LjI1IFogTTkyLjE2MjUsMjcuOTM3NSBROTIuMTYyNSwyNy45Mzc1IDkyLjE2MjUsMTguNzUgTDkwLjQxMjUsMTguNzUgUTkwLjQxMjUsMTguNzUgOTAuNDEyNSwyNy45Mzc1IEw5Mi4xNjI1LDI3LjkzNzUgWiBNOTUuNzI1LDI3LjkzNzUgTDk3LjQ3NSwyNy45Mzc1IFE5Ny40NzUsMjcuOTM3NSA5Ny40NzUsMjUuMTI1IEw5NS43MjUsMjUuMTI1IFE5NS43MjUsMjUuMTI1IDk1LjcyNSwyNy45Mzc1IFogTTk1LjcyNSwxOC43NSBROTUuNzI1LDE4Ljc1IDk1LjcyNSwyMS41NjI1IEw5Ny40NzUsMjEuNTYyNSBROTcuNDc1LDIxLjU2MjUgOTcuNDc1LDE4Ljc1IEw5NS43MjUsMTguNzUgWiBNOTEuNDc1LDE5LjQzNzUgTDk2LjQxMjUsMTkuNDM3NSBMOTYuNDEyNSwxNy42ODc1IEw5MS40NzUsMTcuNjg3NSBMOTEuNDc1LDE5LjQzNzUgWiAiIGZpbGw9IiMwMDAwMDAiLz48dGV4dCBmaWxsPSIjMDAwMDAwIiBmb250LWZhbWlseT0ic2Fucy1zZXJpZiIgZm9udC1zaXplPSIxNCIgbGVuZ3RoQWRqdXN0PSJzcGFjaW5nIiB0ZXh0TGVuZ3RoPSI3NyIgeD0iMTEyLjE1IiB5PSIyOC43NDIyIj5ZdW1BSVN5c3RlbTwvdGV4dD48bGluZSBzdHlsZT0ic3Ryb2tlOiMxODE4MTg7c3Ryb2tlLXdpZHRoOjAuNTsiIHgxPSI2MC41IiB4Mj0iMjEwLjUiIHkxPSIzOSIgeTI9IjM5Ii8+PHJlY3QgZmlsbD0ibm9uZSIgaGVpZ2h0PSI2IiBzdHlsZT0ic3Ryb2tlOiNDODI5MzA7c3Ryb2tlLXdpZHRoOjE7IiB3aWR0aD0iNiIgeD0iNjcuNSIgeT0iNDguOTkyMiIvPjx0ZXh0IGZpbGw9IiMwMDAwMDAiIGZvbnQtZmFtaWx5PSJzYW5zLXNlcmlmIiBmb250LXNpemU9IjE0IiBsZW5ndGhBZGp1c3Q9InNwYWNpbmciIHRleHRMZW5ndGg9IjEyNiIgeD0iNzkuNSIgeT0iNTYuMjM0NCI+cmVjaXBlREI6IERhdGFiYXNlPC90ZXh0PjxsaW5lIHN0eWxlPSJzdHJva2U6IzE4MTgxODtzdHJva2Utd2lkdGg6MC41OyIgeDE9IjYwLjUiIHgyPSIyMTAuNSIgeTE9IjYxLjk4NDQiIHkyPSI2MS45ODQ0Ii8+PGVsbGlwc2UgY3g9IjcwLjUiIGN5PSI3NC45NzY2IiBmaWxsPSIjODRCRTg0IiByeD0iMyIgcnk9IjMiIHN0eWxlPSJzdHJva2U6IzAzODA0ODtzdHJva2Utd2lkdGg6MTsiLz48dGV4dCBmaWxsPSIjMDAwMDAwIiBmb250LWZhbWlseT0ic2Fucy1zZXJpZiIgZm9udC1zaXplPSIxNCIgbGVuZ3RoQWRqdXN0PSJzcGFjaW5nIiB0ZXh0TGVuZ3RoPSIxMjYiIHg9Ijc5LjUiIHk9Ijc5LjIxODgiPmdlbmVyYXRlUmVjaXBlQUkoKTwvdGV4dD48ZWxsaXBzZSBjeD0iNzAuNSIgY3k9Ijg5Ljk2MDkiIGZpbGw9IiM4NEJFODQiIHJ4PSIzIiByeT0iMyIgc3R5bGU9InN0cm9rZTojMDM4MDQ4O3N0cm9rZS13aWR0aDoxOyIvPjx0ZXh0IGZpbGw9IiMwMDAwMDAiIGZvbnQtZmFtaWx5PSJzYW5zLXNlcmlmIiBmb250LXNpemU9IjE0IiBsZW5ndGhBZGp1c3Q9InNwYWNpbmciIHRleHRMZW5ndGg9Ijg0IiB4PSI3OS41IiB5PSI5NC4yMDMxIj50cmFja0Nvc3RzKCk8L3RleHQ+PGVsbGlwc2UgY3g9IjcwLjUiIGN5PSIxMDQuOTQ1MyIgZmlsbD0iIzg0QkU4NCIgcng9IjMiIHJ5PSIzIiBzdHlsZT0ic3Ryb2tlOiMwMzgwNDg7c3Ryb2tlLXdpZHRoOjE7Ii8+PHRleHQgZmlsbD0iIzAwMDAwMCIgZm9udC1mYW1pbHk9InNhbnMtc2VyaWYiIGZvbnQtc2l6ZT0iMTQiIGxlbmd0aEFkanVzdD0ic3BhY2luZyIgdGV4dExlbmd0aD0iMTI2IiB4PSI3OS41IiB5PSIxMDkuMTg3NSI+YW5hbHl6ZU51dHJpdGlvbigpPC90ZXh0PjwvZz48IS0tY2xhc3MgUmVjaXBlLS0+PGcgY2xhc3M9ImVudGl0eSIgZGF0YS1lbnRpdHk9IlJlY2lwZSIgZGF0YS1zb3VyY2UtbGluZT0iOCIgZGF0YS11aWQ9ImVudDAwMDMiIGlkPSJlbnRpdHlfUmVjaXBlIj48cmVjdCBmaWxsPSIjRjFGMUYxIiBoZWlnaHQ9IjEyMi45MjE5IiByeD0iMi41IiByeT0iMi41IiBzdHlsZT0ic3Ryb2tlOiMxODE4MTg7c3Ryb2tlLXdpZHRoOjAuNTsiIHdpZHRoPSIyNTciIHg9IjciIHk9IjE5MCIvPjxlbGxpcHNlIGN4PSIxMTAuMjUiIGN5PSIyMDYiIGZpbGw9IiNBREQxQjIiIHJ4PSIxMSIgcnk9IjExIiBzdHlsZT0ic3Ryb2tlOiMxODE4MTg7c3Ryb2tlLXdpZHRoOjE7Ii8+PHBhdGggZD0iTTEwNy44NzUsMjEwLjI1IEwxMDcuODc1LDIxMiBMMTEyLjgxMjUsMjEyIEwxMTIuODEyNSwyMTAuMjUgTDEwNy44NzUsMjEwLjI1IFogTTEwOC41NjI1LDIxMC45Mzc1IFExMDguNTYyNSwyMTAuOTM3NSAxMDguNTYyNSwyMDEuNzUgTDEwNi44MTI1LDIwMS43NSBRMTA2LjgxMjUsMjAxLjc1IDEwNi44MTI1LDIxMC45Mzc1IEwxMDguNTYyNSwyMTAuOTM3NSBaIE0xMTIuMTI1LDIxMC45Mzc1IEwxMTMuODc1LDIxMC45Mzc1IFExMTMuODc1LDIxMC45Mzc1IDExMy44NzUsMjA4LjEyNSBMMTEyLjEyNSwyMDguMTI1IFExMTIuMTI1LDIwOC4xMjUgMTEyLjEyNSwyMTAuOTM3NSBaIE0xMTIuMTI1LDIwMS43NSBRMTEyLjEyNSwyMDEuNzUgMTEyLjEyNSwyMDQuNTYyNSBMMTEzLjg3NSwyMDQuNTYyNSBRMTEzLjg3NSwyMDQuNTYyNSAxMTMuODc1LDIwMS43NSBMMTEyLjEyNSwyMDEuNzUgWiBNMTA3Ljg3NSwyMDIuNDM3NSBMMTEyLjgxMjUsMjAyLjQzNzUgTDExMi44MTI1LDIwMC42ODc1IEwxMDcuODc1LDIwMC42ODc1IEwxMDcuODc1LDIwMi40Mzc1IFogIiBmaWxsPSIjMDAwMDAwIi8+PHRleHQgZmlsbD0iIzAwMDAwMCIgZm9udC1mYW1pbHk9InNhbnMtc2VyaWYiIGZvbnQtc2l6ZT0iMTQiIGxlbmd0aEFkanVzdD0ic3BhY2luZyIgdGV4dExlbmd0aD0iNDIiIHg9IjEzMC43NSIgeT0iMjExLjc0MjIiPlJlY2lwZTwvdGV4dD48bGluZSBzdHlsZT0ic3Ryb2tlOiMxODE4MTg7c3Ryb2tlLXdpZHRoOjAuNTsiIHgxPSI4IiB4Mj0iMjYzIiB5MT0iMjIyIiB5Mj0iMjIyIi8+PHJlY3QgZmlsbD0ibm9uZSIgaGVpZ2h0PSI2IiBzdHlsZT0ic3Ryb2tlOiNDODI5MzA7c3Ryb2tlLXdpZHRoOjE7IiB3aWR0aD0iNiIgeD0iMTUiIHk9IjIzMS45OTIyIi8+PHRleHQgZmlsbD0iIzAwMDAwMCIgZm9udC1mYW1pbHk9InNhbnMtc2VyaWYiIGZvbnQtc2l6ZT0iMTQiIGxlbmd0aEFkanVzdD0ic3BhY2luZyIgdGV4dExlbmd0aD0iOTEiIHg9IjI3IiB5PSIyMzkuMjM0NCI+dGl0bGU6IFN0cmluZzwvdGV4dD48cmVjdCBmaWxsPSJub25lIiBoZWlnaHQ9IjYiIHN0eWxlPSJzdHJva2U6I0M4MjkzMDtzdHJva2Utd2lkdGg6MTsiIHdpZHRoPSI2IiB4PSIxNSIgeT0iMjQ2Ljk3NjYiLz48dGV4dCBmaWxsPSIjMDAwMDAwIiBmb250LWZhbWlseT0ic2Fucy1zZXJpZiIgZm9udC1zaXplPSIxNCIgbGVuZ3RoQWRqdXN0PSJzcGFjaW5nIiB0ZXh0TGVuZ3RoPSIxNTQiIHg9IjI3IiB5PSIyNTQuMjE4OCI+aW5zdHJ1Y3Rpb25zOiBTdHJpbmdbXTwvdGV4dD48cmVjdCBmaWxsPSJub25lIiBoZWlnaHQ9IjYiIHN0eWxlPSJzdHJva2U6I0M4MjkzMDtzdHJva2Utd2lkdGg6MTsiIHdpZHRoPSI2IiB4PSIxNSIgeT0iMjYxLjk2MDkiLz48dGV4dCBmaWxsPSIjMDAwMDAwIiBmb250LWZhbWlseT0ic2Fucy1zZXJpZiIgZm9udC1zaXplPSIxNCIgbGVuZ3RoQWRqdXN0PSJzcGFjaW5nIiB0ZXh0TGVuZ3RoPSIyMDMiIHg9IjI3IiB5PSIyNjkuMjAzMSI+aW5ncmVkaWVudHM6IExpc3QmbHQ7SW5ncmVkaWVudCZndDs8L3RleHQ+PGxpbmUgc3R5bGU9InN0cm9rZTojMTgxODE4O3N0cm9rZS13aWR0aDowLjU7IiB4MT0iOCIgeDI9IjI2MyIgeTE9IjI3NC45NTMxIiB5Mj0iMjc0Ljk1MzEiLz48ZWxsaXBzZSBjeD0iMTgiIGN5PSIyODcuOTQ1MyIgZmlsbD0iIzg0QkU4NCIgcng9IjMiIHJ5PSIzIiBzdHlsZT0ic3Ryb2tlOiMwMzgwNDg7c3Ryb2tlLXdpZHRoOjE7Ii8+PHRleHQgZmlsbD0iIzAwMDAwMCIgZm9udC1mYW1pbHk9InNhbnMtc2VyaWYiIGZvbnQtc2l6ZT0iMTQiIGxlbmd0aEFkanVzdD0ic3BhY2luZyIgdGV4dExlbmd0aD0iMjMxIiB4PSIyNyIgeT0iMjkyLjE4NzUiPnNjYWxlU2VydmluZ3MobXVsdGlwbGllcjogZG91YmxlKTwvdGV4dD48ZWxsaXBzZSBjeD0iMTgiIGN5PSIzMDIuOTI5NyIgZmlsbD0iIzg0QkU4NCIgcng9IjMiIHJ5PSIzIiBzdHlsZT0ic3Ryb2tlOiMwMzgwNDg7c3Ryb2tlLXdpZHRoOjE7Ii8+PHRleHQgZmlsbD0iIzAwMDAwMCIgZm9udC1mYW1pbHk9InNhbnMtc2VyaWYiIGZvbnQtc2l6ZT0iMTQiIGxlbmd0aEFkanVzdD0ic3BhY2luZyIgdGV4dExlbmd0aD0iNzciIHg9IjI3IiB5PSIzMDcuMTcxOSI+ZXhwb3J0UERGKCk8L3RleHQ+PC9nPjwhLS1jbGFzcyBJbmdyZWRpZW50LS0+PGcgY2xhc3M9ImVudGl0eSIgZGF0YS1lbnRpdHk9IkluZ3JlZGllbnQiIGRhdGEtc291cmNlLWxpbmU9IjE2IiBkYXRhLXVpZD0iZW50MDAwNCIgaWQ9ImVudGl0eV9JbmdyZWRpZW50Ij48cmVjdCBmaWxsPSIjRjFGMUYxIiBoZWlnaHQ9IjEwNy45Mzc1IiByeD0iMi41IiByeT0iMi41IiBzdHlsZT0ic3Ryb2tlOiMxODE4MTg7c3Ryb2tlLXdpZHRoOjAuNTsiIHdpZHRoPSIyMTUiIHg9IjI4IiB5PSIzODgiLz48ZWxsaXBzZSBjeD0iOTYuMjUiIGN5PSI0MDQiIGZpbGw9IiNBREQxQjIiIHJ4PSIxMSIgcnk9IjExIiBzdHlsZT0ic3Ryb2tlOiMxODE4MTg7c3Ryb2tlLXdpZHRoOjE7Ii8+PHBhdGggZD0iTTkzLjg3NSw0MDguMjUgTDkzLjg3NSw0MTAgTDk4LjgxMjUsNDEwIEw5OC44MTI1LDQwOC4yNSBMOTMuODc1LDQwOC4yNSBaIE05NC41NjI1LDQwOC45Mzc1IFE5NC41NjI1LDQwOC45Mzc1IDk0LjU2MjUsMzk5Ljc1IEw5Mi44MTI1LDM5OS43NSBROTIuODEyNSwzOTkuNzUgOTIuODEyNSw0MDguOTM3NSBMOTQuNTYyNSw0MDguOTM3NSBaIE05OC4xMjUsNDA4LjkzNzUgTDk5Ljg3NSw0MDguOTM3NSBROTkuODc1LDQwOC45Mzc1IDk5Ljg3NSw0MDYuMTI1IEw5OC4xMjUsNDA2LjEyNSBROTguMTI1LDQwNi4xMjUgOTguMTI1LDQwOC45Mzc1IFogTTk4LjEyNSwzOTkuNzUgUTk4LjEyNSwzOTkuNzUgOTguMTI1LDQwMi41NjI1IEw5OS44NzUsNDAyLjU2MjUgUTk5Ljg3NSw0MDIuNTYyNSA5OS44NzUsMzk5Ljc1IEw5OC4xMjUsMzk5Ljc1IFogTTkzLjg3NSw0MDAuNDM3NSBMOTguODEyNSw0MDAuNDM3NSBMOTguODEyNSwzOTguNjg3NSBMOTMuODc1LDM5OC42ODc1IEw5My44NzUsNDAwLjQzNzUgWiAiIGZpbGw9IiMwMDAwMDAiLz48dGV4dCBmaWxsPSIjMDAwMDAwIiBmb250LWZhbWlseT0ic2Fucy1zZXJpZiIgZm9udC1zaXplPSIxNCIgbGVuZ3RoQWRqdXN0PSJzcGFjaW5nIiB0ZXh0TGVuZ3RoPSI3MCIgeD0iMTE2Ljc1IiB5PSI0MDkuNzQyMiI+SW5ncmVkaWVudDwvdGV4dD48bGluZSBzdHlsZT0ic3Ryb2tlOiMxODE4MTg7c3Ryb2tlLXdpZHRoOjAuNTsiIHgxPSIyOSIgeDI9IjI0MiIgeTE9IjQyMCIgeTI9IjQyMCIvPjxyZWN0IGZpbGw9Im5vbmUiIGhlaWdodD0iNiIgc3R5bGU9InN0cm9rZTojQzgyOTMwO3N0cm9rZS13aWR0aDoxOyIgd2lkdGg9IjYiIHg9IjM2IiB5PSI0MjkuOTkyMiIvPjx0ZXh0IGZpbGw9IiMwMDAwMDAiIGZvbnQtZmFtaWx5PSJzYW5zLXNlcmlmIiBmb250LXNpemU9IjE0IiBsZW5ndGhBZGp1c3Q9InNwYWNpbmciIHRleHRMZW5ndGg9Ijg0IiB4PSI0OCIgeT0iNDM3LjIzNDQiPm5hbWU6IFN0cmluZzwvdGV4dD48cmVjdCBmaWxsPSJub25lIiBoZWlnaHQ9IjYiIHN0eWxlPSJzdHJva2U6I0M4MjkzMDtzdHJva2Utd2lkdGg6MTsiIHdpZHRoPSI2IiB4PSIzNiIgeT0iNDQ0Ljk3NjYiLz48dGV4dCBmaWxsPSIjMDAwMDAwIiBmb250LWZhbWlseT0ic2Fucy1zZXJpZiIgZm9udC1zaXplPSIxNCIgbGVuZ3RoQWRqdXN0PSJzcGFjaW5nIiB0ZXh0TGVuZ3RoPSIxMTIiIHg9IjQ4IiB5PSI0NTIuMjE4OCI+cXVhbnRpdHk6IGRvdWJsZTwvdGV4dD48cmVjdCBmaWxsPSJub25lIiBoZWlnaHQ9IjYiIHN0eWxlPSJzdHJva2U6I0M4MjkzMDtzdHJva2Utd2lkdGg6MTsiIHdpZHRoPSI2IiB4PSIzNiIgeT0iNDU5Ljk2MDkiLz48dGV4dCBmaWxsPSIjMDAwMDAwIiBmb250LWZhbWlseT0ic2Fucy1zZXJpZiIgZm9udC1zaXplPSIxNCIgbGVuZ3RoQWRqdXN0PSJzcGFjaW5nIiB0ZXh0TGVuZ3RoPSI4NCIgeD0iNDgiIHk9IjQ2Ny4yMDMxIj51bml0OiBTdHJpbmc8L3RleHQ+PGxpbmUgc3R5bGU9InN0cm9rZTojMTgxODE4O3N0cm9rZS13aWR0aDowLjU7IiB4MT0iMjkiIHgyPSIyNDIiIHkxPSI0NzIuOTUzMSIgeTI9IjQ3Mi45NTMxIi8+PGVsbGlwc2UgY3g9IjM5IiBjeT0iNDg1Ljk0NTMiIGZpbGw9IiM4NEJFODQiIHJ4PSIzIiByeT0iMyIgc3R5bGU9InN0cm9rZTojMDM4MDQ4O3N0cm9rZS13aWR0aDoxOyIvPjx0ZXh0IGZpbGw9IiMwMDAwMDAiIGZvbnQtZmFtaWx5PSJzYW5zLXNlcmlmIiBmb250LXNpemU9IjE0IiBsZW5ndGhBZGp1c3Q9InNwYWNpbmciIHRleHRMZW5ndGg9IjE4OSIgeD0iNDgiIHk9IjQ5MC4xODc1Ij51cGRhdGVDb3N0KG5ld0Nvc3Q6IGRvdWJsZSk8L3RleHQ+PC9nPjwhLS1jbGFzcyBJbnZlbnRvcnktLT48ZyBjbGFzcz0iZW50aXR5IiBkYXRhLWVudGl0eT0iSW52ZW50b3J5IiBkYXRhLXNvdXJjZS1saW5lPSIyMyIgZGF0YS11aWQ9ImVudDAwMDUiIGlkPSJlbnRpdHlfSW52ZW50b3J5Ij48cmVjdCBmaWxsPSIjRjFGMUYxIiBoZWlnaHQ9IjkyLjk1MzEiIHJ4PSIyLjUiIHJ5PSIyLjUiIHN0eWxlPSJzdHJva2U6IzE4MTgxODtzdHJva2Utd2lkdGg6MC41OyIgd2lkdGg9IjEzMSIgeD0iNzAiIHk9IjU3MSIvPjxlbGxpcHNlIGN4PSIxMDEuMiIgY3k9IjU4NyIgZmlsbD0iI0FERDFCMiIgcng9IjExIiByeT0iMTEiIHN0eWxlPSJzdHJva2U6IzE4MTgxODtzdHJva2Utd2lkdGg6MTsiLz48cGF0aCBkPSJNOTguODI1LDU5MS4yNSBMOTguODI1LDU5MyBMMTAzLjc2MjUsNTkzIEwxMDMuNzYyNSw1OTEuMjUgTDk4LjgyNSw1OTEuMjUgWiBNOTkuNTEyNSw1OTEuOTM3NSBROTkuNTEyNSw1OTEuOTM3NSA5OS41MTI1LDU4Mi43NSBMOTcuNzYyNSw1ODIuNzUgUTk3Ljc2MjUsNTgyLjc1IDk3Ljc2MjUsNTkxLjkzNzUgTDk5LjUxMjUsNTkxLjkzNzUgWiBNMTAzLjA3NSw1OTEuOTM3NSBMMTA0LjgyNSw1OTEuOTM3NSBRMTA0LjgyNSw1OTEuOTM3NSAxMDQuODI1LDU4OS4xMjUgTDEwMy4wNzUsNTg5LjEyNSBRMTAzLjA3NSw1ODkuMTI1IDEwMy4wNzUsNTkxLjkzNzUgWiBNMTAzLjA3NSw1ODIuNzUgUTEwMy4wNzUsNTgyLjc1IDEwMy4wNzUsNTg1LjU2MjUgTDEwNC44MjUsNTg1LjU2MjUgUTEwNC44MjUsNTg1LjU2MjUgMTA0LjgyNSw1ODIuNzUgTDEwMy4wNzUsNTgyLjc1IFogTTk4LjgyNSw1ODMuNDM3NSBMMTAzLjc2MjUsNTgzLjQzNzUgTDEwMy43NjI1LDU4MS42ODc1IEw5OC44MjUsNTgxLjY4NzUgTDk4LjgyNSw1ODMuNDM3NSBaICIgZmlsbD0iIzAwMDAwMCIvPjx0ZXh0IGZpbGw9IiMwMDAwMDAiIGZvbnQtZmFtaWx5PSJzYW5zLXNlcmlmIiBmb250LXNpemU9IjE0IiBsZW5ndGhBZGp1c3Q9InNwYWNpbmciIHRleHRMZW5ndGg9IjYzIiB4PSIxMTguOCIgeT0iNTkyLjc0MjIiPkludmVudG9yeTwvdGV4dD48bGluZSBzdHlsZT0ic3Ryb2tlOiMxODE4MTg7c3Ryb2tlLXdpZHRoOjAuNTsiIHgxPSI3MSIgeDI9IjIwMCIgeTE9IjYwMyIgeTI9IjYwMyIvPjxyZWN0IGZpbGw9Im5vbmUiIGhlaWdodD0iNiIgc3R5bGU9InN0cm9rZTojQzgyOTMwO3N0cm9rZS13aWR0aDoxOyIgd2lkdGg9IjYiIHg9Ijc4IiB5PSI2MTIuOTkyMiIvPjx0ZXh0IGZpbGw9IiMwMDAwMDAiIGZvbnQtZmFtaWx5PSJzYW5zLXNlcmlmIiBmb250LXNpemU9IjE0IiBsZW5ndGhBZGp1c3Q9InNwYWNpbmciIHRleHRMZW5ndGg9IjEwNSIgeD0iOTAiIHk9IjYyMC4yMzQ0Ij5zdG9ja0xldmVsOiBpbnQ8L3RleHQ+PHJlY3QgZmlsbD0ibm9uZSIgaGVpZ2h0PSI2IiBzdHlsZT0ic3Ryb2tlOiNDODI5MzA7c3Ryb2tlLXdpZHRoOjE7IiB3aWR0aD0iNiIgeD0iNzgiIHk9IjYyNy45NzY2Ii8+PHRleHQgZmlsbD0iIzAwMDAwMCIgZm9udC1mYW1pbHk9InNhbnMtc2VyaWYiIGZvbnQtc2l6ZT0iMTQiIGxlbmd0aEFkanVzdD0ic3BhY2luZyIgdGV4dExlbmd0aD0iOTgiIHg9IjkwIiB5PSI2MzUuMjE4OCI+dGhyZXNob2xkOiBpbnQ8L3RleHQ+PGxpbmUgc3R5bGU9InN0cm9rZTojMTgxODE4O3N0cm9rZS13aWR0aDowLjU7IiB4MT0iNzEiIHgyPSIyMDAiIHkxPSI2NDAuOTY4OCIgeTI9IjY0MC45Njg4Ii8+PGVsbGlwc2UgY3g9IjgxIiBjeT0iNjUzLjk2MDkiIGZpbGw9IiM4NEJFODQiIHJ4PSIzIiByeT0iMyIgc3R5bGU9InN0cm9rZTojMDM4MDQ4O3N0cm9rZS13aWR0aDoxOyIvPjx0ZXh0IGZpbGw9IiMwMDAwMDAiIGZvbnQtZmFtaWx5PSJzYW5zLXNlcmlmIiBmb250LXNpemU9IjE0IiBsZW5ndGhBZGp1c3Q9InNwYWNpbmciIHRleHRMZW5ndGg9IjEwNSIgeD0iOTAiIHk9IjY1OC4yMDMxIj5hbGVydExvd1N0b2NrKCk8L3RleHQ+PC9nPjwhLS1saW5rIFl1bUFJU3lzdGVtIHRvIFJlY2lwZS0tPjxnIGNsYXNzPSJsaW5rIiBkYXRhLWVudGl0eS0xPSJZdW1BSVN5c3RlbSIgZGF0YS1lbnRpdHktMj0iUmVjaXBlIiBkYXRhLXNvdXJjZS1saW5lPSIyOSIgZGF0YS11aWQ9ImxuazYiIGlkPSJsaW5rX1l1bUFJU3lzdGVtX1JlY2lwZSI+PHBhdGggY29kZUxpbmU9IjI5IiBkPSJNMTM1LjUsMTE1LjAxIEMxMzUuNSwxMzguMzEgMTM1LjUsMTY1LjgxIDEzNS41LDE4OS45MiIgZmlsbD0ibm9uZSIgaWQ9Ill1bUFJU3lzdGVtLVJlY2lwZSIgc3R5bGU9InN0cm9rZTojMTgxODE4O3N0cm9rZS13aWR0aDoxOyIvPjx0ZXh0IGZpbGw9IiMwMDAwMDAiIGZvbnQtZmFtaWx5PSJzYW5zLXNlcmlmIiBmb250LXNpemU9IjEzIiBsZW5ndGhBZGp1c3Q9InNwYWNpbmciIHRleHRMZW5ndGg9IjQ1LjUiIHg9IjEzNi41IiB5PSIxNTguMjg5MSI+bWFuYWdlczwvdGV4dD48dGV4dCBmaWxsPSIjMDAwMDAwIiBmb250LWZhbWlseT0ic2Fucy1zZXJpZiIgZm9udC1zaXplPSIxMyIgbGVuZ3RoQWRqdXN0PSJzcGFjaW5nIiB0ZXh0TGVuZ3RoPSI2LjUiIHg9IjEyOS4xNDc3IiB5PSIxMzUuMTE0NSI+MTwvdGV4dD48dGV4dCBmaWxsPSIjMDAwMDAwIiBmb250LWZhbWlseT0ic2Fucy1zZXJpZiIgZm9udC1zaXplPSIxMyIgbGVuZ3RoQWRqdXN0PSJzcGFjaW5nIiB0ZXh0TGVuZ3RoPSI2LjUiIHg9IjEyOS4xNDc3IiB5PSIxODAuNTQ5OSI+KjwvdGV4dD48L2c+PCEtLWxpbmsgUmVjaXBlIHRvIEluZ3JlZGllbnQtLT48ZyBjbGFzcz0ibGluayIgZGF0YS1lbnRpdHktMT0iUmVjaXBlIiBkYXRhLWVudGl0eS0yPSJJbmdyZWRpZW50IiBkYXRhLXNvdXJjZS1saW5lPSIzMCIgZGF0YS11aWQ9ImxuazciIGlkPSJsaW5rX1JlY2lwZV9JbmdyZWRpZW50Ij48cGF0aCBjb2RlTGluZT0iMzAiIGQ9Ik0xMzUuNSwzMTMuMTggQzEzNS41LDMzNy4xOCAxMzUuNSwzNjQuNTIgMTM1LjUsMzg3Ljc0IiBmaWxsPSJub25lIiBpZD0iUmVjaXBlLUluZ3JlZGllbnQiIHN0eWxlPSJzdHJva2U6IzE4MTgxODtzdHJva2Utd2lkdGg6MTsiLz48dGV4dCBmaWxsPSIjMDAwMDAwIiBmb250LWZhbWlseT0ic2Fucy1zZXJpZiIgZm9udC1zaXplPSIxMyIgbGVuZ3RoQWRqdXN0PSJzcGFjaW5nIiB0ZXh0TGVuZ3RoPSIyNiIgeD0iMTM2LjUiIHk9IjM1Ni4yODkxIj51c2VzPC90ZXh0Pjx0ZXh0IGZpbGw9IiMwMDAwMDAiIGZvbnQtZmFtaWx5PSJzYW5zLXNlcmlmIiBmb250LXNpemU9IjEzIiBsZW5ndGhBZGp1c3Q9InNwYWNpbmciIHRleHRMZW5ndGg9IjYuNSIgeD0iMTI5LjE4MiIgeT0iMzMzLjQwOTciPjE8L3RleHQ+PHRleHQgZmlsbD0iIzAwMDAwMCIgZm9udC1mYW1pbHk9InNhbnMtc2VyaWYiIGZvbnQtc2l6ZT0iMTMiIGxlbmd0aEFkanVzdD0ic3BhY2luZyIgdGV4dExlbmd0aD0iNi41IiB4PSIxMjkuMTEzMyIgeT0iMzc4LjU1MzQiPio8L3RleHQ+PC9nPjwhLS1saW5rIEluZ3JlZGllbnQgdG8gSW52ZW50b3J5LS0+PGcgY2xhc3M9ImxpbmsiIGRhdGEtZW50aXR5LTE9IkluZ3JlZGllbnQiIGRhdGEtZW50aXR5LTI9IkludmVudG9yeSIgZGF0YS1zb3VyY2UtbGluZT0iMzEiIGRhdGEtdWlkPSJsbms4IiBpZD0ibGlua19JbmdyZWRpZW50X0ludmVudG9yeSI+PHBhdGggY29kZUxpbmU9IjMxIiBkPSJNMTM1LjUsNDk2LjQ3IEMxMzUuNSw1MjAuMjcgMTM1LjUsNTQ4IDEzNS41LDU3MC44MSIgZmlsbD0ibm9uZSIgaWQ9IkluZ3JlZGllbnQtSW52ZW50b3J5IiBzdHlsZT0ic3Ryb2tlOiMxODE4MTg7c3Ryb2tlLXdpZHRoOjE7Ii8+PHRleHQgZmlsbD0iIzAwMDAwMCIgZm9udC1mYW1pbHk9InNhbnMtc2VyaWYiIGZvbnQtc2l6ZT0iMTMiIGxlbmd0aEFkanVzdD0ic3BhY2luZyIgdGV4dExlbmd0aD0iNTIiIHg9IjEzNi41IiB5PSI1MzkuMjg5MSI+bW9uaXRvcnM8L3RleHQ+PHRleHQgZmlsbD0iIzAwMDAwMCIgZm9udC1mYW1pbHk9InNhbnMtc2VyaWYiIGZvbnQtc2l6ZT0iMTMiIGxlbmd0aEFkanVzdD0ic3BhY2luZyIgdGV4dExlbmd0aD0iNi41IiB4PSIxMjkuMTY0OCIgeT0iNTE2LjI0OTMiPjE8L3RleHQ+PHRleHQgZmlsbD0iIzAwMDAwMCIgZm9udC1mYW1pbHk9InNhbnMtc2VyaWYiIGZvbnQtc2l6ZT0iMTMiIGxlbmd0aEFkanVzdD0ic3BhY2luZyIgdGV4dExlbmd0aD0iNi41IiB4PSIxMjkuMDQ0NSIgeT0iNTYxLjM2OSI+MTwvdGV4dD48L2c+PCEtLVNSQz1bTFA1MUp5Q20zOE5sX0hMSEp1RGZYcnFoWDNJZWEyUEQyRDRKR1hvb3JFZ1lmS2M5ZE9zMi1FeXUzTU5YNUVOcFl6LXBldW40NTItWHRzb1I0R2J3eUxLOGlWQVd6MDNyTklMZ0lOOGw0UFdrRXgzVzlTN3BMRHJpNXJVSGFmVmdVRS1HQ0RzYmJNUnlYQ1QwTmZEc2JrYnRLUVo5QUJyQzdnSjlHMktRYmphazBjc0hWNTNuM1N4eXpJckxFVy1qMWFqU3M2Y2FjLXFWa09zVWdBSTExbG85YlJaZVdvNHo2MHMtNGdxQlVtREpDRldPZEFVZC1ZNUZUNmNLS2JkUF9tbHI3Z0piZkVGU0FSOVdETU1RUEhYUXRhZlNtU0IyRVB1TnR5cGVuMlJFWnlhN29RZFozYXZXQWc0akpHaXZVQzIzQy1yQ2Jab0tmdnF4RHI2U0trVFZMUXZCaUxnOXloZ1M1cms5ZGpWVjBIUV84OURhYXJPWTg2aW9Da2xNUEhRS2twYVVyTmR5MEcwMF0tLT48L2c+PC9zdmc+;" vertex="1" parent="1">
            <mxGeometry x="86.75" y="77" width="271" height="670" as="geometry" />
          </mxCell>
        </UserObject>
        <mxCell id="UhCZ1_yWcIaTT6cPaHG9-3" value="CLASS DIAGRAM" style="text;html=1;align=center;verticalAlign=middle;whiteSpace=wrap;rounded=0;" vertex="1" parent="1">
          <mxGeometry x="170" y="47" width="104.5" height="30" as="geometry" />
        </mxCell>
        <mxCell id="UhCZ1_yWcIaTT6cPaHG9-4" value="DOMAIN MODEL" style="text;html=1;align=center;verticalAlign=middle;whiteSpace=wrap;rounded=0;" vertex="1" parent="1">
          <mxGeometry x="-342.75" y="47" width="108.5" height="30" as="geometry" />
        </mxCell>
        <UserObject label="" plantUmlData="{&#xa;  &quot;data&quot;: &quot;@startuml\nactor User\nparticipant YumAI\nparticipant Recipe\nparticipant AI_Engine\nparticipant Inventory\n\nUser -&gt; YumAI: Create New Recipe\nYumAI -&gt; AI_Engine: Request suggestions\nAI_Engine --&gt; YumAI: Return base recipe\nYumAI -&gt; Recipe: Initialize template\nYumAI -&gt; Inventory: Check ingredient availability\nInventory --&gt; YumAI: Stock status\nYumAI --&gt; User: Display editor with suggestions\nUser -&gt; Recipe: Add custom ingredients\nRecipe -&gt; YumAI: Save finalized recipe\n@enduml\n&quot;,&#xa;  &quot;format&quot;: &quot;svg&quot;&#xa;}" id="UhCZ1_yWcIaTT6cPaHG9-5">
          <mxCell style="shape=image;noLabel=1;verticalAlign=top;aspect=fixed;imageAspect=0;image=data:image/svg+xml,PHN2ZyB4bWxucz0iaHR0cDovL3d3dy53My5vcmcvMjAwMC9zdmciIHhtbG5zOnhsaW5rPSJodHRwOi8vd3d3LnczLm9yZy8xOTk5L3hsaW5rIiBjb250ZW50U3R5bGVUeXBlPSJ0ZXh0L2NzcyIgZGF0YS1kaWFncmFtLXR5cGU9IlNFUVVFTkNFIiBoZWlnaHQ9IjQzMHB4IiBwcmVzZXJ2ZUFzcGVjdFJhdGlvPSJub25lIiBzdHlsZT0id2lkdGg6NjE2cHg7aGVpZ2h0OjQzMHB4O2JhY2tncm91bmQ6I0ZGRkZGRjsiIHZlcnNpb249IjEuMSIgdmlld0JveD0iMCAwIDYxNiA0MzAiIHdpZHRoPSI2MTZweCIgem9vbUFuZFBhbj0ibWFnbmlmeSI+PGRlZnMvPjxnPjxnPjx0aXRsZT5Vc2VyPC90aXRsZT48cmVjdCBmaWxsPSIjMDAwMDAwIiBmaWxsLW9wYWNpdHk9IjAuMDAwMDAiIGhlaWdodD0iMjcxLjIyNjYiIHdpZHRoPSI4IiB4PSIxOCIgeT0iNzkuOTg0NCIvPjxsaW5lIHN0eWxlPSJzdHJva2U6IzE4MTgxODtzdHJva2Utd2lkdGg6MC41O3N0cm9rZS1kYXNoYXJyYXk6NS4wLDUuMDsiIHgxPSIyMiIgeDI9IjIyIiB5MT0iNzkuOTg0NCIgeTI9IjM1MS4yMTA5Ii8+PC9nPjxnPjx0aXRsZT5ZdW1BSTwvdGl0bGU+PHJlY3QgZmlsbD0iIzAwMDAwMCIgZmlsbC1vcGFjaXR5PSIwLjAwMDAwIiBoZWlnaHQ9IjI3MS4yMjY2IiB3aWR0aD0iOCIgeD0iMjQzLjUiIHk9Ijc5Ljk4NDQiLz48bGluZSBzdHlsZT0ic3Ryb2tlOiMxODE4MTg7c3Ryb2tlLXdpZHRoOjAuNTtzdHJva2UtZGFzaGFycmF5OjUuMCw1LjA7IiB4MT0iMjQ3IiB4Mj0iMjQ3IiB5MT0iNzkuOTg0NCIgeTI9IjM1MS4yMTA5Ii8+PC9nPjxnPjx0aXRsZT5SZWNpcGU8L3RpdGxlPjxyZWN0IGZpbGw9IiMwMDAwMDAiIGZpbGwtb3BhY2l0eT0iMC4wMDAwMCIgaGVpZ2h0PSIyNzEuMjI2NiIgd2lkdGg9IjgiIHg9IjQwNCIgeT0iNzkuOTg0NCIvPjxsaW5lIHN0eWxlPSJzdHJva2U6IzE4MTgxODtzdHJva2Utd2lkdGg6MC41O3N0cm9rZS1kYXNoYXJyYXk6NS4wLDUuMDsiIHgxPSI0MDgiIHgyPSI0MDgiIHkxPSI3OS45ODQ0IiB5Mj0iMzUxLjIxMDkiLz48L2c+PGc+PHRpdGxlPkFJX0VuZ2luZTwvdGl0bGU+PHJlY3QgZmlsbD0iIzAwMDAwMCIgZmlsbC1vcGFjaXR5PSIwLjAwMDAwIiBoZWlnaHQ9IjI3MS4yMjY2IiB3aWR0aD0iOCIgeD0iNDgwLjUiIHk9Ijc5Ljk4NDQiLz48bGluZSBzdHlsZT0ic3Ryb2tlOiMxODE4MTg7c3Ryb2tlLXdpZHRoOjAuNTtzdHJva2UtZGFzaGFycmF5OjUuMCw1LjA7IiB4MT0iNDg0IiB4Mj0iNDg0IiB5MT0iNzkuOTg0NCIgeTI9IjM1MS4yMTA5Ii8+PC9nPjxnPjx0aXRsZT5JbnZlbnRvcnk8L3RpdGxlPjxyZWN0IGZpbGw9IiMwMDAwMDAiIGZpbGwtb3BhY2l0eT0iMC4wMDAwMCIgaGVpZ2h0PSIyNzEuMjI2NiIgd2lkdGg9IjgiIHg9IjU2Ny41IiB5PSI3OS45ODQ0Ii8+PGxpbmUgc3R5bGU9InN0cm9rZTojMTgxODE4O3N0cm9rZS13aWR0aDowLjU7c3Ryb2tlLWRhc2hhcnJheTo1LjAsNS4wOyIgeDE9IjU3MSIgeDI9IjU3MSIgeTE9Ijc5Ljk4NDQiIHkyPSIzNTEuMjEwOSIvPjwvZz48ZyBjbGFzcz0icGFydGljaXBhbnQgcGFydGljaXBhbnQtaGVhZCIgZGF0YS1wYXJ0aWNpcGFudD0iVXNlciI+PHRleHQgZmlsbD0iIzAwMDAwMCIgZm9udC1mYW1pbHk9InNhbnMtc2VyaWYiIGZvbnQtc2l6ZT0iMTQiIGxlbmd0aEFkanVzdD0ic3BhY2luZyIgdGV4dExlbmd0aD0iMjgiIHg9IjUiIHk9Ijc4LjIzNDQiPlVzZXI8L3RleHQ+PGVsbGlwc2UgY3g9IjIyIiBjeT0iMTMuNSIgZmlsbD0iI0UyRTJGMCIgcng9IjgiIHJ5PSI4IiBzdHlsZT0ic3Ryb2tlOiMxODE4MTg7c3Ryb2tlLXdpZHRoOjAuNTsiLz48cGF0aCBkPSJNMjIsMjEuNSBMMjIsNDguNSBNOSwyOS41IEwzNSwyOS41IE0yMiw0OC41IEw5LDYzLjUgTTIyLDQ4LjUgTDM1LDYzLjUiIGZpbGw9Im5vbmUiIHN0eWxlPSJzdHJva2U6IzE4MTgxODtzdHJva2Utd2lkdGg6MC41OyIvPjwvZz48ZyBjbGFzcz0icGFydGljaXBhbnQgcGFydGljaXBhbnQtdGFpbCIgZGF0YS1wYXJ0aWNpcGFudD0iVXNlciI+PHRleHQgZmlsbD0iIzAwMDAwMCIgZm9udC1mYW1pbHk9InNhbnMtc2VyaWYiIGZvbnQtc2l6ZT0iMTQiIGxlbmd0aEFkanVzdD0ic3BhY2luZyIgdGV4dExlbmd0aD0iMjgiIHg9IjUiIHk9IjM2My40NDUzIj5Vc2VyPC90ZXh0PjxlbGxpcHNlIGN4PSIyMiIgY3k9IjM3My42OTUzIiBmaWxsPSIjRTJFMkYwIiByeD0iOCIgcnk9IjgiIHN0eWxlPSJzdHJva2U6IzE4MTgxODtzdHJva2Utd2lkdGg6MC41OyIvPjxwYXRoIGQ9Ik0yMiwzODEuNjk1MyBMMjIsNDA4LjY5NTMgTTksMzg5LjY5NTMgTDM1LDM4OS42OTUzIE0yMiw0MDguNjk1MyBMOSw0MjMuNjk1MyBNMjIsNDA4LjY5NTMgTDM1LDQyMy42OTUzIiBmaWxsPSJub25lIiBzdHlsZT0ic3Ryb2tlOiMxODE4MTg7c3Ryb2tlLXdpZHRoOjAuNTsiLz48L2c+PGcgY2xhc3M9InBhcnRpY2lwYW50IHBhcnRpY2lwYW50LWhlYWQiIGRhdGEtcGFydGljaXBhbnQ9Ill1bUFJIj48cmVjdCBmaWxsPSIjRTJFMkYwIiBoZWlnaHQ9IjI4Ljk4NDQiIHJ4PSIyLjUiIHJ5PSIyLjUiIHN0eWxlPSJzdHJva2U6IzE4MTgxODtzdHJva2Utd2lkdGg6MC41OyIgd2lkdGg9IjQ5IiB4PSIyMjMiIHk9IjUwIi8+PHRleHQgZmlsbD0iIzAwMDAwMCIgZm9udC1mYW1pbHk9InNhbnMtc2VyaWYiIGZvbnQtc2l6ZT0iMTQiIGxlbmd0aEFkanVzdD0ic3BhY2luZyIgdGV4dExlbmd0aD0iMzUiIHg9IjIzMCIgeT0iNzAuMjM0NCI+WXVtQUk8L3RleHQ+PC9nPjxnIGNsYXNzPSJwYXJ0aWNpcGFudCBwYXJ0aWNpcGFudC10YWlsIiBkYXRhLXBhcnRpY2lwYW50PSJZdW1BSSI+PHJlY3QgZmlsbD0iI0UyRTJGMCIgaGVpZ2h0PSIyOC45ODQ0IiByeD0iMi41IiByeT0iMi41IiBzdHlsZT0ic3Ryb2tlOiMxODE4MTg7c3Ryb2tlLXdpZHRoOjAuNTsiIHdpZHRoPSI0OSIgeD0iMjIzIiB5PSIzNTAuMjEwOSIvPjx0ZXh0IGZpbGw9IiMwMDAwMDAiIGZvbnQtZmFtaWx5PSJzYW5zLXNlcmlmIiBmb250LXNpemU9IjE0IiBsZW5ndGhBZGp1c3Q9InNwYWNpbmciIHRleHRMZW5ndGg9IjM1IiB4PSIyMzAiIHk9IjM3MC40NDUzIj5ZdW1BSTwvdGV4dD48L2c+PGcgY2xhc3M9InBhcnRpY2lwYW50IHBhcnRpY2lwYW50LWhlYWQiIGRhdGEtcGFydGljaXBhbnQ9IlJlY2lwZSI+PHJlY3QgZmlsbD0iI0UyRTJGMCIgaGVpZ2h0PSIyOC45ODQ0IiByeD0iMi41IiByeT0iMi41IiBzdHlsZT0ic3Ryb2tlOiMxODE4MTg7c3Ryb2tlLXdpZHRoOjAuNTsiIHdpZHRoPSI1NiIgeD0iMzgwIiB5PSI1MCIvPjx0ZXh0IGZpbGw9IiMwMDAwMDAiIGZvbnQtZmFtaWx5PSJzYW5zLXNlcmlmIiBmb250LXNpemU9IjE0IiBsZW5ndGhBZGp1c3Q9InNwYWNpbmciIHRleHRMZW5ndGg9IjQyIiB4PSIzODciIHk9IjcwLjIzNDQiPlJlY2lwZTwvdGV4dD48L2c+PGcgY2xhc3M9InBhcnRpY2lwYW50IHBhcnRpY2lwYW50LXRhaWwiIGRhdGEtcGFydGljaXBhbnQ9IlJlY2lwZSI+PHJlY3QgZmlsbD0iI0UyRTJGMCIgaGVpZ2h0PSIyOC45ODQ0IiByeD0iMi41IiByeT0iMi41IiBzdHlsZT0ic3Ryb2tlOiMxODE4MTg7c3Ryb2tlLXdpZHRoOjAuNTsiIHdpZHRoPSI1NiIgeD0iMzgwIiB5PSIzNTAuMjEwOSIvPjx0ZXh0IGZpbGw9IiMwMDAwMDAiIGZvbnQtZmFtaWx5PSJzYW5zLXNlcmlmIiBmb250LXNpemU9IjE0IiBsZW5ndGhBZGp1c3Q9InNwYWNpbmciIHRleHRMZW5ndGg9IjQyIiB4PSIzODciIHk9IjM3MC40NDUzIj5SZWNpcGU8L3RleHQ+PC9nPjxnIGNsYXNzPSJwYXJ0aWNpcGFudCBwYXJ0aWNpcGFudC1oZWFkIiBkYXRhLXBhcnRpY2lwYW50PSJBSV9FbmdpbmUiPjxyZWN0IGZpbGw9IiNFMkUyRjAiIGhlaWdodD0iMjguOTg0NCIgcng9IjIuNSIgcnk9IjIuNSIgc3R5bGU9InN0cm9rZTojMTgxODE4O3N0cm9rZS13aWR0aDowLjU7IiB3aWR0aD0iNzciIHg9IjQ0NiIgeT0iNTAiLz48dGV4dCBmaWxsPSIjMDAwMDAwIiBmb250LWZhbWlseT0ic2Fucy1zZXJpZiIgZm9udC1zaXplPSIxNCIgbGVuZ3RoQWRqdXN0PSJzcGFjaW5nIiB0ZXh0TGVuZ3RoPSI2MyIgeD0iNDUzIiB5PSI3MC4yMzQ0Ij5BSV9FbmdpbmU8L3RleHQ+PC9nPjxnIGNsYXNzPSJwYXJ0aWNpcGFudCBwYXJ0aWNpcGFudC10YWlsIiBkYXRhLXBhcnRpY2lwYW50PSJBSV9FbmdpbmUiPjxyZWN0IGZpbGw9IiNFMkUyRjAiIGhlaWdodD0iMjguOTg0NCIgcng9IjIuNSIgcnk9IjIuNSIgc3R5bGU9InN0cm9rZTojMTgxODE4O3N0cm9rZS13aWR0aDowLjU7IiB3aWR0aD0iNzciIHg9IjQ0NiIgeT0iMzUwLjIxMDkiLz48dGV4dCBmaWxsPSIjMDAwMDAwIiBmb250LWZhbWlseT0ic2Fucy1zZXJpZiIgZm9udC1zaXplPSIxNCIgbGVuZ3RoQWRqdXN0PSJzcGFjaW5nIiB0ZXh0TGVuZ3RoPSI2MyIgeD0iNDUzIiB5PSIzNzAuNDQ1MyI+QUlfRW5naW5lPC90ZXh0PjwvZz48ZyBjbGFzcz0icGFydGljaXBhbnQgcGFydGljaXBhbnQtaGVhZCIgZGF0YS1wYXJ0aWNpcGFudD0iSW52ZW50b3J5Ij48cmVjdCBmaWxsPSIjRTJFMkYwIiBoZWlnaHQ9IjI4Ljk4NDQiIHJ4PSIyLjUiIHJ5PSIyLjUiIHN0eWxlPSJzdHJva2U6IzE4MTgxODtzdHJva2Utd2lkdGg6MC41OyIgd2lkdGg9Ijc3IiB4PSI1MzMiIHk9IjUwIi8+PHRleHQgZmlsbD0iIzAwMDAwMCIgZm9udC1mYW1pbHk9InNhbnMtc2VyaWYiIGZvbnQtc2l6ZT0iMTQiIGxlbmd0aEFkanVzdD0ic3BhY2luZyIgdGV4dExlbmd0aD0iNjMiIHg9IjU0MCIgeT0iNzAuMjM0NCI+SW52ZW50b3J5PC90ZXh0PjwvZz48ZyBjbGFzcz0icGFydGljaXBhbnQgcGFydGljaXBhbnQtdGFpbCIgZGF0YS1wYXJ0aWNpcGFudD0iSW52ZW50b3J5Ij48cmVjdCBmaWxsPSIjRTJFMkYwIiBoZWlnaHQ9IjI4Ljk4NDQiIHJ4PSIyLjUiIHJ5PSIyLjUiIHN0eWxlPSJzdHJva2U6IzE4MTgxODtzdHJva2Utd2lkdGg6MC41OyIgd2lkdGg9Ijc3IiB4PSI1MzMiIHk9IjM1MC4yMTA5Ii8+PHRleHQgZmlsbD0iIzAwMDAwMCIgZm9udC1mYW1pbHk9InNhbnMtc2VyaWYiIGZvbnQtc2l6ZT0iMTQiIGxlbmd0aEFkanVzdD0ic3BhY2luZyIgdGV4dExlbmd0aD0iNjMiIHg9IjU0MCIgeT0iMzcwLjQ0NTMiPkludmVudG9yeTwvdGV4dD48L2c+PGcgY2xhc3M9Im1lc3NhZ2UiIGRhdGEtcGFydGljaXBhbnQtMT0iVXNlciIgZGF0YS1wYXJ0aWNpcGFudC0yPSJZdW1BSSI+PHBvbHlnb24gZmlsbD0iIzE4MTgxOCIgcG9pbnRzPSIyMzUuNSwxMDUuODk4NCwyNDUuNSwxMDkuODk4NCwyMzUuNSwxMTMuODk4NCwyMzkuNSwxMDkuODk4NCIgc3R5bGU9InN0cm9rZTojMTgxODE4O3N0cm9rZS13aWR0aDoxOyIvPjxsaW5lIHN0eWxlPSJzdHJva2U6IzE4MTgxODtzdHJva2Utd2lkdGg6MTsiIHgxPSIyMiIgeDI9IjI0MS41IiB5MT0iMTA5Ljg5ODQiIHkyPSIxMDkuODk4NCIvPjx0ZXh0IGZpbGw9IiMwMDAwMDAiIGZvbnQtZmFtaWx5PSJzYW5zLXNlcmlmIiBmb250LXNpemU9IjEzIiBsZW5ndGhBZGp1c3Q9InNwYWNpbmciIHRleHRMZW5ndGg9IjExMC41IiB4PSIyOSIgeT0iMTA2LjI3MzQiPkNyZWF0ZSBOZXcgUmVjaXBlPC90ZXh0PjwvZz48ZyBjbGFzcz0ibWVzc2FnZSIgZGF0YS1wYXJ0aWNpcGFudC0xPSJZdW1BSSIgZGF0YS1wYXJ0aWNpcGFudC0yPSJBSV9FbmdpbmUiPjxwb2x5Z29uIGZpbGw9IiMxODE4MTgiIHBvaW50cz0iNDcyLjUsMTMzLjgxMjUsNDgyLjUsMTM3LjgxMjUsNDcyLjUsMTQxLjgxMjUsNDc2LjUsMTM3LjgxMjUiIHN0eWxlPSJzdHJva2U6IzE4MTgxODtzdHJva2Utd2lkdGg6MTsiLz48bGluZSBzdHlsZT0ic3Ryb2tlOiMxODE4MTg7c3Ryb2tlLXdpZHRoOjE7IiB4MT0iMjQ3LjUiIHgyPSI0NzguNSIgeTE9IjEzNy44MTI1IiB5Mj0iMTM3LjgxMjUiLz48dGV4dCBmaWxsPSIjMDAwMDAwIiBmb250LWZhbWlseT0ic2Fucy1zZXJpZiIgZm9udC1zaXplPSIxMyIgbGVuZ3RoQWRqdXN0PSJzcGFjaW5nIiB0ZXh0TGVuZ3RoPSIxMjMuNSIgeD0iMjU0LjUiIHk9IjEzNC4xODc1Ij5SZXF1ZXN0IHN1Z2dlc3Rpb25zPC90ZXh0PjwvZz48ZyBjbGFzcz0ibWVzc2FnZSIgZGF0YS1wYXJ0aWNpcGFudC0xPSJBSV9FbmdpbmUiIGRhdGEtcGFydGljaXBhbnQtMj0iWXVtQUkiPjxwb2x5Z29uIGZpbGw9IiMxODE4MTgiIHBvaW50cz0iMjU4LjUsMTYxLjcyNjYsMjQ4LjUsMTY1LjcyNjYsMjU4LjUsMTY5LjcyNjYsMjU0LjUsMTY1LjcyNjYiIHN0eWxlPSJzdHJva2U6IzE4MTgxODtzdHJva2Utd2lkdGg6MTsiLz48bGluZSBzdHlsZT0ic3Ryb2tlOiMxODE4MTg7c3Ryb2tlLXdpZHRoOjE7c3Ryb2tlLWRhc2hhcnJheToyLjAsMi4wOyIgeDE9IjI1Mi41IiB4Mj0iNDgzLjUiIHkxPSIxNjUuNzI2NiIgeTI9IjE2NS43MjY2Ii8+PHRleHQgZmlsbD0iIzAwMDAwMCIgZm9udC1mYW1pbHk9InNhbnMtc2VyaWYiIGZvbnQtc2l6ZT0iMTMiIGxlbmd0aEFkanVzdD0ic3BhY2luZyIgdGV4dExlbmd0aD0iMTE3IiB4PSIyNjQuNSIgeT0iMTYyLjEwMTYiPlJldHVybiBiYXNlIHJlY2lwZTwvdGV4dD48L2c+PGcgY2xhc3M9Im1lc3NhZ2UiIGRhdGEtcGFydGljaXBhbnQtMT0iWXVtQUkiIGRhdGEtcGFydGljaXBhbnQtMj0iUmVjaXBlIj48cG9seWdvbiBmaWxsPSIjMTgxODE4IiBwb2ludHM9IjM5NiwxODkuNjQwNiw0MDYsMTkzLjY0MDYsMzk2LDE5Ny42NDA2LDQwMCwxOTMuNjQwNiIgc3R5bGU9InN0cm9rZTojMTgxODE4O3N0cm9rZS13aWR0aDoxOyIvPjxsaW5lIHN0eWxlPSJzdHJva2U6IzE4MTgxODtzdHJva2Utd2lkdGg6MTsiIHgxPSIyNDcuNSIgeDI9IjQwMiIgeTE9IjE5My42NDA2IiB5Mj0iMTkzLjY0MDYiLz48dGV4dCBmaWxsPSIjMDAwMDAwIiBmb250LWZhbWlseT0ic2Fucy1zZXJpZiIgZm9udC1zaXplPSIxMyIgbGVuZ3RoQWRqdXN0PSJzcGFjaW5nIiB0ZXh0TGVuZ3RoPSIxMjMuNSIgeD0iMjU0LjUiIHk9IjE5MC4wMTU2Ij5Jbml0aWFsaXplIHRlbXBsYXRlPC90ZXh0PjwvZz48ZyBjbGFzcz0ibWVzc2FnZSIgZGF0YS1wYXJ0aWNpcGFudC0xPSJZdW1BSSIgZGF0YS1wYXJ0aWNpcGFudC0yPSJJbnZlbnRvcnkiPjxwb2x5Z29uIGZpbGw9IiMxODE4MTgiIHBvaW50cz0iNTU5LjUsMjE3LjU1NDcsNTY5LjUsMjIxLjU1NDcsNTU5LjUsMjI1LjU1NDcsNTYzLjUsMjIxLjU1NDciIHN0eWxlPSJzdHJva2U6IzE4MTgxODtzdHJva2Utd2lkdGg6MTsiLz48bGluZSBzdHlsZT0ic3Ryb2tlOiMxODE4MTg7c3Ryb2tlLXdpZHRoOjE7IiB4MT0iMjQ3LjUiIHgyPSI1NjUuNSIgeTE9IjIyMS41NTQ3IiB5Mj0iMjIxLjU1NDciLz48dGV4dCBmaWxsPSIjMDAwMDAwIiBmb250LWZhbWlseT0ic2Fucy1zZXJpZiIgZm9udC1zaXplPSIxMyIgbGVuZ3RoQWRqdXN0PSJzcGFjaW5nIiB0ZXh0TGVuZ3RoPSIxODguNSIgeD0iMjU0LjUiIHk9IjIxNy45Mjk3Ij5DaGVjayBpbmdyZWRpZW50IGF2YWlsYWJpbGl0eTwvdGV4dD48L2c+PGcgY2xhc3M9Im1lc3NhZ2UiIGRhdGEtcGFydGljaXBhbnQtMT0iSW52ZW50b3J5IiBkYXRhLXBhcnRpY2lwYW50LTI9Ill1bUFJIj48cG9seWdvbiBmaWxsPSIjMTgxODE4IiBwb2ludHM9IjI1OC41LDI0NS40Njg4LDI0OC41LDI0OS40Njg4LDI1OC41LDI1My40Njg4LDI1NC41LDI0OS40Njg4IiBzdHlsZT0ic3Ryb2tlOiMxODE4MTg7c3Ryb2tlLXdpZHRoOjE7Ii8+PGxpbmUgc3R5bGU9InN0cm9rZTojMTgxODE4O3N0cm9rZS13aWR0aDoxO3N0cm9rZS1kYXNoYXJyYXk6Mi4wLDIuMDsiIHgxPSIyNTIuNSIgeDI9IjU3MC41IiB5MT0iMjQ5LjQ2ODgiIHkyPSIyNDkuNDY4OCIvPjx0ZXh0IGZpbGw9IiMwMDAwMDAiIGZvbnQtZmFtaWx5PSJzYW5zLXNlcmlmIiBmb250LXNpemU9IjEzIiBsZW5ndGhBZGp1c3Q9InNwYWNpbmciIHRleHRMZW5ndGg9Ijc4IiB4PSIyNjQuNSIgeT0iMjQ1Ljg0MzgiPlN0b2NrIHN0YXR1czwvdGV4dD48L2c+PGcgY2xhc3M9Im1lc3NhZ2UiIGRhdGEtcGFydGljaXBhbnQtMT0iWXVtQUkiIGRhdGEtcGFydGljaXBhbnQtMj0iVXNlciI+PHBvbHlnb24gZmlsbD0iIzE4MTgxOCIgcG9pbnRzPSIzMywyNzMuMzgyOCwyMywyNzcuMzgyOCwzMywyODEuMzgyOCwyOSwyNzcuMzgyOCIgc3R5bGU9InN0cm9rZTojMTgxODE4O3N0cm9rZS13aWR0aDoxOyIvPjxsaW5lIHN0eWxlPSJzdHJva2U6IzE4MTgxODtzdHJva2Utd2lkdGg6MTtzdHJva2UtZGFzaGFycmF5OjIuMCwyLjA7IiB4MT0iMjciIHgyPSIyNDYuNSIgeTE9IjI3Ny4zODI4IiB5Mj0iMjc3LjM4MjgiLz48dGV4dCBmaWxsPSIjMDAwMDAwIiBmb250LWZhbWlseT0ic2Fucy1zZXJpZiIgZm9udC1zaXplPSIxMyIgbGVuZ3RoQWRqdXN0PSJzcGFjaW5nIiB0ZXh0TGVuZ3RoPSIyMDEuNSIgeD0iMzkiIHk9IjI3My43NTc4Ij5EaXNwbGF5IGVkaXRvciB3aXRoIHN1Z2dlc3Rpb25zPC90ZXh0PjwvZz48ZyBjbGFzcz0ibWVzc2FnZSIgZGF0YS1wYXJ0aWNpcGFudC0xPSJVc2VyIiBkYXRhLXBhcnRpY2lwYW50LTI9IlJlY2lwZSI+PHBvbHlnb24gZmlsbD0iIzE4MTgxOCIgcG9pbnRzPSIzOTYsMzAxLjI5NjksNDA2LDMwNS4yOTY5LDM5NiwzMDkuMjk2OSw0MDAsMzA1LjI5NjkiIHN0eWxlPSJzdHJva2U6IzE4MTgxODtzdHJva2Utd2lkdGg6MTsiLz48bGluZSBzdHlsZT0ic3Ryb2tlOiMxODE4MTg7c3Ryb2tlLXdpZHRoOjE7IiB4MT0iMjIiIHgyPSI0MDIiIHkxPSIzMDUuMjk2OSIgeTI9IjMwNS4yOTY5Ii8+PHRleHQgZmlsbD0iIzAwMDAwMCIgZm9udC1mYW1pbHk9InNhbnMtc2VyaWYiIGZvbnQtc2l6ZT0iMTMiIGxlbmd0aEFkanVzdD0ic3BhY2luZyIgdGV4dExlbmd0aD0iMTQzIiB4PSIyOSIgeT0iMzAxLjY3MTkiPkFkZCBjdXN0b20gaW5ncmVkaWVudHM8L3RleHQ+PC9nPjxnIGNsYXNzPSJtZXNzYWdlIiBkYXRhLXBhcnRpY2lwYW50LTE9IlJlY2lwZSIgZGF0YS1wYXJ0aWNpcGFudC0yPSJZdW1BSSI+PHBvbHlnb24gZmlsbD0iIzE4MTgxOCIgcG9pbnRzPSIyNTguNSwzMjkuMjEwOSwyNDguNSwzMzMuMjEwOSwyNTguNSwzMzcuMjEwOSwyNTQuNSwzMzMuMjEwOSIgc3R5bGU9InN0cm9rZTojMTgxODE4O3N0cm9rZS13aWR0aDoxOyIvPjxsaW5lIHN0eWxlPSJzdHJva2U6IzE4MTgxODtzdHJva2Utd2lkdGg6MTsiIHgxPSIyNTIuNSIgeDI9IjQwNyIgeTE9IjMzMy4yMTA5IiB5Mj0iMzMzLjIxMDkiLz48dGV4dCBmaWxsPSIjMDAwMDAwIiBmb250LWZhbWlseT0ic2Fucy1zZXJpZiIgZm9udC1zaXplPSIxMyIgbGVuZ3RoQWRqdXN0PSJzcGFjaW5nIiB0ZXh0TGVuZ3RoPSIxMzYuNSIgeD0iMjY0LjUiIHk9IjMyOS41ODU5Ij5TYXZlIGZpbmFsaXplZCByZWNpcGU8L3RleHQ+PC9nPjwhLS1TUkM9W05QMG5TZUQwMzROeEZPS2t1MGpHUDhQOUtqMmFpMlQ1Z2VtQzJqTzQxNXZmeVAzSkh2WTA4SEt4X3VrZF91TWJUSDdVYk1CZUNIZ050QUNPVkFHc0J0UkFhVm4xRW9hbEZiLWJQamNoWEdtYTNYcjNjQjFtVTlmZjZKbjdHWUR1ZXpqMmtubEpuOGhBdEJlY0tXRERUVXJWeGFKM1FpRlhXSmtJZklYbUhZTThfdFdwRl9DbVI4bURfbjBPak50Wi1uejNRckFGVGc3bzZyWmdJMU14MjNXV0R0WmNYY3FDdy0xc19TYXdfcUtEQlVkMlQ3VmdkQzRCZ295Um1NZEpWTXppYnJzWHZKOUJwaG9nZTRuZ05SaTllTTZzRG9TeXVLM21uTkFsTEZ0TF9XSzBdLS0+PC9nPjwvc3ZnPg==;" vertex="1" parent="1">
            <mxGeometry x="-580" y="750" width="616" height="430" as="geometry" />
          </mxCell>
        </UserObject>
        <mxCell id="UhCZ1_yWcIaTT6cPaHG9-6" value="SEQUENCE DIAGRAM" style="text;html=1;align=center;verticalAlign=middle;whiteSpace=wrap;rounded=0;" vertex="1" parent="1">
          <mxGeometry x="-347" y="720" width="150" height="30" as="geometry" />
        </mxCell>
        <UserObject label="" plantUmlData="{&#xa;  &quot;data&quot;: &quot;@startuml\nclass User {\n  -userId: String\n  -name: String\n  -email: String\n  -role: UserRole\n  +register()\n  +login()\n}\n\nenum UserRole {\n  Chef\n  HomeCook\n  Nutritionist\n  Admin\n}\n\nclass Recipe {\n  -recipeId: String\n  -title: String\n  -instructions: String\n  -servings: int\n  +scaleServings()\n  +calculateNutrition()\n  +exportPDF()\n}\n\nclass Ingredient {\n  -ingredientId: String\n  -name: String\n  -quantity: double\n  -unit: String\n  -costPerUnit: double\n}\n\nclass NutritionalInfo {\n  -calories: double\n  -protein: double\n  -carbs: double\n  -fat: double\n}\n\nclass Inventory {\n  -ingredient: Ingredient\n  -stockLevel: int\n  -threshold: int\n  +alertLowStock()\n}\n\nclass Comment {\n  -commentId: String\n  -content: String\n  -createdAt: Date\n}\n\nclass Review {\n  -reviewId: String\n  -rating: int\n  -content: String\n  -createdAt: Date\n}\n\nclass Notification {\n  -notificationId: String\n  -message: String\n  -sentAt: Date\n}\n\nclass Authentication {\n  +login(email, password)\n  +logout()\n  +resetPassword()\n}\n\nUser \&quot;1\&quot; -- \&quot;*\&quot; Recipe : creates\nUser \&quot;1\&quot; -- \&quot;*\&quot; Comment : writes\nUser \&quot;1\&quot; -- \&quot;*\&quot; Review : writes\nUser \&quot;1\&quot; -- \&quot;*\&quot; Notification : receives\nUser \&quot;1\&quot; -- \&quot;1\&quot; Authentication : uses\nRecipe \&quot;1\&quot; -- \&quot;*\&quot; Ingredient : contains\nRecipe \&quot;1\&quot; -- \&quot;1\&quot; NutritionalInfo : has\nRecipe \&quot;1\&quot; -- \&quot;*\&quot; Comment : has\nRecipe \&quot;1\&quot; -- \&quot;*\&quot; Review : has\nIngredient \&quot;1\&quot; -- \&quot;1\&quot; Inventory : tracked by\n@enduml\n&quot;,&#xa;  &quot;format&quot;: &quot;svg&quot;&#xa;}" id="UhCZ1_yWcIaTT6cPaHG9-7">
          <mxCell style="shape=image;noLabel=1;verticalAlign=top;aspect=fixed;imageAspect=0;image=data:image/svg+xml,PHN2ZyB4bWxucz0iaHR0cDovL3d3dy53My5vcmcvMjAwMC9zdmciIHhtbG5zOnhsaW5rPSJodHRwOi8vd3d3LnczLm9yZy8xOTk5L3hsaW5rIiBjb250ZW50U3R5bGVUeXBlPSJ0ZXh0L2NzcyIgZGF0YS1kaWFncmFtLXR5cGU9IkNMQVNTIiBoZWlnaHQ9Ijc2MHB4IiBwcmVzZXJ2ZUFzcGVjdFJhdGlvPSJub25lIiBzdHlsZT0id2lkdGg6MTA3NnB4O2hlaWdodDo3NjBweDtiYWNrZ3JvdW5kOiNGRkZGRkY7IiB2ZXJzaW9uPSIxLjEiIHZpZXdCb3g9IjAgMCAxMDc2IDc2MCIgd2lkdGg9IjEwNzZweCIgem9vbUFuZFBhbj0ibWFnbmlmeSI+PGRlZnMvPjxnPjwhLS1jbGFzcyBVc2VyLS0+PGcgY2xhc3M9ImVudGl0eSIgZGF0YS1lbnRpdHk9IlVzZXIiIGRhdGEtc291cmNlLWxpbmU9IjEiIGRhdGEtdWlkPSJlbnQwMDAyIiBpZD0iZW50aXR5X1VzZXIiPjxyZWN0IGZpbGw9IiNGMUYxRjEiIGhlaWdodD0iMTM3LjkwNjMiIHJ4PSIyLjUiIHJ5PSIyLjUiIHN0eWxlPSJzdHJva2U6IzE4MTgxODtzdHJva2Utd2lkdGg6MC41OyIgd2lkdGg9IjEyNCIgeD0iNTM2LjUiIHk9IjciLz48ZWxsaXBzZSBjeD0iNTgwLjMiIGN5PSIyMyIgZmlsbD0iI0FERDFCMiIgcng9IjExIiByeT0iMTEiIHN0eWxlPSJzdHJva2U6IzE4MTgxODtzdHJva2Utd2lkdGg6MTsiLz48cGF0aCBkPSJNNTc3LjkyNSwyNy4yNSBMNTc3LjkyNSwyOSBMNTgyLjg2MjUsMjkgTDU4Mi44NjI1LDI3LjI1IEw1NzcuOTI1LDI3LjI1IFogTTU3OC42MTI1LDI3LjkzNzUgUTU3OC42MTI1LDI3LjkzNzUgNTc4LjYxMjUsMTguNzUgTDU3Ni44NjI1LDE4Ljc1IFE1NzYuODYyNSwxOC43NSA1NzYuODYyNSwyNy45Mzc1IEw1NzguNjEyNSwyNy45Mzc1IFogTTU4Mi4xNzUsMjcuOTM3NSBMNTgzLjkyNSwyNy45Mzc1IFE1ODMuOTI1LDI3LjkzNzUgNTgzLjkyNSwyNS4xMjUgTDU4Mi4xNzUsMjUuMTI1IFE1ODIuMTc1LDI1LjEyNSA1ODIuMTc1LDI3LjkzNzUgWiBNNTgyLjE3NSwxOC43NSBRNTgyLjE3NSwxOC43NSA1ODIuMTc1LDIxLjU2MjUgTDU4My45MjUsMjEuNTYyNSBRNTgzLjkyNSwyMS41NjI1IDU4My45MjUsMTguNzUgTDU4Mi4xNzUsMTguNzUgWiBNNTc3LjkyNSwxOS40Mzc1IEw1ODIuODYyNSwxOS40Mzc1IEw1ODIuODYyNSwxNy42ODc1IEw1NzcuOTI1LDE3LjY4NzUgTDU3Ny45MjUsMTkuNDM3NSBaICIgZmlsbD0iIzAwMDAwMCIvPjx0ZXh0IGZpbGw9IiMwMDAwMDAiIGZvbnQtZmFtaWx5PSJzYW5zLXNlcmlmIiBmb250LXNpemU9IjE0IiBsZW5ndGhBZGp1c3Q9InNwYWNpbmciIHRleHRMZW5ndGg9IjI4IiB4PSI2MDAuNyIgeT0iMjguNzQyMiI+VXNlcjwvdGV4dD48bGluZSBzdHlsZT0ic3Ryb2tlOiMxODE4MTg7c3Ryb2tlLXdpZHRoOjAuNTsiIHgxPSI1MzcuNSIgeDI9IjY1OS41IiB5MT0iMzkiIHkyPSIzOSIvPjxyZWN0IGZpbGw9Im5vbmUiIGhlaWdodD0iNiIgc3R5bGU9InN0cm9rZTojQzgyOTMwO3N0cm9rZS13aWR0aDoxOyIgd2lkdGg9IjYiIHg9IjU0NC41IiB5PSI0OC45OTIyIi8+PHRleHQgZmlsbD0iIzAwMDAwMCIgZm9udC1mYW1pbHk9InNhbnMtc2VyaWYiIGZvbnQtc2l6ZT0iMTQiIGxlbmd0aEFkanVzdD0ic3BhY2luZyIgdGV4dExlbmd0aD0iOTgiIHg9IjU1Ni41IiB5PSI1Ni4yMzQ0Ij51c2VySWQ6IFN0cmluZzwvdGV4dD48cmVjdCBmaWxsPSJub25lIiBoZWlnaHQ9IjYiIHN0eWxlPSJzdHJva2U6I0M4MjkzMDtzdHJva2Utd2lkdGg6MTsiIHdpZHRoPSI2IiB4PSI1NDQuNSIgeT0iNjMuOTc2NiIvPjx0ZXh0IGZpbGw9IiMwMDAwMDAiIGZvbnQtZmFtaWx5PSJzYW5zLXNlcmlmIiBmb250LXNpemU9IjE0IiBsZW5ndGhBZGp1c3Q9InNwYWNpbmciIHRleHRMZW5ndGg9Ijg0IiB4PSI1NTYuNSIgeT0iNzEuMjE4OCI+bmFtZTogU3RyaW5nPC90ZXh0PjxyZWN0IGZpbGw9Im5vbmUiIGhlaWdodD0iNiIgc3R5bGU9InN0cm9rZTojQzgyOTMwO3N0cm9rZS13aWR0aDoxOyIgd2lkdGg9IjYiIHg9IjU0NC41IiB5PSI3OC45NjA5Ii8+PHRleHQgZmlsbD0iIzAwMDAwMCIgZm9udC1mYW1pbHk9InNhbnMtc2VyaWYiIGZvbnQtc2l6ZT0iMTQiIGxlbmd0aEFkanVzdD0ic3BhY2luZyIgdGV4dExlbmd0aD0iOTEiIHg9IjU1Ni41IiB5PSI4Ni4yMDMxIj5lbWFpbDogU3RyaW5nPC90ZXh0PjxyZWN0IGZpbGw9Im5vbmUiIGhlaWdodD0iNiIgc3R5bGU9InN0cm9rZTojQzgyOTMwO3N0cm9rZS13aWR0aDoxOyIgd2lkdGg9IjYiIHg9IjU0NC41IiB5PSI5My45NDUzIi8+PHRleHQgZmlsbD0iIzAwMDAwMCIgZm9udC1mYW1pbHk9InNhbnMtc2VyaWYiIGZvbnQtc2l6ZT0iMTQiIGxlbmd0aEFkanVzdD0ic3BhY2luZyIgdGV4dExlbmd0aD0iOTgiIHg9IjU1Ni41IiB5PSIxMDEuMTg3NSI+cm9sZTogVXNlclJvbGU8L3RleHQ+PGxpbmUgc3R5bGU9InN0cm9rZTojMTgxODE4O3N0cm9rZS13aWR0aDowLjU7IiB4MT0iNTM3LjUiIHgyPSI2NTkuNSIgeTE9IjEwNi45Mzc1IiB5Mj0iMTA2LjkzNzUiLz48ZWxsaXBzZSBjeD0iNTQ3LjUiIGN5PSIxMTkuOTI5NyIgZmlsbD0iIzg0QkU4NCIgcng9IjMiIHJ5PSIzIiBzdHlsZT0ic3Ryb2tlOiMwMzgwNDg7c3Ryb2tlLXdpZHRoOjE7Ii8+PHRleHQgZmlsbD0iIzAwMDAwMCIgZm9udC1mYW1pbHk9InNhbnMtc2VyaWYiIGZvbnQtc2l6ZT0iMTQiIGxlbmd0aEFkanVzdD0ic3BhY2luZyIgdGV4dExlbmd0aD0iNzAiIHg9IjU1Ni41IiB5PSIxMjQuMTcxOSI+cmVnaXN0ZXIoKTwvdGV4dD48ZWxsaXBzZSBjeD0iNTQ3LjUiIGN5PSIxMzQuOTE0MSIgZmlsbD0iIzg0QkU4NCIgcng9IjMiIHJ5PSIzIiBzdHlsZT0ic3Ryb2tlOiMwMzgwNDg7c3Ryb2tlLXdpZHRoOjE7Ii8+PHRleHQgZmlsbD0iIzAwMDAwMCIgZm9udC1mYW1pbHk9InNhbnMtc2VyaWYiIGZvbnQtc2l6ZT0iMTQiIGxlbmd0aEFkanVzdD0ic3BhY2luZyIgdGV4dExlbmd0aD0iNDkiIHg9IjU1Ni41IiB5PSIxMzkuMTU2MyI+bG9naW4oKTwvdGV4dD48L2c+PCEtLWNsYXNzIFVzZXJSb2xlLS0+PGcgY2xhc3M9ImVudGl0eSIgZGF0YS1lbnRpdHk9IlVzZXJSb2xlIiBkYXRhLXNvdXJjZS1saW5lPSIxMCIgZGF0YS11aWQ9ImVudDAwMDMiIGlkPSJlbnRpdHlfVXNlclJvbGUiPjxyZWN0IGZpbGw9IiNGMUYxRjEiIGhlaWdodD0iMTA3LjkzNzUiIHJ4PSIyLjUiIHJ5PSIyLjUiIHN0eWxlPSJzdHJva2U6IzE4MTgxODtzdHJva2Utd2lkdGg6MC41OyIgd2lkdGg9Ijk2IiB4PSI2OTUuNSIgeT0iMjIiLz48ZWxsaXBzZSBjeD0iNzE0LjEiIGN5PSIzOCIgZmlsbD0iI0VCOTM3RiIgcng9IjExIiByeT0iMTEiIHN0eWxlPSJzdHJva2U6IzE4MTgxODtzdHJva2Utd2lkdGg6MTsiLz48cGF0aCBkPSJNNzE3LjcyNSw0NCBMNzE3LjcyNSw0Mi4yNSBMNzEyLjQxMjUsNDIuMjUgUTcxMi40MTI1LDQyLjI1IDcxMi40MTI1LDM4LjY4NzUgTDcxNi42NjI1LDM4LjY4NzUgTDcxNi42NjI1LDM2LjkzNzUgTDcxMi40MTI1LDM2LjkzNzUgTDcxMi40MTI1LDM0LjQzNzUgTDcxNy43MjUsMzQuNDM3NSBMNzE3LjcyNSwzMi42ODc1IEw3MTAuNjYyNSwzMi42ODc1IFE3MTAuNjYyNSwzMi42ODc1IDcxMC42NjI1LDQ0IEw3MTcuNzI1LDQ0IFogIiBmaWxsPSIjMDAwMDAwIi8+PHRleHQgZmlsbD0iIzAwMDAwMCIgZm9udC1mYW1pbHk9InNhbnMtc2VyaWYiIGZvbnQtc2l6ZT0iMTQiIGxlbmd0aEFkanVzdD0ic3BhY2luZyIgdGV4dExlbmd0aD0iNTYiIHg9IjcyOC45IiB5PSI0My43NDIyIj5Vc2VyUm9sZTwvdGV4dD48bGluZSBzdHlsZT0ic3Ryb2tlOiMxODE4MTg7c3Ryb2tlLXdpZHRoOjAuNTsiIHgxPSI2OTYuNSIgeDI9Ijc5MC41IiB5MT0iNTQiIHkyPSI1NCIvPjx0ZXh0IGZpbGw9IiMwMDAwMDAiIGZvbnQtZmFtaWx5PSJzYW5zLXNlcmlmIiBmb250LXNpemU9IjE0IiBsZW5ndGhBZGp1c3Q9InNwYWNpbmciIHRleHRMZW5ndGg9IjI4IiB4PSI3MDEuNSIgeT0iNzEuMjM0NCI+Q2hlZjwvdGV4dD48dGV4dCBmaWxsPSIjMDAwMDAwIiBmb250LWZhbWlseT0ic2Fucy1zZXJpZiIgZm9udC1zaXplPSIxNCIgbGVuZ3RoQWRqdXN0PSJzcGFjaW5nIiB0ZXh0TGVuZ3RoPSI1NiIgeD0iNzAxLjUiIHk9Ijg2LjIxODgiPkhvbWVDb29rPC90ZXh0Pjx0ZXh0IGZpbGw9IiMwMDAwMDAiIGZvbnQtZmFtaWx5PSJzYW5zLXNlcmlmIiBmb250LXNpemU9IjE0IiBsZW5ndGhBZGp1c3Q9InNwYWNpbmciIHRleHRMZW5ndGg9Ijg0IiB4PSI3MDEuNSIgeT0iMTAxLjIwMzEiPk51dHJpdGlvbmlzdDwvdGV4dD48dGV4dCBmaWxsPSIjMDAwMDAwIiBmb250LWZhbWlseT0ic2Fucy1zZXJpZiIgZm9udC1zaXplPSIxNCIgbGVuZ3RoQWRqdXN0PSJzcGFjaW5nIiB0ZXh0TGVuZ3RoPSIzNSIgeD0iNzAxLjUiIHk9IjExNi4xODc1Ij5BZG1pbjwvdGV4dD48bGluZSBzdHlsZT0ic3Ryb2tlOiMxODE4MTg7c3Ryb2tlLXdpZHRoOjAuNTsiIHgxPSI2OTYuNSIgeDI9Ijc5MC41IiB5MT0iMTIxLjkzNzUiIHkyPSIxMjEuOTM3NSIvPjwvZz48IS0tY2xhc3MgUmVjaXBlLS0+PGcgY2xhc3M9ImVudGl0eSIgZGF0YS1lbnRpdHk9IlJlY2lwZSIgZGF0YS1zb3VyY2UtbGluZT0iMTciIGRhdGEtdWlkPSJlbnQwMDA0IiBpZD0iZW50aXR5X1JlY2lwZSI+PHJlY3QgZmlsbD0iI0YxRjFGMSIgaGVpZ2h0PSIxNTIuODkwNiIgcng9IjIuNSIgcnk9IjIuNSIgc3R5bGU9InN0cm9rZTojMTgxODE4O3N0cm9rZS13aWR0aDowLjU7IiB3aWR0aD0iMTY2IiB4PSIzNjIuNSIgeT0iMjIwIi8+PGVsbGlwc2UgY3g9IjQyMC4yNSIgY3k9IjIzNiIgZmlsbD0iI0FERDFCMiIgcng9IjExIiByeT0iMTEiIHN0eWxlPSJzdHJva2U6IzE4MTgxODtzdHJva2Utd2lkdGg6MTsiLz48cGF0aCBkPSJNNDE3Ljg3NSwyNDAuMjUgTDQxNy44NzUsMjQyIEw0MjIuODEyNSwyNDIgTDQyMi44MTI1LDI0MC4yNSBMNDE3Ljg3NSwyNDAuMjUgWiBNNDE4LjU2MjUsMjQwLjkzNzUgUTQxOC41NjI1LDI0MC45Mzc1IDQxOC41NjI1LDIzMS43NSBMNDE2LjgxMjUsMjMxLjc1IFE0MTYuODEyNSwyMzEuNzUgNDE2LjgxMjUsMjQwLjkzNzUgTDQxOC41NjI1LDI0MC45Mzc1IFogTTQyMi4xMjUsMjQwLjkzNzUgTDQyMy44NzUsMjQwLjkzNzUgUTQyMy44NzUsMjQwLjkzNzUgNDIzLjg3NSwyMzguMTI1IEw0MjIuMTI1LDIzOC4xMjUgUTQyMi4xMjUsMjM4LjEyNSA0MjIuMTI1LDI0MC45Mzc1IFogTTQyMi4xMjUsMjMxLjc1IFE0MjIuMTI1LDIzMS43NSA0MjIuMTI1LDIzNC41NjI1IEw0MjMuODc1LDIzNC41NjI1IFE0MjMuODc1LDIzNC41NjI1IDQyMy44NzUsMjMxLjc1IEw0MjIuMTI1LDIzMS43NSBaIE00MTcuODc1LDIzMi40Mzc1IEw0MjIuODEyNSwyMzIuNDM3NSBMNDIyLjgxMjUsMjMwLjY4NzUgTDQxNy44NzUsMjMwLjY4NzUgTDQxNy44NzUsMjMyLjQzNzUgWiAiIGZpbGw9IiMwMDAwMDAiLz48dGV4dCBmaWxsPSIjMDAwMDAwIiBmb250LWZhbWlseT0ic2Fucy1zZXJpZiIgZm9udC1zaXplPSIxNCIgbGVuZ3RoQWRqdXN0PSJzcGFjaW5nIiB0ZXh0TGVuZ3RoPSI0MiIgeD0iNDQwLjc1IiB5PSIyNDEuNzQyMiI+UmVjaXBlPC90ZXh0PjxsaW5lIHN0eWxlPSJzdHJva2U6IzE4MTgxODtzdHJva2Utd2lkdGg6MC41OyIgeDE9IjM2My41IiB4Mj0iNTI3LjUiIHkxPSIyNTIiIHkyPSIyNTIiLz48cmVjdCBmaWxsPSJub25lIiBoZWlnaHQ9IjYiIHN0eWxlPSJzdHJva2U6I0M4MjkzMDtzdHJva2Utd2lkdGg6MTsiIHdpZHRoPSI2IiB4PSIzNzAuNSIgeT0iMjYxLjk5MjIiLz48dGV4dCBmaWxsPSIjMDAwMDAwIiBmb250LWZhbWlseT0ic2Fucy1zZXJpZiIgZm9udC1zaXplPSIxNCIgbGVuZ3RoQWRqdXN0PSJzcGFjaW5nIiB0ZXh0TGVuZ3RoPSIxMTIiIHg9IjM4Mi41IiB5PSIyNjkuMjM0NCI+cmVjaXBlSWQ6IFN0cmluZzwvdGV4dD48cmVjdCBmaWxsPSJub25lIiBoZWlnaHQ9IjYiIHN0eWxlPSJzdHJva2U6I0M4MjkzMDtzdHJva2Utd2lkdGg6MTsiIHdpZHRoPSI2IiB4PSIzNzAuNSIgeT0iMjc2Ljk3NjYiLz48dGV4dCBmaWxsPSIjMDAwMDAwIiBmb250LWZhbWlseT0ic2Fucy1zZXJpZiIgZm9udC1zaXplPSIxNCIgbGVuZ3RoQWRqdXN0PSJzcGFjaW5nIiB0ZXh0TGVuZ3RoPSI5MSIgeD0iMzgyLjUiIHk9IjI4NC4yMTg4Ij50aXRsZTogU3RyaW5nPC90ZXh0PjxyZWN0IGZpbGw9Im5vbmUiIGhlaWdodD0iNiIgc3R5bGU9InN0cm9rZTojQzgyOTMwO3N0cm9rZS13aWR0aDoxOyIgd2lkdGg9IjYiIHg9IjM3MC41IiB5PSIyOTEuOTYwOSIvPjx0ZXh0IGZpbGw9IiMwMDAwMDAiIGZvbnQtZmFtaWx5PSJzYW5zLXNlcmlmIiBmb250LXNpemU9IjE0IiBsZW5ndGhBZGp1c3Q9InNwYWNpbmciIHRleHRMZW5ndGg9IjE0MCIgeD0iMzgyLjUiIHk9IjI5OS4yMDMxIj5pbnN0cnVjdGlvbnM6IFN0cmluZzwvdGV4dD48cmVjdCBmaWxsPSJub25lIiBoZWlnaHQ9IjYiIHN0eWxlPSJzdHJva2U6I0M4MjkzMDtzdHJva2Utd2lkdGg6MTsiIHdpZHRoPSI2IiB4PSIzNzAuNSIgeT0iMzA2Ljk0NTMiLz48dGV4dCBmaWxsPSIjMDAwMDAwIiBmb250LWZhbWlseT0ic2Fucy1zZXJpZiIgZm9udC1zaXplPSIxNCIgbGVuZ3RoQWRqdXN0PSJzcGFjaW5nIiB0ZXh0TGVuZ3RoPSI5MSIgeD0iMzgyLjUiIHk9IjMxNC4xODc1Ij5zZXJ2aW5nczogaW50PC90ZXh0PjxsaW5lIHN0eWxlPSJzdHJva2U6IzE4MTgxODtzdHJva2Utd2lkdGg6MC41OyIgeDE9IjM2My41IiB4Mj0iNTI3LjUiIHkxPSIzMTkuOTM3NSIgeTI9IjMxOS45Mzc1Ii8+PGVsbGlwc2UgY3g9IjM3My41IiBjeT0iMzMyLjkyOTciIGZpbGw9IiM4NEJFODQiIHJ4PSIzIiByeT0iMyIgc3R5bGU9InN0cm9rZTojMDM4MDQ4O3N0cm9rZS13aWR0aDoxOyIvPjx0ZXh0IGZpbGw9IiMwMDAwMDAiIGZvbnQtZmFtaWx5PSJzYW5zLXNlcmlmIiBmb250LXNpemU9IjE0IiBsZW5ndGhBZGp1c3Q9InNwYWNpbmciIHRleHRMZW5ndGg9IjEwNSIgeD0iMzgyLjUiIHk9IjMzNy4xNzE5Ij5zY2FsZVNlcnZpbmdzKCk8L3RleHQ+PGVsbGlwc2UgY3g9IjM3My41IiBjeT0iMzQ3LjkxNDEiIGZpbGw9IiM4NEJFODQiIHJ4PSIzIiByeT0iMyIgc3R5bGU9InN0cm9rZTojMDM4MDQ4O3N0cm9rZS13aWR0aDoxOyIvPjx0ZXh0IGZpbGw9IiMwMDAwMDAiIGZvbnQtZmFtaWx5PSJzYW5zLXNlcmlmIiBmb250LXNpemU9IjE0IiBsZW5ndGhBZGp1c3Q9InNwYWNpbmciIHRleHRMZW5ndGg9IjE0MCIgeD0iMzgyLjUiIHk9IjM1Mi4xNTYzIj5jYWxjdWxhdGVOdXRyaXRpb24oKTwvdGV4dD48ZWxsaXBzZSBjeD0iMzczLjUiIGN5PSIzNjIuODk4NCIgZmlsbD0iIzg0QkU4NCIgcng9IjMiIHJ5PSIzIiBzdHlsZT0ic3Ryb2tlOiMwMzgwNDg7c3Ryb2tlLXdpZHRoOjE7Ii8+PHRleHQgZmlsbD0iIzAwMDAwMCIgZm9udC1mYW1pbHk9InNhbnMtc2VyaWYiIGZvbnQtc2l6ZT0iMTQiIGxlbmd0aEFkanVzdD0ic3BhY2luZyIgdGV4dExlbmd0aD0iNzciIHg9IjM4Mi41IiB5PSIzNjcuMTQwNiI+ZXhwb3J0UERGKCk8L3RleHQ+PC9nPjwhLS1jbGFzcyBJbmdyZWRpZW50LS0+PGcgY2xhc3M9ImVudGl0eSIgZGF0YS1lbnRpdHk9IkluZ3JlZGllbnQiIGRhdGEtc291cmNlLWxpbmU9IjI3IiBkYXRhLXVpZD0iZW50MDAwNSIgaWQ9ImVudGl0eV9JbmdyZWRpZW50Ij48cmVjdCBmaWxsPSIjRjFGMUYxIiBoZWlnaHQ9IjEyMi45MjE5IiByeD0iMi41IiByeT0iMi41IiBzdHlsZT0ic3Ryb2tlOiMxODE4MTg7c3Ryb2tlLXdpZHRoOjAuNTsiIHdpZHRoPSIxNjYiIHg9IjE4Ny41IiB5PSI0NDgiLz48ZWxsaXBzZSBjeD0iMjMxLjMiIGN5PSI0NjQiIGZpbGw9IiNBREQxQjIiIHJ4PSIxMSIgcnk9IjExIiBzdHlsZT0ic3Ryb2tlOiMxODE4MTg7c3Ryb2tlLXdpZHRoOjE7Ii8+PHBhdGggZD0iTTIyOC45MjUsNDY4LjI1IEwyMjguOTI1LDQ3MCBMMjMzLjg2MjUsNDcwIEwyMzMuODYyNSw0NjguMjUgTDIyOC45MjUsNDY4LjI1IFogTTIyOS42MTI1LDQ2OC45Mzc1IFEyMjkuNjEyNSw0NjguOTM3NSAyMjkuNjEyNSw0NTkuNzUgTDIyNy44NjI1LDQ1OS43NSBRMjI3Ljg2MjUsNDU5Ljc1IDIyNy44NjI1LDQ2OC45Mzc1IEwyMjkuNjEyNSw0NjguOTM3NSBaIE0yMzMuMTc1LDQ2OC45Mzc1IEwyMzQuOTI1LDQ2OC45Mzc1IFEyMzQuOTI1LDQ2OC45Mzc1IDIzNC45MjUsNDY2LjEyNSBMMjMzLjE3NSw0NjYuMTI1IFEyMzMuMTc1LDQ2Ni4xMjUgMjMzLjE3NSw0NjguOTM3NSBaIE0yMzMuMTc1LDQ1OS43NSBRMjMzLjE3NSw0NTkuNzUgMjMzLjE3NSw0NjIuNTYyNSBMMjM0LjkyNSw0NjIuNTYyNSBRMjM0LjkyNSw0NjIuNTYyNSAyMzQuOTI1LDQ1OS43NSBMMjMzLjE3NSw0NTkuNzUgWiBNMjI4LjkyNSw0NjAuNDM3NSBMMjMzLjg2MjUsNDYwLjQzNzUgTDIzMy44NjI1LDQ1OC42ODc1IEwyMjguOTI1LDQ1OC42ODc1IEwyMjguOTI1LDQ2MC40Mzc1IFogIiBmaWxsPSIjMDAwMDAwIi8+PHRleHQgZmlsbD0iIzAwMDAwMCIgZm9udC1mYW1pbHk9InNhbnMtc2VyaWYiIGZvbnQtc2l6ZT0iMTQiIGxlbmd0aEFkanVzdD0ic3BhY2luZyIgdGV4dExlbmd0aD0iNzAiIHg9IjI1MS43IiB5PSI0NjkuNzQyMiI+SW5ncmVkaWVudDwvdGV4dD48bGluZSBzdHlsZT0ic3Ryb2tlOiMxODE4MTg7c3Ryb2tlLXdpZHRoOjAuNTsiIHgxPSIxODguNSIgeDI9IjM1Mi41IiB5MT0iNDgwIiB5Mj0iNDgwIi8+PHJlY3QgZmlsbD0ibm9uZSIgaGVpZ2h0PSI2IiBzdHlsZT0ic3Ryb2tlOiNDODI5MzA7c3Ryb2tlLXdpZHRoOjE7IiB3aWR0aD0iNiIgeD0iMTk1LjUiIHk9IjQ4OS45OTIyIi8+PHRleHQgZmlsbD0iIzAwMDAwMCIgZm9udC1mYW1pbHk9InNhbnMtc2VyaWYiIGZvbnQtc2l6ZT0iMTQiIGxlbmd0aEFkanVzdD0ic3BhY2luZyIgdGV4dExlbmd0aD0iMTQwIiB4PSIyMDcuNSIgeT0iNDk3LjIzNDQiPmluZ3JlZGllbnRJZDogU3RyaW5nPC90ZXh0PjxyZWN0IGZpbGw9Im5vbmUiIGhlaWdodD0iNiIgc3R5bGU9InN0cm9rZTojQzgyOTMwO3N0cm9rZS13aWR0aDoxOyIgd2lkdGg9IjYiIHg9IjE5NS41IiB5PSI1MDQuOTc2NiIvPjx0ZXh0IGZpbGw9IiMwMDAwMDAiIGZvbnQtZmFtaWx5PSJzYW5zLXNlcmlmIiBmb250LXNpemU9IjE0IiBsZW5ndGhBZGp1c3Q9InNwYWNpbmciIHRleHRMZW5ndGg9Ijg0IiB4PSIyMDcuNSIgeT0iNTEyLjIxODgiPm5hbWU6IFN0cmluZzwvdGV4dD48cmVjdCBmaWxsPSJub25lIiBoZWlnaHQ9IjYiIHN0eWxlPSJzdHJva2U6I0M4MjkzMDtzdHJva2Utd2lkdGg6MTsiIHdpZHRoPSI2IiB4PSIxOTUuNSIgeT0iNTE5Ljk2MDkiLz48dGV4dCBmaWxsPSIjMDAwMDAwIiBmb250LWZhbWlseT0ic2Fucy1zZXJpZiIgZm9udC1zaXplPSIxNCIgbGVuZ3RoQWRqdXN0PSJzcGFjaW5nIiB0ZXh0TGVuZ3RoPSIxMTIiIHg9IjIwNy41IiB5PSI1MjcuMjAzMSI+cXVhbnRpdHk6IGRvdWJsZTwvdGV4dD48cmVjdCBmaWxsPSJub25lIiBoZWlnaHQ9IjYiIHN0eWxlPSJzdHJva2U6I0M4MjkzMDtzdHJva2Utd2lkdGg6MTsiIHdpZHRoPSI2IiB4PSIxOTUuNSIgeT0iNTM0Ljk0NTMiLz48dGV4dCBmaWxsPSIjMDAwMDAwIiBmb250LWZhbWlseT0ic2Fucy1zZXJpZiIgZm9udC1zaXplPSIxNCIgbGVuZ3RoQWRqdXN0PSJzcGFjaW5nIiB0ZXh0TGVuZ3RoPSI4NCIgeD0iMjA3LjUiIHk9IjU0Mi4xODc1Ij51bml0OiBTdHJpbmc8L3RleHQ+PHJlY3QgZmlsbD0ibm9uZSIgaGVpZ2h0PSI2IiBzdHlsZT0ic3Ryb2tlOiNDODI5MzA7c3Ryb2tlLXdpZHRoOjE7IiB3aWR0aD0iNiIgeD0iMTk1LjUiIHk9IjU0OS45Mjk3Ii8+PHRleHQgZmlsbD0iIzAwMDAwMCIgZm9udC1mYW1pbHk9InNhbnMtc2VyaWYiIGZvbnQtc2l6ZT0iMTQiIGxlbmd0aEFkanVzdD0ic3BhY2luZyIgdGV4dExlbmd0aD0iMTMzIiB4PSIyMDcuNSIgeT0iNTU3LjE3MTkiPmNvc3RQZXJVbml0OiBkb3VibGU8L3RleHQ+PGxpbmUgc3R5bGU9InN0cm9rZTojMTgxODE4O3N0cm9rZS13aWR0aDowLjU7IiB4MT0iMTg4LjUiIHgyPSIzNTIuNSIgeTE9IjU2Mi45MjE5IiB5Mj0iNTYyLjkyMTkiLz48L2c+PCEtLWNsYXNzIE51dHJpdGlvbmFsSW5mby0tPjxnIGNsYXNzPSJlbnRpdHkiIGRhdGEtZW50aXR5PSJOdXRyaXRpb25hbEluZm8iIGRhdGEtc291cmNlLWxpbmU9IjM1IiBkYXRhLXVpZD0iZW50MDAwNiIgaWQ9ImVudGl0eV9OdXRyaXRpb25hbEluZm8iPjxyZWN0IGZpbGw9IiNGMUYxRjEiIGhlaWdodD0iMTA3LjkzNzUiIHJ4PSIyLjUiIHJ5PSIyLjUiIHN0eWxlPSJzdHJva2U6IzE4MTgxODtzdHJva2Utd2lkdGg6MC41OyIgd2lkdGg9IjEzOCIgeD0iMzg4LjUiIHk9IjQ1NS41Ii8+PGVsbGlwc2UgY3g9IjQwMy45NSIgY3k9IjQ3MS41IiBmaWxsPSIjQUREMUIyIiByeD0iMTEiIHJ5PSIxMSIgc3R5bGU9InN0cm9rZTojMTgxODE4O3N0cm9rZS13aWR0aDoxOyIvPjxwYXRoIGQ9Ik00MDEuNTc1LDQ3NS43NSBMNDAxLjU3NSw0NzcuNSBMNDA2LjUxMjUsNDc3LjUgTDQwNi41MTI1LDQ3NS43NSBMNDAxLjU3NSw0NzUuNzUgWiBNNDAyLjI2MjUsNDc2LjQzNzUgUTQwMi4yNjI1LDQ3Ni40Mzc1IDQwMi4yNjI1LDQ2Ny4yNSBMNDAwLjUxMjUsNDY3LjI1IFE0MDAuNTEyNSw0NjcuMjUgNDAwLjUxMjUsNDc2LjQzNzUgTDQwMi4yNjI1LDQ3Ni40Mzc1IFogTTQwNS44MjUsNDc2LjQzNzUgTDQwNy41NzUsNDc2LjQzNzUgUTQwNy41NzUsNDc2LjQzNzUgNDA3LjU3NSw0NzMuNjI1IEw0MDUuODI1LDQ3My42MjUgUTQwNS44MjUsNDczLjYyNSA0MDUuODI1LDQ3Ni40Mzc1IFogTTQwNS44MjUsNDY3LjI1IFE0MDUuODI1LDQ2Ny4yNSA0MDUuODI1LDQ3MC4wNjI1IEw0MDcuNTc1LDQ3MC4wNjI1IFE0MDcuNTc1LDQ3MC4wNjI1IDQwNy41NzUsNDY3LjI1IEw0MDUuODI1LDQ2Ny4yNSBaIE00MDEuNTc1LDQ2Ny45Mzc1IEw0MDYuNTEyNSw0NjcuOTM3NSBMNDA2LjUxMjUsNDY2LjE4NzUgTDQwMS41NzUsNDY2LjE4NzUgTDQwMS41NzUsNDY3LjkzNzUgWiAiIGZpbGw9IiMwMDAwMDAiLz48dGV4dCBmaWxsPSIjMDAwMDAwIiBmb250LWZhbWlseT0ic2Fucy1zZXJpZiIgZm9udC1zaXplPSIxNCIgbGVuZ3RoQWRqdXN0PSJzcGFjaW5nIiB0ZXh0TGVuZ3RoPSIxMDUiIHg9IjQxOC4wNSIgeT0iNDc3LjI0MjIiPk51dHJpdGlvbmFsSW5mbzwvdGV4dD48bGluZSBzdHlsZT0ic3Ryb2tlOiMxODE4MTg7c3Ryb2tlLXdpZHRoOjAuNTsiIHgxPSIzODkuNSIgeDI9IjUyNS41IiB5MT0iNDg3LjUiIHkyPSI0ODcuNSIvPjxyZWN0IGZpbGw9Im5vbmUiIGhlaWdodD0iNiIgc3R5bGU9InN0cm9rZTojQzgyOTMwO3N0cm9rZS13aWR0aDoxOyIgd2lkdGg9IjYiIHg9IjM5Ni41IiB5PSI0OTcuNDkyMiIvPjx0ZXh0IGZpbGw9IiMwMDAwMDAiIGZvbnQtZmFtaWx5PSJzYW5zLXNlcmlmIiBmb250LXNpemU9IjE0IiBsZW5ndGhBZGp1c3Q9InNwYWNpbmciIHRleHRMZW5ndGg9IjExMiIgeD0iNDA4LjUiIHk9IjUwNC43MzQ0Ij5jYWxvcmllczogZG91YmxlPC90ZXh0PjxyZWN0IGZpbGw9Im5vbmUiIGhlaWdodD0iNiIgc3R5bGU9InN0cm9rZTojQzgyOTMwO3N0cm9rZS13aWR0aDoxOyIgd2lkdGg9IjYiIHg9IjM5Ni41IiB5PSI1MTIuNDc2NiIvPjx0ZXh0IGZpbGw9IiMwMDAwMDAiIGZvbnQtZmFtaWx5PSJzYW5zLXNlcmlmIiBmb250LXNpemU9IjE0IiBsZW5ndGhBZGp1c3Q9InNwYWNpbmciIHRleHRMZW5ndGg9IjEwNSIgeD0iNDA4LjUiIHk9IjUxOS43MTg4Ij5wcm90ZWluOiBkb3VibGU8L3RleHQ+PHJlY3QgZmlsbD0ibm9uZSIgaGVpZ2h0PSI2IiBzdHlsZT0ic3Ryb2tlOiNDODI5MzA7c3Ryb2tlLXdpZHRoOjE7IiB3aWR0aD0iNiIgeD0iMzk2LjUiIHk9IjUyNy40NjA5Ii8+PHRleHQgZmlsbD0iIzAwMDAwMCIgZm9udC1mYW1pbHk9InNhbnMtc2VyaWYiIGZvbnQtc2l6ZT0iMTQiIGxlbmd0aEFkanVzdD0ic3BhY2luZyIgdGV4dExlbmd0aD0iOTEiIHg9IjQwOC41IiB5PSI1MzQuNzAzMSI+Y2FyYnM6IGRvdWJsZTwvdGV4dD48cmVjdCBmaWxsPSJub25lIiBoZWlnaHQ9IjYiIHN0eWxlPSJzdHJva2U6I0M4MjkzMDtzdHJva2Utd2lkdGg6MTsiIHdpZHRoPSI2IiB4PSIzOTYuNSIgeT0iNTQyLjQ0NTMiLz48dGV4dCBmaWxsPSIjMDAwMDAwIiBmb250LWZhbWlseT0ic2Fucy1zZXJpZiIgZm9udC1zaXplPSIxNCIgbGVuZ3RoQWRqdXN0PSJzcGFjaW5nIiB0ZXh0TGVuZ3RoPSI3NyIgeD0iNDA4LjUiIHk9IjU0OS42ODc1Ij5mYXQ6IGRvdWJsZTwvdGV4dD48bGluZSBzdHlsZT0ic3Ryb2tlOiMxODE4MTg7c3Ryb2tlLXdpZHRoOjAuNTsiIHgxPSIzODkuNSIgeDI9IjUyNS41IiB5MT0iNTU1LjQzNzUiIHkyPSI1NTUuNDM3NSIvPjwvZz48IS0tY2xhc3MgSW52ZW50b3J5LS0+PGcgY2xhc3M9ImVudGl0eSIgZGF0YS1lbnRpdHk9IkludmVudG9yeSIgZGF0YS1zb3VyY2UtbGluZT0iNDIiIGRhdGEtdWlkPSJlbnQwMDA3IiBpZD0iZW50aXR5X0ludmVudG9yeSI+PHJlY3QgZmlsbD0iI0YxRjFGMSIgaGVpZ2h0PSIxMDcuOTM3NSIgcng9IjIuNSIgcnk9IjIuNSIgc3R5bGU9InN0cm9rZTojMTgxODE4O3N0cm9rZS13aWR0aDowLjU7IiB3aWR0aD0iMTgwIiB4PSIxODAuNSIgeT0iNjQ2Ii8+PGVsbGlwc2UgY3g9IjIzNC43NSIgY3k9IjY2MiIgZmlsbD0iI0FERDFCMiIgcng9IjExIiByeT0iMTEiIHN0eWxlPSJzdHJva2U6IzE4MTgxODtzdHJva2Utd2lkdGg6MTsiLz48cGF0aCBkPSJNMjMyLjM3NSw2NjYuMjUgTDIzMi4zNzUsNjY4IEwyMzcuMzEyNSw2NjggTDIzNy4zMTI1LDY2Ni4yNSBMMjMyLjM3NSw2NjYuMjUgWiBNMjMzLjA2MjUsNjY2LjkzNzUgUTIzMy4wNjI1LDY2Ni45Mzc1IDIzMy4wNjI1LDY1Ny43NSBMMjMxLjMxMjUsNjU3Ljc1IFEyMzEuMzEyNSw2NTcuNzUgMjMxLjMxMjUsNjY2LjkzNzUgTDIzMy4wNjI1LDY2Ni45Mzc1IFogTTIzNi42MjUsNjY2LjkzNzUgTDIzOC4zNzUsNjY2LjkzNzUgUTIzOC4zNzUsNjY2LjkzNzUgMjM4LjM3NSw2NjQuMTI1IEwyMzYuNjI1LDY2NC4xMjUgUTIzNi42MjUsNjY0LjEyNSAyMzYuNjI1LDY2Ni45Mzc1IFogTTIzNi42MjUsNjU3Ljc1IFEyMzYuNjI1LDY1Ny43NSAyMzYuNjI1LDY2MC41NjI1IEwyMzguMzc1LDY2MC41NjI1IFEyMzguMzc1LDY2MC41NjI1IDIzOC4zNzUsNjU3Ljc1IEwyMzYuNjI1LDY1Ny43NSBaIE0yMzIuMzc1LDY1OC40Mzc1IEwyMzcuMzEyNSw2NTguNDM3NSBMMjM3LjMxMjUsNjU2LjY4NzUgTDIzMi4zNzUsNjU2LjY4NzUgTDIzMi4zNzUsNjU4LjQzNzUgWiAiIGZpbGw9IiMwMDAwMDAiLz48dGV4dCBmaWxsPSIjMDAwMDAwIiBmb250LWZhbWlseT0ic2Fucy1zZXJpZiIgZm9udC1zaXplPSIxNCIgbGVuZ3RoQWRqdXN0PSJzcGFjaW5nIiB0ZXh0TGVuZ3RoPSI2MyIgeD0iMjU1LjI1IiB5PSI2NjcuNzQyMiI+SW52ZW50b3J5PC90ZXh0PjxsaW5lIHN0eWxlPSJzdHJva2U6IzE4MTgxODtzdHJva2Utd2lkdGg6MC41OyIgeDE9IjE4MS41IiB4Mj0iMzU5LjUiIHkxPSI2NzgiIHkyPSI2NzgiLz48cmVjdCBmaWxsPSJub25lIiBoZWlnaHQ9IjYiIHN0eWxlPSJzdHJva2U6I0M4MjkzMDtzdHJva2Utd2lkdGg6MTsiIHdpZHRoPSI2IiB4PSIxODguNSIgeT0iNjg3Ljk5MjIiLz48dGV4dCBmaWxsPSIjMDAwMDAwIiBmb250LWZhbWlseT0ic2Fucy1zZXJpZiIgZm9udC1zaXplPSIxNCIgbGVuZ3RoQWRqdXN0PSJzcGFjaW5nIiB0ZXh0TGVuZ3RoPSIxNTQiIHg9IjIwMC41IiB5PSI2OTUuMjM0NCI+aW5ncmVkaWVudDogSW5ncmVkaWVudDwvdGV4dD48cmVjdCBmaWxsPSJub25lIiBoZWlnaHQ9IjYiIHN0eWxlPSJzdHJva2U6I0M4MjkzMDtzdHJva2Utd2lkdGg6MTsiIHdpZHRoPSI2IiB4PSIxODguNSIgeT0iNzAyLjk3NjYiLz48dGV4dCBmaWxsPSIjMDAwMDAwIiBmb250LWZhbWlseT0ic2Fucy1zZXJpZiIgZm9udC1zaXplPSIxNCIgbGVuZ3RoQWRqdXN0PSJzcGFjaW5nIiB0ZXh0TGVuZ3RoPSIxMDUiIHg9IjIwMC41IiB5PSI3MTAuMjE4OCI+c3RvY2tMZXZlbDogaW50PC90ZXh0PjxyZWN0IGZpbGw9Im5vbmUiIGhlaWdodD0iNiIgc3R5bGU9InN0cm9rZTojQzgyOTMwO3N0cm9rZS13aWR0aDoxOyIgd2lkdGg9IjYiIHg9IjE4OC41IiB5PSI3MTcuOTYwOSIvPjx0ZXh0IGZpbGw9IiMwMDAwMDAiIGZvbnQtZmFtaWx5PSJzYW5zLXNlcmlmIiBmb250LXNpemU9IjE0IiBsZW5ndGhBZGp1c3Q9InNwYWNpbmciIHRleHRMZW5ndGg9Ijk4IiB4PSIyMDAuNSIgeT0iNzI1LjIwMzEiPnRocmVzaG9sZDogaW50PC90ZXh0PjxsaW5lIHN0eWxlPSJzdHJva2U6IzE4MTgxODtzdHJva2Utd2lkdGg6MC41OyIgeDE9IjE4MS41IiB4Mj0iMzU5LjUiIHkxPSI3MzAuOTUzMSIgeTI9IjczMC45NTMxIi8+PGVsbGlwc2UgY3g9IjE5MS41IiBjeT0iNzQzLjk0NTMiIGZpbGw9IiM4NEJFODQiIHJ4PSIzIiByeT0iMyIgc3R5bGU9InN0cm9rZTojMDM4MDQ4O3N0cm9rZS13aWR0aDoxOyIvPjx0ZXh0IGZpbGw9IiMwMDAwMDAiIGZvbnQtZmFtaWx5PSJzYW5zLXNlcmlmIiBmb250LXNpemU9IjE0IiBsZW5ndGhBZGp1c3Q9InNwYWNpbmciIHRleHRMZW5ndGg9IjEwNSIgeD0iMjAwLjUiIHk9Ijc0OC4xODc1Ij5hbGVydExvd1N0b2NrKCk8L3RleHQ+PC9nPjwhLS1jbGFzcyBDb21tZW50LS0+PGcgY2xhc3M9ImVudGl0eSIgZGF0YS1lbnRpdHk9IkNvbW1lbnQiIGRhdGEtc291cmNlLWxpbmU9IjQ5IiBkYXRhLXVpZD0iZW50MDAwOCIgaWQ9ImVudGl0eV9Db21tZW50Ij48cmVjdCBmaWxsPSIjRjFGMUYxIiBoZWlnaHQ9IjkyLjk1MzEiIHJ4PSIyLjUiIHJ5PSIyLjUiIHN0eWxlPSJzdHJva2U6IzE4MTgxODtzdHJva2Utd2lkdGg6MC41OyIgd2lkdGg9IjE0NSIgeD0iNyIgeT0iNDYzIi8+PGVsbGlwc2UgY3g9IjUwLjgiIGN5PSI0NzkiIGZpbGw9IiNBREQxQjIiIHJ4PSIxMSIgcnk9IjExIiBzdHlsZT0ic3Ryb2tlOiMxODE4MTg7c3Ryb2tlLXdpZHRoOjE7Ii8+PHBhdGggZD0iTTQ4LjQyNSw0ODMuMjUgTDQ4LjQyNSw0ODUgTDUzLjM2MjUsNDg1IEw1My4zNjI1LDQ4My4yNSBMNDguNDI1LDQ4My4yNSBaIE00OS4xMTI1LDQ4My45Mzc1IFE0OS4xMTI1LDQ4My45Mzc1IDQ5LjExMjUsNDc0Ljc1IEw0Ny4zNjI1LDQ3NC43NSBRNDcuMzYyNSw0NzQuNzUgNDcuMzYyNSw0ODMuOTM3NSBMNDkuMTEyNSw0ODMuOTM3NSBaIE01Mi42NzUsNDgzLjkzNzUgTDU0LjQyNSw0ODMuOTM3NSBRNTQuNDI1LDQ4My45Mzc1IDU0LjQyNSw0ODEuMTI1IEw1Mi42NzUsNDgxLjEyNSBRNTIuNjc1LDQ4MS4xMjUgNTIuNjc1LDQ4My45Mzc1IFogTTUyLjY3NSw0NzQuNzUgUTUyLjY3NSw0NzQuNzUgNTIuNjc1LDQ3Ny41NjI1IEw1NC40MjUsNDc3LjU2MjUgUTU0LjQyNSw0NzcuNTYyNSA1NC40MjUsNDc0Ljc1IEw1Mi42NzUsNDc0Ljc1IFogTTQ4LjQyNSw0NzUuNDM3NSBMNTMuMzYyNSw0NzUuNDM3NSBMNTMuMzYyNSw0NzMuNjg3NSBMNDguNDI1LDQ3My42ODc1IEw0OC40MjUsNDc1LjQzNzUgWiAiIGZpbGw9IiMwMDAwMDAiLz48dGV4dCBmaWxsPSIjMDAwMDAwIiBmb250LWZhbWlseT0ic2Fucy1zZXJpZiIgZm9udC1zaXplPSIxNCIgbGVuZ3RoQWRqdXN0PSJzcGFjaW5nIiB0ZXh0TGVuZ3RoPSI0OSIgeD0iNzEuMiIgeT0iNDg0Ljc0MjIiPkNvbW1lbnQ8L3RleHQ+PGxpbmUgc3R5bGU9InN0cm9rZTojMTgxODE4O3N0cm9rZS13aWR0aDowLjU7IiB4MT0iOCIgeDI9IjE1MSIgeTE9IjQ5NSIgeTI9IjQ5NSIvPjxyZWN0IGZpbGw9Im5vbmUiIGhlaWdodD0iNiIgc3R5bGU9InN0cm9rZTojQzgyOTMwO3N0cm9rZS13aWR0aDoxOyIgd2lkdGg9IjYiIHg9IjE1IiB5PSI1MDQuOTkyMiIvPjx0ZXh0IGZpbGw9IiMwMDAwMDAiIGZvbnQtZmFtaWx5PSJzYW5zLXNlcmlmIiBmb250LXNpemU9IjE0IiBsZW5ndGhBZGp1c3Q9InNwYWNpbmciIHRleHRMZW5ndGg9IjExOSIgeD0iMjciIHk9IjUxMi4yMzQ0Ij5jb21tZW50SWQ6IFN0cmluZzwvdGV4dD48cmVjdCBmaWxsPSJub25lIiBoZWlnaHQ9IjYiIHN0eWxlPSJzdHJva2U6I0M4MjkzMDtzdHJva2Utd2lkdGg6MTsiIHdpZHRoPSI2IiB4PSIxNSIgeT0iNTE5Ljk3NjYiLz48dGV4dCBmaWxsPSIjMDAwMDAwIiBmb250LWZhbWlseT0ic2Fucy1zZXJpZiIgZm9udC1zaXplPSIxNCIgbGVuZ3RoQWRqdXN0PSJzcGFjaW5nIiB0ZXh0TGVuZ3RoPSIxMDUiIHg9IjI3IiB5PSI1MjcuMjE4OCI+Y29udGVudDogU3RyaW5nPC90ZXh0PjxyZWN0IGZpbGw9Im5vbmUiIGhlaWdodD0iNiIgc3R5bGU9InN0cm9rZTojQzgyOTMwO3N0cm9rZS13aWR0aDoxOyIgd2lkdGg9IjYiIHg9IjE1IiB5PSI1MzQuOTYwOSIvPjx0ZXh0IGZpbGw9IiMwMDAwMDAiIGZvbnQtZmFtaWx5PSJzYW5zLXNlcmlmIiBmb250LXNpemU9IjE0IiBsZW5ndGhBZGp1c3Q9InNwYWNpbmciIHRleHRMZW5ndGg9IjEwNSIgeD0iMjciIHk9IjU0Mi4yMDMxIj5jcmVhdGVkQXQ6IERhdGU8L3RleHQ+PGxpbmUgc3R5bGU9InN0cm9rZTojMTgxODE4O3N0cm9rZS13aWR0aDowLjU7IiB4MT0iOCIgeDI9IjE1MSIgeTE9IjU0Ny45NTMxIiB5Mj0iNTQ3Ljk1MzEiLz48L2c+PCEtLWNsYXNzIFJldmlldy0tPjxnIGNsYXNzPSJlbnRpdHkiIGRhdGEtZW50aXR5PSJSZXZpZXciIGRhdGEtc291cmNlLWxpbmU9IjU1IiBkYXRhLXVpZD0iZW50MDAwOSIgaWQ9ImVudGl0eV9SZXZpZXciPjxyZWN0IGZpbGw9IiNGMUYxRjEiIGhlaWdodD0iMTA3LjkzNzUiIHJ4PSIyLjUiIHJ5PSIyLjUiIHN0eWxlPSJzdHJva2U6IzE4MTgxODtzdHJva2Utd2lkdGg6MC41OyIgd2lkdGg9IjEzOCIgeD0iNTYxLjUiIHk9IjQ1NS41Ii8+PGVsbGlwc2UgY3g9IjYwNS4zIiBjeT0iNDcxLjUiIGZpbGw9IiNBREQxQjIiIHJ4PSIxMSIgcnk9IjExIiBzdHlsZT0ic3Ryb2tlOiMxODE4MTg7c3Ryb2tlLXdpZHRoOjE7Ii8+PHBhdGggZD0iTTYwMi45MjUsNDc1Ljc1IEw2MDIuOTI1LDQ3Ny41IEw2MDcuODYyNSw0NzcuNSBMNjA3Ljg2MjUsNDc1Ljc1IEw2MDIuOTI1LDQ3NS43NSBaIE02MDMuNjEyNSw0NzYuNDM3NSBRNjAzLjYxMjUsNDc2LjQzNzUgNjAzLjYxMjUsNDY3LjI1IEw2MDEuODYyNSw0NjcuMjUgUTYwMS44NjI1LDQ2Ny4yNSA2MDEuODYyNSw0NzYuNDM3NSBMNjAzLjYxMjUsNDc2LjQzNzUgWiBNNjA3LjE3NSw0NzYuNDM3NSBMNjA4LjkyNSw0NzYuNDM3NSBRNjA4LjkyNSw0NzYuNDM3NSA2MDguOTI1LDQ3My42MjUgTDYwNy4xNzUsNDczLjYyNSBRNjA3LjE3NSw0NzMuNjI1IDYwNy4xNzUsNDc2LjQzNzUgWiBNNjA3LjE3NSw0NjcuMjUgUTYwNy4xNzUsNDY3LjI1IDYwNy4xNzUsNDcwLjA2MjUgTDYwOC45MjUsNDcwLjA2MjUgUTYwOC45MjUsNDcwLjA2MjUgNjA4LjkyNSw0NjcuMjUgTDYwNy4xNzUsNDY3LjI1IFogTTYwMi45MjUsNDY3LjkzNzUgTDYwNy44NjI1LDQ2Ny45Mzc1IEw2MDcuODYyNSw0NjYuMTg3NSBMNjAyLjkyNSw0NjYuMTg3NSBMNjAyLjkyNSw0NjcuOTM3NSBaICIgZmlsbD0iIzAwMDAwMCIvPjx0ZXh0IGZpbGw9IiMwMDAwMDAiIGZvbnQtZmFtaWx5PSJzYW5zLXNlcmlmIiBmb250LXNpemU9IjE0IiBsZW5ndGhBZGp1c3Q9InNwYWNpbmciIHRleHRMZW5ndGg9IjQyIiB4PSI2MjUuNyIgeT0iNDc3LjI0MjIiPlJldmlldzwvdGV4dD48bGluZSBzdHlsZT0ic3Ryb2tlOiMxODE4MTg7c3Ryb2tlLXdpZHRoOjAuNTsiIHgxPSI1NjIuNSIgeDI9IjY5OC41IiB5MT0iNDg3LjUiIHkyPSI0ODcuNSIvPjxyZWN0IGZpbGw9Im5vbmUiIGhlaWdodD0iNiIgc3R5bGU9InN0cm9rZTojQzgyOTMwO3N0cm9rZS13aWR0aDoxOyIgd2lkdGg9IjYiIHg9IjU2OS41IiB5PSI0OTcuNDkyMiIvPjx0ZXh0IGZpbGw9IiMwMDAwMDAiIGZvbnQtZmFtaWx5PSJzYW5zLXNlcmlmIiBmb250LXNpemU9IjE0IiBsZW5ndGhBZGp1c3Q9InNwYWNpbmciIHRleHRMZW5ndGg9IjExMiIgeD0iNTgxLjUiIHk9IjUwNC43MzQ0Ij5yZXZpZXdJZDogU3RyaW5nPC90ZXh0PjxyZWN0IGZpbGw9Im5vbmUiIGhlaWdodD0iNiIgc3R5bGU9InN0cm9rZTojQzgyOTMwO3N0cm9rZS13aWR0aDoxOyIgd2lkdGg9IjYiIHg9IjU2OS41IiB5PSI1MTIuNDc2NiIvPjx0ZXh0IGZpbGw9IiMwMDAwMDAiIGZvbnQtZmFtaWx5PSJzYW5zLXNlcmlmIiBmb250LXNpemU9IjE0IiBsZW5ndGhBZGp1c3Q9InNwYWNpbmciIHRleHRMZW5ndGg9Ijc3IiB4PSI1ODEuNSIgeT0iNTE5LjcxODgiPnJhdGluZzogaW50PC90ZXh0PjxyZWN0IGZpbGw9Im5vbmUiIGhlaWdodD0iNiIgc3R5bGU9InN0cm9rZTojQzgyOTMwO3N0cm9rZS13aWR0aDoxOyIgd2lkdGg9IjYiIHg9IjU2OS41IiB5PSI1MjcuNDYwOSIvPjx0ZXh0IGZpbGw9IiMwMDAwMDAiIGZvbnQtZmFtaWx5PSJzYW5zLXNlcmlmIiBmb250LXNpemU9IjE0IiBsZW5ndGhBZGp1c3Q9InNwYWNpbmciIHRleHRMZW5ndGg9IjEwNSIgeD0iNTgxLjUiIHk9IjUzNC43MDMxIj5jb250ZW50OiBTdHJpbmc8L3RleHQ+PHJlY3QgZmlsbD0ibm9uZSIgaGVpZ2h0PSI2IiBzdHlsZT0ic3Ryb2tlOiNDODI5MzA7c3Ryb2tlLXdpZHRoOjE7IiB3aWR0aD0iNiIgeD0iNTY5LjUiIHk9IjU0Mi40NDUzIi8+PHRleHQgZmlsbD0iIzAwMDAwMCIgZm9udC1mYW1pbHk9InNhbnMtc2VyaWYiIGZvbnQtc2l6ZT0iMTQiIGxlbmd0aEFkanVzdD0ic3BhY2luZyIgdGV4dExlbmd0aD0iMTA1IiB4PSI1ODEuNSIgeT0iNTQ5LjY4NzUiPmNyZWF0ZWRBdDogRGF0ZTwvdGV4dD48bGluZSBzdHlsZT0ic3Ryb2tlOiMxODE4MTg7c3Ryb2tlLXdpZHRoOjAuNTsiIHgxPSI1NjIuNSIgeDI9IjY5OC41IiB5MT0iNTU1LjQzNzUiIHkyPSI1NTUuNDM3NSIvPjwvZz48IS0tY2xhc3MgTm90aWZpY2F0aW9uLS0+PGcgY2xhc3M9ImVudGl0eSIgZGF0YS1lbnRpdHk9Ik5vdGlmaWNhdGlvbiIgZGF0YS1zb3VyY2UtbGluZT0iNjIiIGRhdGEtdWlkPSJlbnQwMDEwIiBpZD0iZW50aXR5X05vdGlmaWNhdGlvbiI+PHJlY3QgZmlsbD0iI0YxRjFGMSIgaGVpZ2h0PSI5Mi45NTMxIiByeD0iMi41IiByeT0iMi41IiBzdHlsZT0ic3Ryb2tlOiMxODE4MTg7c3Ryb2tlLXdpZHRoOjAuNTsiIHdpZHRoPSIxODAiIHg9IjY3NC41IiB5PSIyNTAiLz48ZWxsaXBzZSBjeD0iNzE4LjMiIGN5PSIyNjYiIGZpbGw9IiNBREQxQjIiIHJ4PSIxMSIgcnk9IjExIiBzdHlsZT0ic3Ryb2tlOiMxODE4MTg7c3Ryb2tlLXdpZHRoOjE7Ii8+PHBhdGggZD0iTTcxNS45MjUsMjcwLjI1IEw3MTUuOTI1LDI3MiBMNzIwLjg2MjUsMjcyIEw3MjAuODYyNSwyNzAuMjUgTDcxNS45MjUsMjcwLjI1IFogTTcxNi42MTI1LDI3MC45Mzc1IFE3MTYuNjEyNSwyNzAuOTM3NSA3MTYuNjEyNSwyNjEuNzUgTDcxNC44NjI1LDI2MS43NSBRNzE0Ljg2MjUsMjYxLjc1IDcxNC44NjI1LDI3MC45Mzc1IEw3MTYuNjEyNSwyNzAuOTM3NSBaIE03MjAuMTc1LDI3MC45Mzc1IEw3MjEuOTI1LDI3MC45Mzc1IFE3MjEuOTI1LDI3MC45Mzc1IDcyMS45MjUsMjY4LjEyNSBMNzIwLjE3NSwyNjguMTI1IFE3MjAuMTc1LDI2OC4xMjUgNzIwLjE3NSwyNzAuOTM3NSBaIE03MjAuMTc1LDI2MS43NSBRNzIwLjE3NSwyNjEuNzUgNzIwLjE3NSwyNjQuNTYyNSBMNzIxLjkyNSwyNjQuNTYyNSBRNzIxLjkyNSwyNjQuNTYyNSA3MjEuOTI1LDI2MS43NSBMNzIwLjE3NSwyNjEuNzUgWiBNNzE1LjkyNSwyNjIuNDM3NSBMNzIwLjg2MjUsMjYyLjQzNzUgTDcyMC44NjI1LDI2MC42ODc1IEw3MTUuOTI1LDI2MC42ODc1IEw3MTUuOTI1LDI2Mi40Mzc1IFogIiBmaWxsPSIjMDAwMDAwIi8+PHRleHQgZmlsbD0iIzAwMDAwMCIgZm9udC1mYW1pbHk9InNhbnMtc2VyaWYiIGZvbnQtc2l6ZT0iMTQiIGxlbmd0aEFkanVzdD0ic3BhY2luZyIgdGV4dExlbmd0aD0iODQiIHg9IjczOC43IiB5PSIyNzEuNzQyMiI+Tm90aWZpY2F0aW9uPC90ZXh0PjxsaW5lIHN0eWxlPSJzdHJva2U6IzE4MTgxODtzdHJva2Utd2lkdGg6MC41OyIgeDE9IjY3NS41IiB4Mj0iODUzLjUiIHkxPSIyODIiIHkyPSIyODIiLz48cmVjdCBmaWxsPSJub25lIiBoZWlnaHQ9IjYiIHN0eWxlPSJzdHJva2U6I0M4MjkzMDtzdHJva2Utd2lkdGg6MTsiIHdpZHRoPSI2IiB4PSI2ODIuNSIgeT0iMjkxLjk5MjIiLz48dGV4dCBmaWxsPSIjMDAwMDAwIiBmb250LWZhbWlseT0ic2Fucy1zZXJpZiIgZm9udC1zaXplPSIxNCIgbGVuZ3RoQWRqdXN0PSJzcGFjaW5nIiB0ZXh0TGVuZ3RoPSIxNTQiIHg9IjY5NC41IiB5PSIyOTkuMjM0NCI+bm90aWZpY2F0aW9uSWQ6IFN0cmluZzwvdGV4dD48cmVjdCBmaWxsPSJub25lIiBoZWlnaHQ9IjYiIHN0eWxlPSJzdHJva2U6I0M4MjkzMDtzdHJva2Utd2lkdGg6MTsiIHdpZHRoPSI2IiB4PSI2ODIuNSIgeT0iMzA2Ljk3NjYiLz48dGV4dCBmaWxsPSIjMDAwMDAwIiBmb250LWZhbWlseT0ic2Fucy1zZXJpZiIgZm9udC1zaXplPSIxNCIgbGVuZ3RoQWRqdXN0PSJzcGFjaW5nIiB0ZXh0TGVuZ3RoPSIxMDUiIHg9IjY5NC41IiB5PSIzMTQuMjE4OCI+bWVzc2FnZTogU3RyaW5nPC90ZXh0PjxyZWN0IGZpbGw9Im5vbmUiIGhlaWdodD0iNiIgc3R5bGU9InN0cm9rZTojQzgyOTMwO3N0cm9rZS13aWR0aDoxOyIgd2lkdGg9IjYiIHg9IjY4Mi41IiB5PSIzMjEuOTYwOSIvPjx0ZXh0IGZpbGw9IiMwMDAwMDAiIGZvbnQtZmFtaWx5PSJzYW5zLXNlcmlmIiBmb250LXNpemU9IjE0IiBsZW5ndGhBZGp1c3Q9InNwYWNpbmciIHRleHRMZW5ndGg9Ijg0IiB4PSI2OTQuNSIgeT0iMzI5LjIwMzEiPnNlbnRBdDogRGF0ZTwvdGV4dD48bGluZSBzdHlsZT0ic3Ryb2tlOiMxODE4MTg7c3Ryb2tlLXdpZHRoOjAuNTsiIHgxPSI2NzUuNSIgeDI9Ijg1My41IiB5MT0iMzM0Ljk1MzEiIHkyPSIzMzQuOTUzMSIvPjwvZz48IS0tY2xhc3MgQXV0aGVudGljYXRpb24tLT48ZyBjbGFzcz0iZW50aXR5IiBkYXRhLWVudGl0eT0iQXV0aGVudGljYXRpb24iIGRhdGEtc291cmNlLWxpbmU9IjY4IiBkYXRhLXVpZD0iZW50MDAxMSIgaWQ9ImVudGl0eV9BdXRoZW50aWNhdGlvbiI+PHJlY3QgZmlsbD0iI0YxRjFGMSIgaGVpZ2h0PSI5Mi45NTMxIiByeD0iMi41IiByeT0iMi41IiBzdHlsZT0ic3Ryb2tlOiMxODE4MTg7c3Ryb2tlLXdpZHRoOjAuNTsiIHdpZHRoPSIxODAiIHg9Ijg4OS41IiB5PSIyNTAiLz48ZWxsaXBzZSBjeD0iOTI3IiBjeT0iMjY2IiBmaWxsPSIjQUREMUIyIiByeD0iMTEiIHJ5PSIxMSIgc3R5bGU9InN0cm9rZTojMTgxODE4O3N0cm9rZS13aWR0aDoxOyIvPjxwYXRoIGQ9Ik05MjQuNjI1LDI3MC4yNSBMOTI0LjYyNSwyNzIgTDkyOS41NjI1LDI3MiBMOTI5LjU2MjUsMjcwLjI1IEw5MjQuNjI1LDI3MC4yNSBaIE05MjUuMzEyNSwyNzAuOTM3NSBROTI1LjMxMjUsMjcwLjkzNzUgOTI1LjMxMjUsMjYxLjc1IEw5MjMuNTYyNSwyNjEuNzUgUTkyMy41NjI1LDI2MS43NSA5MjMuNTYyNSwyNzAuOTM3NSBMOTI1LjMxMjUsMjcwLjkzNzUgWiBNOTI4Ljg3NSwyNzAuOTM3NSBMOTMwLjYyNSwyNzAuOTM3NSBROTMwLjYyNSwyNzAuOTM3NSA5MzAuNjI1LDI2OC4xMjUgTDkyOC44NzUsMjY4LjEyNSBROTI4Ljg3NSwyNjguMTI1IDkyOC44NzUsMjcwLjkzNzUgWiBNOTI4Ljg3NSwyNjEuNzUgUTkyOC44NzUsMjYxLjc1IDkyOC44NzUsMjY0LjU2MjUgTDkzMC42MjUsMjY0LjU2MjUgUTkzMC42MjUsMjY0LjU2MjUgOTMwLjYyNSwyNjEuNzUgTDkyOC44NzUsMjYxLjc1IFogTTkyNC42MjUsMjYyLjQzNzUgTDkyOS41NjI1LDI2Mi40Mzc1IEw5MjkuNTYyNSwyNjAuNjg3NSBMOTI0LjYyNSwyNjAuNjg3NSBMOTI0LjYyNSwyNjIuNDM3NSBaICIgZmlsbD0iIzAwMDAwMCIvPjx0ZXh0IGZpbGw9IiMwMDAwMDAiIGZvbnQtZmFtaWx5PSJzYW5zLXNlcmlmIiBmb250LXNpemU9IjE0IiBsZW5ndGhBZGp1c3Q9InNwYWNpbmciIHRleHRMZW5ndGg9Ijk4IiB4PSI5NDYiIHk9IjI3MS43NDIyIj5BdXRoZW50aWNhdGlvbjwvdGV4dD48bGluZSBzdHlsZT0ic3Ryb2tlOiMxODE4MTg7c3Ryb2tlLXdpZHRoOjAuNTsiIHgxPSI4OTAuNSIgeDI9IjEwNjguNSIgeTE9IjI4MiIgeTI9IjI4MiIvPjxsaW5lIHN0eWxlPSJzdHJva2U6IzE4MTgxODtzdHJva2Utd2lkdGg6MC41OyIgeDE9Ijg5MC41IiB4Mj0iMTA2OC41IiB5MT0iMjkwIiB5Mj0iMjkwIi8+PGVsbGlwc2UgY3g9IjkwMC41IiBjeT0iMzAyLjk5MjIiIGZpbGw9IiM4NEJFODQiIHJ4PSIzIiByeT0iMyIgc3R5bGU9InN0cm9rZTojMDM4MDQ4O3N0cm9rZS13aWR0aDoxOyIvPjx0ZXh0IGZpbGw9IiMwMDAwMDAiIGZvbnQtZmFtaWx5PSJzYW5zLXNlcmlmIiBmb250LXNpemU9IjE0IiBsZW5ndGhBZGp1c3Q9InNwYWNpbmciIHRleHRMZW5ndGg9IjE1NCIgeD0iOTA5LjUiIHk9IjMwNy4yMzQ0Ij5sb2dpbihlbWFpbCwgcGFzc3dvcmQpPC90ZXh0PjxlbGxpcHNlIGN4PSI5MDAuNSIgY3k9IjMxNy45NzY2IiBmaWxsPSIjODRCRTg0IiByeD0iMyIgcnk9IjMiIHN0eWxlPSJzdHJva2U6IzAzODA0ODtzdHJva2Utd2lkdGg6MTsiLz48dGV4dCBmaWxsPSIjMDAwMDAwIiBmb250LWZhbWlseT0ic2Fucy1zZXJpZiIgZm9udC1zaXplPSIxNCIgbGVuZ3RoQWRqdXN0PSJzcGFjaW5nIiB0ZXh0TGVuZ3RoPSI1NiIgeD0iOTA5LjUiIHk9IjMyMi4yMTg4Ij5sb2dvdXQoKTwvdGV4dD48ZWxsaXBzZSBjeD0iOTAwLjUiIGN5PSIzMzIuOTYwOSIgZmlsbD0iIzg0QkU4NCIgcng9IjMiIHJ5PSIzIiBzdHlsZT0ic3Ryb2tlOiMwMzgwNDg7c3Ryb2tlLXdpZHRoOjE7Ii8+PHRleHQgZmlsbD0iIzAwMDAwMCIgZm9udC1mYW1pbHk9InNhbnMtc2VyaWYiIGZvbnQtc2l6ZT0iMTQiIGxlbmd0aEFkanVzdD0ic3BhY2luZyIgdGV4dExlbmd0aD0iMTA1IiB4PSI5MDkuNSIgeT0iMzM3LjIwMzEiPnJlc2V0UGFzc3dvcmQoKTwvdGV4dD48L2c+PCEtLWxpbmsgVXNlciB0byBSZWNpcGUtLT48ZyBjbGFzcz0ibGluayIgZGF0YS1lbnRpdHktMT0iVXNlciIgZGF0YS1lbnRpdHktMj0iUmVjaXBlIiBkYXRhLXNvdXJjZS1saW5lPSI3NCIgZGF0YS11aWQ9ImxuazEyIiBpZD0ibGlua19Vc2VyX1JlY2lwZSI+PHBhdGggY29kZUxpbmU9Ijc0IiBkPSJNNTQ2Ljk3LDE0NS4xOSBDNTM5LjY4LDE1NS4xMyA1MzIuMzQsMTY1LjI4IDUyNS41LDE3NSBDNTE1LjM4LDE4OS4zOCA1MDQuODIsMjA0LjkgNDk0LjgxLDIxOS44NyIgZmlsbD0ibm9uZSIgaWQ9IlVzZXItUmVjaXBlIiBzdHlsZT0ic3Ryb2tlOiMxODE4MTg7c3Ryb2tlLXdpZHRoOjE7Ii8+PHRleHQgZmlsbD0iIzAwMDAwMCIgZm9udC1mYW1pbHk9InNhbnMtc2VyaWYiIGZvbnQtc2l6ZT0iMTMiIGxlbmd0aEFkanVzdD0ic3BhY2luZyIgdGV4dExlbmd0aD0iNDUuNSIgeD0iNTI2LjUiIHk9IjE4OC4yODkxIj5jcmVhdGVzPC90ZXh0Pjx0ZXh0IGZpbGw9IiMwMDAwMDAiIGZvbnQtZmFtaWx5PSJzYW5zLXNlcmlmIiBmb250LXNpemU9IjEzIiBsZW5ndGhBZGp1c3Q9InNwYWNpbmciIHRleHRMZW5ndGg9IjYuNSIgeD0iNTM1LjM3MjQiIHk9IjE2NS4zMzY2Ij4xPC90ZXh0Pjx0ZXh0IGZpbGw9IiMwMDAwMDAiIGZvbnQtZmFtaWx5PSJzYW5zLXNlcmlmIiBmb250LXNpemU9IjEzIiBsZW5ndGhBZGp1c3Q9InNwYWNpbmciIHRleHRMZW5ndGg9IjYuNSIgeD0iNDkzLjkwMjUiIHk9IjIxMC4xMjI3Ij4qPC90ZXh0PjwvZz48IS0tbGluayBVc2VyIHRvIENvbW1lbnQtLT48ZyBjbGFzcz0ibGluayIgZGF0YS1lbnRpdHktMT0iVXNlciIgZGF0YS1lbnRpdHktMj0iQ29tbWVudCIgZGF0YS1zb3VyY2UtbGluZT0iNzUiIGRhdGEtdWlkPSJsbmsxMyIgaWQ9ImxpbmtfVXNlcl9Db21tZW50Ij48cGF0aCBjb2RlTGluZT0iNzUiIGQ9Ik01MzYuNDgsOTcuNTIgQzQ3My4zMiwxMjAuNSAzNzQuODEsMTYyLjIyIDMwMy41LDIyMCBDMjE2LjQyLDI5MC41NiAxNDIuODEsNDAxLjIxIDEwNS41Nyw0NjIuOTYiIGZpbGw9Im5vbmUiIGlkPSJVc2VyLUNvbW1lbnQiIHN0eWxlPSJzdHJva2U6IzE4MTgxODtzdHJva2Utd2lkdGg6MTsiLz48dGV4dCBmaWxsPSIjMDAwMDAwIiBmb250LWZhbWlseT0ic2Fucy1zZXJpZiIgZm9udC1zaXplPSIxMyIgbGVuZ3RoQWRqdXN0PSJzcGFjaW5nIiB0ZXh0TGVuZ3RoPSIzOSIgeD0iMzA0LjUiIHk9IjMwMi4yODkxIj53cml0ZXM8L3RleHQ+PHRleHQgZmlsbD0iIzAwMDAwMCIgZm9udC1mYW1pbHk9InNhbnMtc2VyaWYiIGZvbnQtc2l6ZT0iMTMiIGxlbmd0aEFkanVzdD0ic3BhY2luZyIgdGV4dExlbmd0aD0iNi41IiB4PSI1MjIuMTgxMyIgeT0iOTguNzk4MSI+MTwvdGV4dD48dGV4dCBmaWxsPSIjMDAwMDAwIiBmb250LWZhbWlseT0ic2Fucy1zZXJpZiIgZm9udC1zaXplPSIxMyIgbGVuZ3RoQWRqdXN0PSJzcGFjaW5nIiB0ZXh0TGVuZ3RoPSI2LjUiIHg9IjEwMy41NzgxIiB5PSI0NTMuMjE1NCI+KjwvdGV4dD48L2c+PCEtLWxpbmsgVXNlciB0byBSZXZpZXctLT48ZyBjbGFzcz0ibGluayIgZGF0YS1lbnRpdHktMT0iVXNlciIgZGF0YS1lbnRpdHktMj0iUmV2aWV3IiBkYXRhLXNvdXJjZS1saW5lPSI3NiIgZGF0YS11aWQ9ImxuazE0IiBpZD0ibGlua19Vc2VyX1JldmlldyI+PHBhdGggY29kZUxpbmU9Ijc2IiBkPSJNNjAxLjM5LDE0NS4yNiBDNjA0LjE5LDIwNS4zIDYwOC45NSwyOTUuMDMgNjE1LjUsMzczIEM2MTcuNzksNDAwLjI0IDYyMS4wNyw0MzAuNDggNjIzLjk3LDQ1NS40NyIgZmlsbD0ibm9uZSIgaWQ9IlVzZXItUmV2aWV3IiBzdHlsZT0ic3Ryb2tlOiMxODE4MTg7c3Ryb2tlLXdpZHRoOjE7Ii8+PHRleHQgZmlsbD0iIzAwMDAwMCIgZm9udC1mYW1pbHk9InNhbnMtc2VyaWYiIGZvbnQtc2l6ZT0iMTMiIGxlbmd0aEFkanVzdD0ic3BhY2luZyIgdGV4dExlbmd0aD0iMzkiIHg9IjYxNi41IiB5PSIzMDIuMjg5MSI+d3JpdGVzPC90ZXh0Pjx0ZXh0IGZpbGw9IiMwMDAwMDAiIGZvbnQtZmFtaWx5PSJzYW5zLXNlcmlmIiBmb250LXNpemU9IjEzIiBsZW5ndGhBZGp1c3Q9InNwYWNpbmciIHRleHRMZW5ndGg9IjYuNSIgeD0iNTk1LjQwNDQiIHk9IjE2NS40MTM4Ij4xPC90ZXh0Pjx0ZXh0IGZpbGw9IiMwMDAwMDAiIGZvbnQtZmFtaWx5PSJzYW5zLXNlcmlmIiBmb250LXNpemU9IjEzIiBsZW5ndGhBZGp1c3Q9InNwYWNpbmciIHRleHRMZW5ndGg9IjYuNSIgeD0iNjE2LjYwNyIgeT0iNDQ1Ljk0MDQiPio8L3RleHQ+PC9nPjwhLS1saW5rIFVzZXIgdG8gTm90aWZpY2F0aW9uLS0+PGcgY2xhc3M9ImxpbmsiIGRhdGEtZW50aXR5LTE9IlVzZXIiIGRhdGEtZW50aXR5LTI9Ik5vdGlmaWNhdGlvbiIgZGF0YS1zb3VyY2UtbGluZT0iNzciIGRhdGEtdWlkPSJsbmsxNSIgaWQ9ImxpbmtfVXNlcl9Ob3RpZmljYXRpb24iPjxwYXRoIGNvZGVMaW5lPSI3NyIgZD0iTTY1MC4zNCwxNDUuMjQgQzY3Ni4yMiwxNzkuMjkgNzA2LjgyLDIxOS41NyA3MjkuODIsMjQ5Ljg1IiBmaWxsPSJub25lIiBpZD0iVXNlci1Ob3RpZmljYXRpb24iIHN0eWxlPSJzdHJva2U6IzE4MTgxODtzdHJva2Utd2lkdGg6MTsiLz48dGV4dCBmaWxsPSIjMDAwMDAwIiBmb250LWZhbWlseT0ic2Fucy1zZXJpZiIgZm9udC1zaXplPSIxMyIgbGVuZ3RoQWRqdXN0PSJzcGFjaW5nIiB0ZXh0TGVuZ3RoPSI1MiIgeD0iNjgyLjUiIHk9IjE4OC4yODkxIj5yZWNlaXZlczwvdGV4dD48dGV4dCBmaWxsPSIjMDAwMDAwIiBmb250LWZhbWlseT0ic2Fucy1zZXJpZiIgZm9udC1zaXplPSIxMyIgbGVuZ3RoQWRqdXN0PSJzcGFjaW5nIiB0ZXh0TGVuZ3RoPSI2LjUiIHg9IjY0OS40MDI0IiB5PSIxNjUuMzkxNyI+MTwvdGV4dD48dGV4dCBmaWxsPSIjMDAwMDAwIiBmb250LWZhbWlseT0ic2Fucy1zZXJpZiIgZm9udC1zaXplPSIxMyIgbGVuZ3RoQWRqdXN0PSJzcGFjaW5nIiB0ZXh0TGVuZ3RoPSI2LjUiIHg9IjcxNy42MjA3IiB5PSIyNDAuNDE1NyI+KjwvdGV4dD48L2c+PCEtLWxpbmsgVXNlciB0byBBdXRoZW50aWNhdGlvbi0tPjxnIGNsYXNzPSJsaW5rIiBkYXRhLWVudGl0eS0xPSJVc2VyIiBkYXRhLWVudGl0eS0yPSJBdXRoZW50aWNhdGlvbiIgZGF0YS1zb3VyY2UtbGluZT0iNzgiIGRhdGEtdWlkPSJsbmsxNiIgaWQ9ImxpbmtfVXNlcl9BdXRoZW50aWNhdGlvbiI+PHBhdGggY29kZUxpbmU9Ijc4IiBkPSJNNjYwLjg3LDEzMy45MyBDNjY2LjMzLDEzNy45IDY3MS45MSwxNDEuNjUgNjc3LjUsMTQ1IEM3MTcuMTUsMTY4Ljc2IDgzMC43MSwxOTguMjcgODcxLjUsMjIwIEM4ODcuNzUsMjI4LjY2IDkwNC40NiwyMzkuMzQgOTE5Ljc0LDI0OS45MSIgZmlsbD0ibm9uZSIgaWQ9IlVzZXItQXV0aGVudGljYXRpb24iIHN0eWxlPSJzdHJva2U6IzE4MTgxODtzdHJva2Utd2lkdGg6MTsiLz48dGV4dCBmaWxsPSIjMDAwMDAwIiBmb250LWZhbWlseT0ic2Fucy1zZXJpZiIgZm9udC1zaXplPSIxMyIgbGVuZ3RoQWRqdXN0PSJzcGFjaW5nIiB0ZXh0TGVuZ3RoPSIyNiIgeD0iNzkzLjUiIHk9IjE4OC4yODkxIj51c2VzPC90ZXh0Pjx0ZXh0IGZpbGw9IiMwMDAwMDAiIGZvbnQtZmFtaWx5PSJzYW5zLXNlcmlmIiBmb250LXNpemU9IjEzIiBsZW5ndGhBZGp1c3Q9InNwYWNpbmciIHRleHRMZW5ndGg9IjYuNSIgeD0iNjY4LjQ1NzMiIHk9IjEzOS4yMjM5Ij4xPC90ZXh0Pjx0ZXh0IGZpbGw9IiMwMDAwMDAiIGZvbnQtZmFtaWx5PSJzYW5zLXNlcmlmIiBmb250LXNpemU9IjEzIiBsZW5ndGhBZGp1c3Q9InNwYWNpbmciIHRleHRMZW5ndGg9IjYuNSIgeD0iOTAzLjM4NjgiIHk9IjI0MC40ODU2Ij4xPC90ZXh0PjwvZz48IS0tbGluayBSZWNpcGUgdG8gSW5ncmVkaWVudC0tPjxnIGNsYXNzPSJsaW5rIiBkYXRhLWVudGl0eS0xPSJSZWNpcGUiIGRhdGEtZW50aXR5LTI9IkluZ3JlZGllbnQiIGRhdGEtc291cmNlLWxpbmU9Ijc5IiBkYXRhLXVpZD0ibG5rMTciIGlkPSJsaW5rX1JlY2lwZV9JbmdyZWRpZW50Ij48cGF0aCBjb2RlTGluZT0iNzkiIGQ9Ik0zODIuODIsMzczLjA4IEMzNjIuNDIsMzk3LjY4IDM0MC4wNSw0MjQuNjQgMzIwLjY5LDQ0Ny45OCIgZmlsbD0ibm9uZSIgaWQ9IlJlY2lwZS1JbmdyZWRpZW50IiBzdHlsZT0ic3Ryb2tlOiMxODE4MTg7c3Ryb2tlLXdpZHRoOjE7Ii8+PHRleHQgZmlsbD0iIzAwMDAwMCIgZm9udC1mYW1pbHk9InNhbnMtc2VyaWYiIGZvbnQtc2l6ZT0iMTMiIGxlbmd0aEFkanVzdD0ic3BhY2luZyIgdGV4dExlbmd0aD0iNTIiIHg9IjM1OS41IiB5PSI0MTYuMjg5MSI+Y29udGFpbnM8L3RleHQ+PHRleHQgZmlsbD0iIzAwMDAwMCIgZm9udC1mYW1pbHk9InNhbnMtc2VyaWYiIGZvbnQtc2l6ZT0iMTMiIGxlbmd0aEFkanVzdD0ic3BhY2luZyIgdGV4dExlbmd0aD0iNi41IiB4PSIzNzAuNzg4MiIgeT0iMzkzLjA3NTIiPjE8L3RleHQ+PHRleHQgZmlsbD0iIzAwMDAwMCIgZm9udC1mYW1pbHk9InNhbnMtc2VyaWYiIGZvbnQtc2l6ZT0iMTMiIGxlbmd0aEFkanVzdD0ic3BhY2luZyIgdGV4dExlbmd0aD0iNi41IiB4PSIzMjEuMDY0OCIgeT0iNDM4LjE5NTUiPio8L3RleHQ+PC9nPjwhLS1saW5rIFJlY2lwZSB0byBOdXRyaXRpb25hbEluZm8tLT48ZyBjbGFzcz0ibGluayIgZGF0YS1lbnRpdHktMT0iUmVjaXBlIiBkYXRhLWVudGl0eS0yPSJOdXRyaXRpb25hbEluZm8iIGRhdGEtc291cmNlLWxpbmU9IjgwIiBkYXRhLXVpZD0ibG5rMTgiIGlkPSJsaW5rX1JlY2lwZV9OdXRyaXRpb25hbEluZm8iPjxwYXRoIGNvZGVMaW5lPSI4MCIgZD0iTTQ0OS44LDM3My4wOCBDNDUxLjM1LDQwMC4yOCA0NTMuMDYsNDMwLjM3IDQ1NC40Nyw0NTUuMjYiIGZpbGw9Im5vbmUiIGlkPSJSZWNpcGUtTnV0cml0aW9uYWxJbmZvIiBzdHlsZT0ic3Ryb2tlOiMxODE4MTg7c3Ryb2tlLXdpZHRoOjE7Ii8+PHRleHQgZmlsbD0iIzAwMDAwMCIgZm9udC1mYW1pbHk9InNhbnMtc2VyaWYiIGZvbnQtc2l6ZT0iMTMiIGxlbmd0aEFkanVzdD0ic3BhY2luZyIgdGV4dExlbmd0aD0iMTkuNSIgeD0iNDUzLjUiIHk9IjQxNi4yODkxIj5oYXM8L3RleHQ+PHRleHQgZmlsbD0iIzAwMDAwMCIgZm9udC1mYW1pbHk9InNhbnMtc2VyaWYiIGZvbnQtc2l6ZT0iMTMiIGxlbmd0aEFkanVzdD0ic3BhY2luZyIgdGV4dExlbmd0aD0iNi41IiB4PSI0NDMuOTQyOSIgeT0iMzkzLjA3NTIiPjE8L3RleHQ+PHRleHQgZmlsbD0iIzAwMDAwMCIgZm9udC1mYW1pbHk9InNhbnMtc2VyaWYiIGZvbnQtc2l6ZT0iMTMiIGxlbmd0aEFkanVzdD0ic3BhY2luZyIgdGV4dExlbmd0aD0iNi41IiB4PSI0NDcuNjIxMSIgeT0iNDQ1LjY5OTYiPjE8L3RleHQ+PC9nPjwhLS1saW5rIFJlY2lwZSB0byBDb21tZW50LS0+PGcgY2xhc3M9ImxpbmsiIGRhdGEtZW50aXR5LTE9IlJlY2lwZSIgZGF0YS1lbnRpdHktMj0iQ29tbWVudCIgZGF0YS1zb3VyY2UtbGluZT0iODEiIGRhdGEtdWlkPSJsbmsxOSIgaWQ9ImxpbmtfUmVjaXBlX0NvbW1lbnQiPjxwYXRoIGNvZGVMaW5lPSI4MSIgZD0iTTM2Mi4yNSwzNDAuMzIgQzMwNi44OCwzNjkuNDIgMjMyLjk1LDQwOS40OSAxNjkuNSw0NDggQzE2MS43Nyw0NTIuNjkgMTUzLjc4LDQ1Ny43NSAxNDUuODksNDYyLjg3IiBmaWxsPSJub25lIiBpZD0iUmVjaXBlLUNvbW1lbnQiIHN0eWxlPSJzdHJva2U6IzE4MTgxODtzdHJva2Utd2lkdGg6MTsiLz48dGV4dCBmaWxsPSIjMDAwMDAwIiBmb250LWZhbWlseT0ic2Fucy1zZXJpZiIgZm9udC1zaXplPSIxMyIgbGVuZ3RoQWRqdXN0PSJzcGFjaW5nIiB0ZXh0TGVuZ3RoPSIxOS41IiB4PSIyNDUuNSIgeT0iNDE2LjI4OTEiPmhhczwvdGV4dD48dGV4dCBmaWxsPSIjMDAwMDAwIiBmb250LWZhbWlseT0ic2Fucy1zZXJpZiIgZm9udC1zaXplPSIxMyIgbGVuZ3RoQWRqdXN0PSJzcGFjaW5nIiB0ZXh0TGVuZ3RoPSI2LjUiIHg9IjM0OC4wNTMxIiB5PSIzNDMuMjE0OSI+MTwvdGV4dD48dGV4dCBmaWxsPSIjMDAwMDAwIiBmb250LWZhbWlseT0ic2Fucy1zZXJpZiIgZm9udC1zaXplPSIxMyIgbGVuZ3RoQWRqdXN0PSJzcGFjaW5nIiB0ZXh0TGVuZ3RoPSI2LjUiIHg9IjE1MC40MzA0IiB5PSI0NTMuNDM5Ij4qPC90ZXh0PjwvZz48IS0tbGluayBSZWNpcGUgdG8gUmV2aWV3LS0+PGcgY2xhc3M9ImxpbmsiIGRhdGEtZW50aXR5LTE9IlJlY2lwZSIgZGF0YS1lbnRpdHktMj0iUmV2aWV3IiBkYXRhLXNvdXJjZS1saW5lPSI4MiIgZGF0YS11aWQ9ImxuazIwIiBpZD0ibGlua19SZWNpcGVfUmV2aWV3Ij48cGF0aCBjb2RlTGluZT0iODIiIGQ9Ik01MTEuNzcsMzczLjA4IEM1MzUuNjEsNDAwLjI4IDU2MS45OSw0MzAuMzcgNTgzLjgyLDQ1NS4yNiIgZmlsbD0ibm9uZSIgaWQ9IlJlY2lwZS1SZXZpZXciIHN0eWxlPSJzdHJva2U6IzE4MTgxODtzdHJva2Utd2lkdGg6MTsiLz48dGV4dCBmaWxsPSIjMDAwMDAwIiBmb250LWZhbWlseT0ic2Fucy1zZXJpZiIgZm9udC1zaXplPSIxMyIgbGVuZ3RoQWRqdXN0PSJzcGFjaW5nIiB0ZXh0TGVuZ3RoPSIxOS41IiB4PSI1NTAuNSIgeT0iNDE2LjI4OTEiPmhhczwvdGV4dD48dGV4dCBmaWxsPSIjMDAwMDAwIiBmb250LWZhbWlseT0ic2Fucy1zZXJpZiIgZm9udC1zaXplPSIxMyIgbGVuZ3RoQWRqdXN0PSJzcGFjaW5nIiB0ZXh0TGVuZ3RoPSI2LjUiIHg9IjUxMS42MjU4IiB5PSIzOTMuMDc1MiI+MTwvdGV4dD48dGV4dCBmaWxsPSIjMDAwMDAwIiBmb250LWZhbWlseT0ic2Fucy1zZXJpZiIgZm9udC1zaXplPSIxMyIgbGVuZ3RoQWRqdXN0PSJzcGFjaW5nIiB0ZXh0TGVuZ3RoPSI2LjUiIHg9IjU3MC41NiIgeT0iNDQ1LjY5OTYiPio8L3RleHQ+PC9nPjwhLS1saW5rIEluZ3JlZGllbnQgdG8gSW52ZW50b3J5LS0+PGcgY2xhc3M9ImxpbmsiIGRhdGEtZW50aXR5LTE9IkluZ3JlZGllbnQiIGRhdGEtZW50aXR5LTI9IkludmVudG9yeSIgZGF0YS1zb3VyY2UtbGluZT0iODMiIGRhdGEtdWlkPSJsbmsyMSIgaWQ9ImxpbmtfSW5ncmVkaWVudF9JbnZlbnRvcnkiPjxwYXRoIGNvZGVMaW5lPSI4MyIgZD0iTTI3MC41LDU3MS4xOCBDMjcwLjUsNTk1LjE4IDI3MC41LDYyMi41MiAyNzAuNSw2NDUuNzQiIGZpbGw9Im5vbmUiIGlkPSJJbmdyZWRpZW50LUludmVudG9yeSIgc3R5bGU9InN0cm9rZTojMTgxODE4O3N0cm9rZS13aWR0aDoxOyIvPjx0ZXh0IGZpbGw9IiMwMDAwMDAiIGZvbnQtZmFtaWx5PSJzYW5zLXNlcmlmIiBmb250LXNpemU9IjEzIiBsZW5ndGhBZGp1c3Q9InNwYWNpbmciIHRleHRMZW5ndGg9IjY1IiB4PSIyNzEuNSIgeT0iNjE0LjI4OTEiPnRyYWNrZWQgYnk8L3RleHQ+PHRleHQgZmlsbD0iIzAwMDAwMCIgZm9udC1mYW1pbHk9InNhbnMtc2VyaWYiIGZvbnQtc2l6ZT0iMTMiIGxlbmd0aEFkanVzdD0ic3BhY2luZyIgdGV4dExlbmd0aD0iNi41IiB4PSIyNjQuMTgyIiB5PSI1OTEuNDA5NyI+MTwvdGV4dD48dGV4dCBmaWxsPSIjMDAwMDAwIiBmb250LWZhbWlseT0ic2Fucy1zZXJpZiIgZm9udC1zaXplPSIxMyIgbGVuZ3RoQWRqdXN0PSJzcGFjaW5nIiB0ZXh0TGVuZ3RoPSI2LjUiIHg9IjI2NC4xMTMzIiB5PSI2MzYuNTUzNCI+MTwvdGV4dD48L2c+PCEtLVNSQz1bYkxKMVJqaW0zQnRkQXVJU2pkSy14RWZSYTY5T1dBODg2bEczNTljblhTWFk5YjdFV2M3X0ZpZ29OVGREMmtuYXdlYi1WN21jaE9wcU5obndTRUJ0SWVXWVNCSWhJZDRXZnNxVDRJalJvQ19HSWNyb21BN1hYNFpubVg0WjNtdmd4R2RTZnlfblBCM01iaUNfZ25OT3E0d1BWUzVqMG9ULV9DME1qZVhkM2Z5M0N2RDZvbkh5dDVJampsNVRySWp6MFFLbHdUTjJ6VjVTQk1hb0N4ZFFVZDkxSEtBVnVvb1l1djBuUk1FVDF3LWFXU0UwOWtNQ2c2MGFtUUdmdVYzaFdleHNaenpKTHFkUHBqT0VBV3NNYVplemRKX3N5c1VHYmJOVkliNVhFRk82NWk1Z29kQ0tVamczVS10WDhNcWdGOGNKUGNURmNBZ3BUN0dRVkN2d1NLWVdSR3Vmd093cGQ5RXlLczVkRXN1M3RNdFBNUGJydFBqQWdDdkZxODRQUklzZVNVMFJERExhRERsaXcwY2xYdllTRXhaNWpmdGlLLWFtenF3WGZSdmkxWmRXM3JIajY3cGE4OS1LSmlEcmQ5R09weGNTOTh1Y2RWejNfT29hSnJoOVE3ZWdPM0RhTmdPNXhzS0R5ejZwejl2cTR3WlhZdm5zTTlyLXV4d0Eyc1RUcUxOWktjNldEOHZpQ0QxLWs0czZ6V2t6X2hPTUhJN01OelJac2ZHWXpVSlY5T3BVYi1CQW10R2RPUjNwZF9TcEpxaDFrbWN3TS1Sbk96NWNBVllGdXJVM2xlbWxNb1RNcEh6N3lZT2x5X1luZEZ2SURGOFV0cmszei0gLWRfazlyTFptaHpSTzZmSTBkckhhZ1NScHoxRzAwXS0tPjwvZz48L3N2Zz4=;" vertex="1" parent="1">
            <mxGeometry x="-510" y="500" width="1076" height="760" as="geometry" />
          </mxCell>
        </UserObject>
      </root>
    </mxGraphModel>
  </diagram>
</mxfile>
